%TF.GenerationSoftware,KiCad,Pcbnew,7.0.11-7.0.11~ubuntu20.04.1*%
%TF.CreationDate,2024-08-17T18:13:59+02:00*%
%TF.ProjectId,kicad-kria-pi4-ext,6b696361-642d-46b7-9269-612d7069342d,1.0*%
%TF.SameCoordinates,Original*%
%TF.FileFunction,Drillmap*%
%TF.FilePolarity,Positive*%
%FSLAX45Y45*%
G04 Gerber Fmt 4.5, Leading zero omitted, Abs format (unit mm)*
G04 Created by KiCad (PCBNEW 7.0.11-7.0.11~ubuntu20.04.1) date 2024-08-17 18:13:59*
%MOMM*%
%LPD*%
G01*
G04 APERTURE LIST*
%ADD10C,0.050000*%
%ADD11C,0.200000*%
%ADD12C,0.100000*%
G04 APERTURE END LIST*
D10*
X16192500Y-11684000D02*
G75*
G03*
X16256000Y-11620500I0J63500D01*
G01*
X16192500Y-11684000D02*
X8572500Y-11684000D01*
X8572500Y-4445000D02*
G75*
G03*
X8509000Y-4508500I0J-63500D01*
G01*
X8509000Y-11620500D02*
G75*
G03*
X8572500Y-11684000I63500J0D01*
G01*
X8572500Y-4445000D02*
X16192500Y-4445000D01*
X16256000Y-4508500D02*
G75*
G03*
X16192500Y-4445000I-63500J0D01*
G01*
X8509000Y-11620500D02*
X8509000Y-4508500D01*
X16256000Y-4508500D02*
X16256000Y-11620500D01*
D11*
D12*
X9695500Y-6139500D02*
X9735500Y-6179500D01*
X9735500Y-6139500D02*
X9695500Y-6179500D01*
X10775000Y-5695000D02*
X10815000Y-5735000D01*
X10815000Y-5695000D02*
X10775000Y-5735000D01*
X8940000Y-7239000D02*
G75*
G03*
X8840000Y-7239000I-50000J0D01*
G01*
X8840000Y-7239000D02*
G75*
G03*
X8940000Y-7239000I50000J0D01*
G01*
X8940000Y-7493000D02*
G75*
G03*
X8840000Y-7493000I-50000J0D01*
G01*
X8840000Y-7493000D02*
G75*
G03*
X8940000Y-7493000I50000J0D01*
G01*
X8940000Y-7747000D02*
G75*
G03*
X8840000Y-7747000I-50000J0D01*
G01*
X8840000Y-7747000D02*
G75*
G03*
X8940000Y-7747000I50000J0D01*
G01*
X8940000Y-8001000D02*
G75*
G03*
X8840000Y-8001000I-50000J0D01*
G01*
X8840000Y-8001000D02*
G75*
G03*
X8940000Y-8001000I50000J0D01*
G01*
X8940000Y-8255000D02*
G75*
G03*
X8840000Y-8255000I-50000J0D01*
G01*
X8840000Y-8255000D02*
G75*
G03*
X8940000Y-8255000I50000J0D01*
G01*
X8940000Y-8509000D02*
G75*
G03*
X8840000Y-8509000I-50000J0D01*
G01*
X8840000Y-8509000D02*
G75*
G03*
X8940000Y-8509000I50000J0D01*
G01*
X9067000Y-5841500D02*
G75*
G03*
X8967000Y-5841500I-50000J0D01*
G01*
X8967000Y-5841500D02*
G75*
G03*
X9067000Y-5841500I50000J0D01*
G01*
X9067000Y-6095500D02*
G75*
G03*
X8967000Y-6095500I-50000J0D01*
G01*
X8967000Y-6095500D02*
G75*
G03*
X9067000Y-6095500I50000J0D01*
G01*
X9194000Y-7239000D02*
G75*
G03*
X9094000Y-7239000I-50000J0D01*
G01*
X9094000Y-7239000D02*
G75*
G03*
X9194000Y-7239000I50000J0D01*
G01*
X9194000Y-7493000D02*
G75*
G03*
X9094000Y-7493000I-50000J0D01*
G01*
X9094000Y-7493000D02*
G75*
G03*
X9194000Y-7493000I50000J0D01*
G01*
X9194000Y-7747000D02*
G75*
G03*
X9094000Y-7747000I-50000J0D01*
G01*
X9094000Y-7747000D02*
G75*
G03*
X9194000Y-7747000I50000J0D01*
G01*
X9194000Y-8001000D02*
G75*
G03*
X9094000Y-8001000I-50000J0D01*
G01*
X9094000Y-8001000D02*
G75*
G03*
X9194000Y-8001000I50000J0D01*
G01*
X9194000Y-8255000D02*
G75*
G03*
X9094000Y-8255000I-50000J0D01*
G01*
X9094000Y-8255000D02*
G75*
G03*
X9194000Y-8255000I50000J0D01*
G01*
X9194000Y-8509000D02*
G75*
G03*
X9094000Y-8509000I-50000J0D01*
G01*
X9094000Y-8509000D02*
G75*
G03*
X9194000Y-8509000I50000J0D01*
G01*
X10210000Y-4826000D02*
G75*
G03*
X10110000Y-4826000I-50000J0D01*
G01*
X10110000Y-4826000D02*
G75*
G03*
X10210000Y-4826000I50000J0D01*
G01*
X10210000Y-5080000D02*
G75*
G03*
X10110000Y-5080000I-50000J0D01*
G01*
X10110000Y-5080000D02*
G75*
G03*
X10210000Y-5080000I50000J0D01*
G01*
X10210000Y-6096000D02*
G75*
G03*
X10110000Y-6096000I-50000J0D01*
G01*
X10110000Y-6096000D02*
G75*
G03*
X10210000Y-6096000I50000J0D01*
G01*
X10210000Y-6350000D02*
G75*
G03*
X10110000Y-6350000I-50000J0D01*
G01*
X10110000Y-6350000D02*
G75*
G03*
X10210000Y-6350000I50000J0D01*
G01*
X10464000Y-4826000D02*
G75*
G03*
X10364000Y-4826000I-50000J0D01*
G01*
X10364000Y-4826000D02*
G75*
G03*
X10464000Y-4826000I50000J0D01*
G01*
X10464000Y-5080000D02*
G75*
G03*
X10364000Y-5080000I-50000J0D01*
G01*
X10364000Y-5080000D02*
G75*
G03*
X10464000Y-5080000I50000J0D01*
G01*
X10464000Y-6096000D02*
G75*
G03*
X10364000Y-6096000I-50000J0D01*
G01*
X10364000Y-6096000D02*
G75*
G03*
X10464000Y-6096000I50000J0D01*
G01*
X10464000Y-6350000D02*
G75*
G03*
X10364000Y-6350000I-50000J0D01*
G01*
X10364000Y-6350000D02*
G75*
G03*
X10464000Y-6350000I50000J0D01*
G01*
X10718000Y-4826000D02*
G75*
G03*
X10618000Y-4826000I-50000J0D01*
G01*
X10618000Y-4826000D02*
G75*
G03*
X10718000Y-4826000I50000J0D01*
G01*
X10718000Y-5080000D02*
G75*
G03*
X10618000Y-5080000I-50000J0D01*
G01*
X10618000Y-5080000D02*
G75*
G03*
X10718000Y-5080000I50000J0D01*
G01*
X10718000Y-6096000D02*
G75*
G03*
X10618000Y-6096000I-50000J0D01*
G01*
X10618000Y-6096000D02*
G75*
G03*
X10718000Y-6096000I50000J0D01*
G01*
X10718000Y-6350000D02*
G75*
G03*
X10618000Y-6350000I-50000J0D01*
G01*
X10618000Y-6350000D02*
G75*
G03*
X10718000Y-6350000I50000J0D01*
G01*
X10972000Y-4826000D02*
G75*
G03*
X10872000Y-4826000I-50000J0D01*
G01*
X10872000Y-4826000D02*
G75*
G03*
X10972000Y-4826000I50000J0D01*
G01*
X10972000Y-5080000D02*
G75*
G03*
X10872000Y-5080000I-50000J0D01*
G01*
X10872000Y-5080000D02*
G75*
G03*
X10972000Y-5080000I50000J0D01*
G01*
X10972000Y-6096000D02*
G75*
G03*
X10872000Y-6096000I-50000J0D01*
G01*
X10872000Y-6096000D02*
G75*
G03*
X10972000Y-6096000I50000J0D01*
G01*
X10972000Y-6350000D02*
G75*
G03*
X10872000Y-6350000I-50000J0D01*
G01*
X10872000Y-6350000D02*
G75*
G03*
X10972000Y-6350000I50000J0D01*
G01*
X11226000Y-4826000D02*
G75*
G03*
X11126000Y-4826000I-50000J0D01*
G01*
X11126000Y-4826000D02*
G75*
G03*
X11226000Y-4826000I50000J0D01*
G01*
X11226000Y-5080000D02*
G75*
G03*
X11126000Y-5080000I-50000J0D01*
G01*
X11126000Y-5080000D02*
G75*
G03*
X11226000Y-5080000I50000J0D01*
G01*
X11226000Y-6096000D02*
G75*
G03*
X11126000Y-6096000I-50000J0D01*
G01*
X11126000Y-6096000D02*
G75*
G03*
X11226000Y-6096000I50000J0D01*
G01*
X11226000Y-6350000D02*
G75*
G03*
X11126000Y-6350000I-50000J0D01*
G01*
X11126000Y-6350000D02*
G75*
G03*
X11226000Y-6350000I50000J0D01*
G01*
X11480000Y-4826000D02*
G75*
G03*
X11380000Y-4826000I-50000J0D01*
G01*
X11380000Y-4826000D02*
G75*
G03*
X11480000Y-4826000I50000J0D01*
G01*
X11480000Y-5080000D02*
G75*
G03*
X11380000Y-5080000I-50000J0D01*
G01*
X11380000Y-5080000D02*
G75*
G03*
X11480000Y-5080000I50000J0D01*
G01*
X11480000Y-6096000D02*
G75*
G03*
X11380000Y-6096000I-50000J0D01*
G01*
X11380000Y-6096000D02*
G75*
G03*
X11480000Y-6096000I50000J0D01*
G01*
X11480000Y-6350000D02*
G75*
G03*
X11380000Y-6350000I-50000J0D01*
G01*
X11380000Y-6350000D02*
G75*
G03*
X11480000Y-6350000I50000J0D01*
G01*
X11734000Y-4826000D02*
G75*
G03*
X11634000Y-4826000I-50000J0D01*
G01*
X11634000Y-4826000D02*
G75*
G03*
X11734000Y-4826000I50000J0D01*
G01*
X11734000Y-5080000D02*
G75*
G03*
X11634000Y-5080000I-50000J0D01*
G01*
X11634000Y-5080000D02*
G75*
G03*
X11734000Y-5080000I50000J0D01*
G01*
X11734000Y-6096000D02*
G75*
G03*
X11634000Y-6096000I-50000J0D01*
G01*
X11634000Y-6096000D02*
G75*
G03*
X11734000Y-6096000I50000J0D01*
G01*
X11734000Y-6350000D02*
G75*
G03*
X11634000Y-6350000I-50000J0D01*
G01*
X11634000Y-6350000D02*
G75*
G03*
X11734000Y-6350000I50000J0D01*
G01*
X11988000Y-4826000D02*
G75*
G03*
X11888000Y-4826000I-50000J0D01*
G01*
X11888000Y-4826000D02*
G75*
G03*
X11988000Y-4826000I50000J0D01*
G01*
X11988000Y-5080000D02*
G75*
G03*
X11888000Y-5080000I-50000J0D01*
G01*
X11888000Y-5080000D02*
G75*
G03*
X11988000Y-5080000I50000J0D01*
G01*
X11988000Y-6096000D02*
G75*
G03*
X11888000Y-6096000I-50000J0D01*
G01*
X11888000Y-6096000D02*
G75*
G03*
X11988000Y-6096000I50000J0D01*
G01*
X11988000Y-6350000D02*
G75*
G03*
X11888000Y-6350000I-50000J0D01*
G01*
X11888000Y-6350000D02*
G75*
G03*
X11988000Y-6350000I50000J0D01*
G01*
X12242000Y-4826000D02*
G75*
G03*
X12142000Y-4826000I-50000J0D01*
G01*
X12142000Y-4826000D02*
G75*
G03*
X12242000Y-4826000I50000J0D01*
G01*
X12242000Y-5080000D02*
G75*
G03*
X12142000Y-5080000I-50000J0D01*
G01*
X12142000Y-5080000D02*
G75*
G03*
X12242000Y-5080000I50000J0D01*
G01*
X12242000Y-6096000D02*
G75*
G03*
X12142000Y-6096000I-50000J0D01*
G01*
X12142000Y-6096000D02*
G75*
G03*
X12242000Y-6096000I50000J0D01*
G01*
X12242000Y-6350000D02*
G75*
G03*
X12142000Y-6350000I-50000J0D01*
G01*
X12142000Y-6350000D02*
G75*
G03*
X12242000Y-6350000I50000J0D01*
G01*
X12496000Y-4826000D02*
G75*
G03*
X12396000Y-4826000I-50000J0D01*
G01*
X12396000Y-4826000D02*
G75*
G03*
X12496000Y-4826000I50000J0D01*
G01*
X12496000Y-5080000D02*
G75*
G03*
X12396000Y-5080000I-50000J0D01*
G01*
X12396000Y-5080000D02*
G75*
G03*
X12496000Y-5080000I50000J0D01*
G01*
X12496000Y-6096000D02*
G75*
G03*
X12396000Y-6096000I-50000J0D01*
G01*
X12396000Y-6096000D02*
G75*
G03*
X12496000Y-6096000I50000J0D01*
G01*
X12496000Y-6350000D02*
G75*
G03*
X12396000Y-6350000I-50000J0D01*
G01*
X12396000Y-6350000D02*
G75*
G03*
X12496000Y-6350000I50000J0D01*
G01*
X12750000Y-4826000D02*
G75*
G03*
X12650000Y-4826000I-50000J0D01*
G01*
X12650000Y-4826000D02*
G75*
G03*
X12750000Y-4826000I50000J0D01*
G01*
X12750000Y-5080000D02*
G75*
G03*
X12650000Y-5080000I-50000J0D01*
G01*
X12650000Y-5080000D02*
G75*
G03*
X12750000Y-5080000I50000J0D01*
G01*
X12750000Y-6096000D02*
G75*
G03*
X12650000Y-6096000I-50000J0D01*
G01*
X12650000Y-6096000D02*
G75*
G03*
X12750000Y-6096000I50000J0D01*
G01*
X12750000Y-6350000D02*
G75*
G03*
X12650000Y-6350000I-50000J0D01*
G01*
X12650000Y-6350000D02*
G75*
G03*
X12750000Y-6350000I50000J0D01*
G01*
X13004000Y-4826000D02*
G75*
G03*
X12904000Y-4826000I-50000J0D01*
G01*
X12904000Y-4826000D02*
G75*
G03*
X13004000Y-4826000I50000J0D01*
G01*
X13004000Y-5080000D02*
G75*
G03*
X12904000Y-5080000I-50000J0D01*
G01*
X12904000Y-5080000D02*
G75*
G03*
X13004000Y-5080000I50000J0D01*
G01*
X13004000Y-6096000D02*
G75*
G03*
X12904000Y-6096000I-50000J0D01*
G01*
X12904000Y-6096000D02*
G75*
G03*
X13004000Y-6096000I50000J0D01*
G01*
X13004000Y-6350000D02*
G75*
G03*
X12904000Y-6350000I-50000J0D01*
G01*
X12904000Y-6350000D02*
G75*
G03*
X13004000Y-6350000I50000J0D01*
G01*
X13258000Y-4826000D02*
G75*
G03*
X13158000Y-4826000I-50000J0D01*
G01*
X13158000Y-4826000D02*
G75*
G03*
X13258000Y-4826000I50000J0D01*
G01*
X13258000Y-5080000D02*
G75*
G03*
X13158000Y-5080000I-50000J0D01*
G01*
X13158000Y-5080000D02*
G75*
G03*
X13258000Y-5080000I50000J0D01*
G01*
X13258000Y-6096000D02*
G75*
G03*
X13158000Y-6096000I-50000J0D01*
G01*
X13158000Y-6096000D02*
G75*
G03*
X13258000Y-6096000I50000J0D01*
G01*
X13258000Y-6350000D02*
G75*
G03*
X13158000Y-6350000I-50000J0D01*
G01*
X13158000Y-6350000D02*
G75*
G03*
X13258000Y-6350000I50000J0D01*
G01*
X13512000Y-4826000D02*
G75*
G03*
X13412000Y-4826000I-50000J0D01*
G01*
X13412000Y-4826000D02*
G75*
G03*
X13512000Y-4826000I50000J0D01*
G01*
X13512000Y-5080000D02*
G75*
G03*
X13412000Y-5080000I-50000J0D01*
G01*
X13412000Y-5080000D02*
G75*
G03*
X13512000Y-5080000I50000J0D01*
G01*
X13512000Y-6096000D02*
G75*
G03*
X13412000Y-6096000I-50000J0D01*
G01*
X13412000Y-6096000D02*
G75*
G03*
X13512000Y-6096000I50000J0D01*
G01*
X13512000Y-6350000D02*
G75*
G03*
X13412000Y-6350000I-50000J0D01*
G01*
X13412000Y-6350000D02*
G75*
G03*
X13512000Y-6350000I50000J0D01*
G01*
X13766000Y-4826000D02*
G75*
G03*
X13666000Y-4826000I-50000J0D01*
G01*
X13666000Y-4826000D02*
G75*
G03*
X13766000Y-4826000I50000J0D01*
G01*
X13766000Y-5080000D02*
G75*
G03*
X13666000Y-5080000I-50000J0D01*
G01*
X13666000Y-5080000D02*
G75*
G03*
X13766000Y-5080000I50000J0D01*
G01*
X13766000Y-6096000D02*
G75*
G03*
X13666000Y-6096000I-50000J0D01*
G01*
X13666000Y-6096000D02*
G75*
G03*
X13766000Y-6096000I50000J0D01*
G01*
X13766000Y-6350000D02*
G75*
G03*
X13666000Y-6350000I-50000J0D01*
G01*
X13666000Y-6350000D02*
G75*
G03*
X13766000Y-6350000I50000J0D01*
G01*
X14020000Y-4826000D02*
G75*
G03*
X13920000Y-4826000I-50000J0D01*
G01*
X13920000Y-4826000D02*
G75*
G03*
X14020000Y-4826000I50000J0D01*
G01*
X14020000Y-5080000D02*
G75*
G03*
X13920000Y-5080000I-50000J0D01*
G01*
X13920000Y-5080000D02*
G75*
G03*
X14020000Y-5080000I50000J0D01*
G01*
X14020000Y-6096000D02*
G75*
G03*
X13920000Y-6096000I-50000J0D01*
G01*
X13920000Y-6096000D02*
G75*
G03*
X14020000Y-6096000I50000J0D01*
G01*
X14020000Y-6350000D02*
G75*
G03*
X13920000Y-6350000I-50000J0D01*
G01*
X13920000Y-6350000D02*
G75*
G03*
X14020000Y-6350000I50000J0D01*
G01*
X14274000Y-4826000D02*
G75*
G03*
X14174000Y-4826000I-50000J0D01*
G01*
X14174000Y-4826000D02*
G75*
G03*
X14274000Y-4826000I50000J0D01*
G01*
X14274000Y-5080000D02*
G75*
G03*
X14174000Y-5080000I-50000J0D01*
G01*
X14174000Y-5080000D02*
G75*
G03*
X14274000Y-5080000I50000J0D01*
G01*
X14274000Y-6096000D02*
G75*
G03*
X14174000Y-6096000I-50000J0D01*
G01*
X14174000Y-6096000D02*
G75*
G03*
X14274000Y-6096000I50000J0D01*
G01*
X14274000Y-6350000D02*
G75*
G03*
X14174000Y-6350000I-50000J0D01*
G01*
X14174000Y-6350000D02*
G75*
G03*
X14274000Y-6350000I50000J0D01*
G01*
X14528000Y-4826000D02*
G75*
G03*
X14428000Y-4826000I-50000J0D01*
G01*
X14428000Y-4826000D02*
G75*
G03*
X14528000Y-4826000I50000J0D01*
G01*
X14528000Y-5080000D02*
G75*
G03*
X14428000Y-5080000I-50000J0D01*
G01*
X14428000Y-5080000D02*
G75*
G03*
X14528000Y-5080000I50000J0D01*
G01*
X14528000Y-6096000D02*
G75*
G03*
X14428000Y-6096000I-50000J0D01*
G01*
X14428000Y-6096000D02*
G75*
G03*
X14528000Y-6096000I50000J0D01*
G01*
X14528000Y-6350000D02*
G75*
G03*
X14428000Y-6350000I-50000J0D01*
G01*
X14428000Y-6350000D02*
G75*
G03*
X14528000Y-6350000I50000J0D01*
G01*
X14782000Y-4826000D02*
G75*
G03*
X14682000Y-4826000I-50000J0D01*
G01*
X14682000Y-4826000D02*
G75*
G03*
X14782000Y-4826000I50000J0D01*
G01*
X14782000Y-5080000D02*
G75*
G03*
X14682000Y-5080000I-50000J0D01*
G01*
X14682000Y-5080000D02*
G75*
G03*
X14782000Y-5080000I50000J0D01*
G01*
X14782000Y-6096000D02*
G75*
G03*
X14682000Y-6096000I-50000J0D01*
G01*
X14682000Y-6096000D02*
G75*
G03*
X14782000Y-6096000I50000J0D01*
G01*
X14782000Y-6350000D02*
G75*
G03*
X14682000Y-6350000I-50000J0D01*
G01*
X14682000Y-6350000D02*
G75*
G03*
X14782000Y-6350000I50000J0D01*
G01*
X15036000Y-4826000D02*
G75*
G03*
X14936000Y-4826000I-50000J0D01*
G01*
X14936000Y-4826000D02*
G75*
G03*
X15036000Y-4826000I50000J0D01*
G01*
X15036000Y-5080000D02*
G75*
G03*
X14936000Y-5080000I-50000J0D01*
G01*
X14936000Y-5080000D02*
G75*
G03*
X15036000Y-5080000I50000J0D01*
G01*
X15036000Y-6096000D02*
G75*
G03*
X14936000Y-6096000I-50000J0D01*
G01*
X14936000Y-6096000D02*
G75*
G03*
X15036000Y-6096000I50000J0D01*
G01*
X15036000Y-6350000D02*
G75*
G03*
X14936000Y-6350000I-50000J0D01*
G01*
X14936000Y-6350000D02*
G75*
G03*
X15036000Y-6350000I50000J0D01*
G01*
D11*
X8767277Y-11997984D02*
X8767277Y-11797984D01*
X8767277Y-11797984D02*
X8814896Y-11797984D01*
X8814896Y-11797984D02*
X8843467Y-11807508D01*
X8843467Y-11807508D02*
X8862515Y-11826555D01*
X8862515Y-11826555D02*
X8872039Y-11845603D01*
X8872039Y-11845603D02*
X8881563Y-11883698D01*
X8881563Y-11883698D02*
X8881563Y-11912269D01*
X8881563Y-11912269D02*
X8872039Y-11950365D01*
X8872039Y-11950365D02*
X8862515Y-11969412D01*
X8862515Y-11969412D02*
X8843467Y-11988460D01*
X8843467Y-11988460D02*
X8814896Y-11997984D01*
X8814896Y-11997984D02*
X8767277Y-11997984D01*
X8967277Y-11997984D02*
X8967277Y-11864650D01*
X8967277Y-11902746D02*
X8976801Y-11883698D01*
X8976801Y-11883698D02*
X8986324Y-11874174D01*
X8986324Y-11874174D02*
X9005372Y-11864650D01*
X9005372Y-11864650D02*
X9024420Y-11864650D01*
X9091086Y-11997984D02*
X9091086Y-11864650D01*
X9091086Y-11797984D02*
X9081563Y-11807508D01*
X9081563Y-11807508D02*
X9091086Y-11817031D01*
X9091086Y-11817031D02*
X9100610Y-11807508D01*
X9100610Y-11807508D02*
X9091086Y-11797984D01*
X9091086Y-11797984D02*
X9091086Y-11817031D01*
X9214896Y-11997984D02*
X9195848Y-11988460D01*
X9195848Y-11988460D02*
X9186324Y-11969412D01*
X9186324Y-11969412D02*
X9186324Y-11797984D01*
X9319658Y-11997984D02*
X9300610Y-11988460D01*
X9300610Y-11988460D02*
X9291086Y-11969412D01*
X9291086Y-11969412D02*
X9291086Y-11797984D01*
X9548229Y-11997984D02*
X9548229Y-11797984D01*
X9548229Y-11797984D02*
X9614896Y-11940841D01*
X9614896Y-11940841D02*
X9681563Y-11797984D01*
X9681563Y-11797984D02*
X9681563Y-11997984D01*
X9862515Y-11997984D02*
X9862515Y-11893222D01*
X9862515Y-11893222D02*
X9852991Y-11874174D01*
X9852991Y-11874174D02*
X9833944Y-11864650D01*
X9833944Y-11864650D02*
X9795848Y-11864650D01*
X9795848Y-11864650D02*
X9776801Y-11874174D01*
X9862515Y-11988460D02*
X9843467Y-11997984D01*
X9843467Y-11997984D02*
X9795848Y-11997984D01*
X9795848Y-11997984D02*
X9776801Y-11988460D01*
X9776801Y-11988460D02*
X9767277Y-11969412D01*
X9767277Y-11969412D02*
X9767277Y-11950365D01*
X9767277Y-11950365D02*
X9776801Y-11931317D01*
X9776801Y-11931317D02*
X9795848Y-11921793D01*
X9795848Y-11921793D02*
X9843467Y-11921793D01*
X9843467Y-11921793D02*
X9862515Y-11912269D01*
X9957753Y-11864650D02*
X9957753Y-12064650D01*
X9957753Y-11874174D02*
X9976801Y-11864650D01*
X9976801Y-11864650D02*
X10014896Y-11864650D01*
X10014896Y-11864650D02*
X10033944Y-11874174D01*
X10033944Y-11874174D02*
X10043467Y-11883698D01*
X10043467Y-11883698D02*
X10052991Y-11902746D01*
X10052991Y-11902746D02*
X10052991Y-11959888D01*
X10052991Y-11959888D02*
X10043467Y-11978936D01*
X10043467Y-11978936D02*
X10033944Y-11988460D01*
X10033944Y-11988460D02*
X10014896Y-11997984D01*
X10014896Y-11997984D02*
X9976801Y-11997984D01*
X9976801Y-11997984D02*
X9957753Y-11988460D01*
X10138705Y-11978936D02*
X10148229Y-11988460D01*
X10148229Y-11988460D02*
X10138705Y-11997984D01*
X10138705Y-11997984D02*
X10129182Y-11988460D01*
X10129182Y-11988460D02*
X10138705Y-11978936D01*
X10138705Y-11978936D02*
X10138705Y-11997984D01*
X10138705Y-11874174D02*
X10148229Y-11883698D01*
X10148229Y-11883698D02*
X10138705Y-11893222D01*
X10138705Y-11893222D02*
X10129182Y-11883698D01*
X10129182Y-11883698D02*
X10138705Y-11874174D01*
X10138705Y-11874174D02*
X10138705Y-11893222D01*
D12*
X8466500Y-12306500D02*
X8506500Y-12346500D01*
X8506500Y-12306500D02*
X8466500Y-12346500D01*
D11*
X8805372Y-12217984D02*
X8824420Y-12217984D01*
X8824420Y-12217984D02*
X8843467Y-12227508D01*
X8843467Y-12227508D02*
X8852991Y-12237031D01*
X8852991Y-12237031D02*
X8862515Y-12256079D01*
X8862515Y-12256079D02*
X8872039Y-12294174D01*
X8872039Y-12294174D02*
X8872039Y-12341793D01*
X8872039Y-12341793D02*
X8862515Y-12379888D01*
X8862515Y-12379888D02*
X8852991Y-12398936D01*
X8852991Y-12398936D02*
X8843467Y-12408460D01*
X8843467Y-12408460D02*
X8824420Y-12417984D01*
X8824420Y-12417984D02*
X8805372Y-12417984D01*
X8805372Y-12417984D02*
X8786324Y-12408460D01*
X8786324Y-12408460D02*
X8776801Y-12398936D01*
X8776801Y-12398936D02*
X8767277Y-12379888D01*
X8767277Y-12379888D02*
X8757753Y-12341793D01*
X8757753Y-12341793D02*
X8757753Y-12294174D01*
X8757753Y-12294174D02*
X8767277Y-12256079D01*
X8767277Y-12256079D02*
X8776801Y-12237031D01*
X8776801Y-12237031D02*
X8786324Y-12227508D01*
X8786324Y-12227508D02*
X8805372Y-12217984D01*
X8957753Y-12398936D02*
X8967277Y-12408460D01*
X8967277Y-12408460D02*
X8957753Y-12417984D01*
X8957753Y-12417984D02*
X8948229Y-12408460D01*
X8948229Y-12408460D02*
X8957753Y-12398936D01*
X8957753Y-12398936D02*
X8957753Y-12417984D01*
X9138705Y-12284650D02*
X9138705Y-12417984D01*
X9091086Y-12208460D02*
X9043467Y-12351317D01*
X9043467Y-12351317D02*
X9167277Y-12351317D01*
X9281563Y-12217984D02*
X9300610Y-12217984D01*
X9300610Y-12217984D02*
X9319658Y-12227508D01*
X9319658Y-12227508D02*
X9329182Y-12237031D01*
X9329182Y-12237031D02*
X9338705Y-12256079D01*
X9338705Y-12256079D02*
X9348229Y-12294174D01*
X9348229Y-12294174D02*
X9348229Y-12341793D01*
X9348229Y-12341793D02*
X9338705Y-12379888D01*
X9338705Y-12379888D02*
X9329182Y-12398936D01*
X9329182Y-12398936D02*
X9319658Y-12408460D01*
X9319658Y-12408460D02*
X9300610Y-12417984D01*
X9300610Y-12417984D02*
X9281563Y-12417984D01*
X9281563Y-12417984D02*
X9262515Y-12408460D01*
X9262515Y-12408460D02*
X9252991Y-12398936D01*
X9252991Y-12398936D02*
X9243467Y-12379888D01*
X9243467Y-12379888D02*
X9233944Y-12341793D01*
X9233944Y-12341793D02*
X9233944Y-12294174D01*
X9233944Y-12294174D02*
X9243467Y-12256079D01*
X9243467Y-12256079D02*
X9252991Y-12237031D01*
X9252991Y-12237031D02*
X9262515Y-12227508D01*
X9262515Y-12227508D02*
X9281563Y-12217984D01*
X9472039Y-12217984D02*
X9491086Y-12217984D01*
X9491086Y-12217984D02*
X9510134Y-12227508D01*
X9510134Y-12227508D02*
X9519658Y-12237031D01*
X9519658Y-12237031D02*
X9529182Y-12256079D01*
X9529182Y-12256079D02*
X9538705Y-12294174D01*
X9538705Y-12294174D02*
X9538705Y-12341793D01*
X9538705Y-12341793D02*
X9529182Y-12379888D01*
X9529182Y-12379888D02*
X9519658Y-12398936D01*
X9519658Y-12398936D02*
X9510134Y-12408460D01*
X9510134Y-12408460D02*
X9491086Y-12417984D01*
X9491086Y-12417984D02*
X9472039Y-12417984D01*
X9472039Y-12417984D02*
X9452991Y-12408460D01*
X9452991Y-12408460D02*
X9443467Y-12398936D01*
X9443467Y-12398936D02*
X9433944Y-12379888D01*
X9433944Y-12379888D02*
X9424420Y-12341793D01*
X9424420Y-12341793D02*
X9424420Y-12294174D01*
X9424420Y-12294174D02*
X9433944Y-12256079D01*
X9433944Y-12256079D02*
X9443467Y-12237031D01*
X9443467Y-12237031D02*
X9452991Y-12227508D01*
X9452991Y-12227508D02*
X9472039Y-12217984D01*
X9624420Y-12417984D02*
X9624420Y-12284650D01*
X9624420Y-12303698D02*
X9633944Y-12294174D01*
X9633944Y-12294174D02*
X9652991Y-12284650D01*
X9652991Y-12284650D02*
X9681563Y-12284650D01*
X9681563Y-12284650D02*
X9700610Y-12294174D01*
X9700610Y-12294174D02*
X9710134Y-12313222D01*
X9710134Y-12313222D02*
X9710134Y-12417984D01*
X9710134Y-12313222D02*
X9719658Y-12294174D01*
X9719658Y-12294174D02*
X9738705Y-12284650D01*
X9738705Y-12284650D02*
X9767277Y-12284650D01*
X9767277Y-12284650D02*
X9786325Y-12294174D01*
X9786325Y-12294174D02*
X9795848Y-12313222D01*
X9795848Y-12313222D02*
X9795848Y-12417984D01*
X9891086Y-12417984D02*
X9891086Y-12284650D01*
X9891086Y-12303698D02*
X9900610Y-12294174D01*
X9900610Y-12294174D02*
X9919658Y-12284650D01*
X9919658Y-12284650D02*
X9948229Y-12284650D01*
X9948229Y-12284650D02*
X9967277Y-12294174D01*
X9967277Y-12294174D02*
X9976801Y-12313222D01*
X9976801Y-12313222D02*
X9976801Y-12417984D01*
X9976801Y-12313222D02*
X9986325Y-12294174D01*
X9986325Y-12294174D02*
X10005372Y-12284650D01*
X10005372Y-12284650D02*
X10033944Y-12284650D01*
X10033944Y-12284650D02*
X10052991Y-12294174D01*
X10052991Y-12294174D02*
X10062515Y-12313222D01*
X10062515Y-12313222D02*
X10062515Y-12417984D01*
X10452991Y-12208460D02*
X10281563Y-12465603D01*
X10710134Y-12217984D02*
X10729182Y-12217984D01*
X10729182Y-12217984D02*
X10748229Y-12227508D01*
X10748229Y-12227508D02*
X10757753Y-12237031D01*
X10757753Y-12237031D02*
X10767277Y-12256079D01*
X10767277Y-12256079D02*
X10776801Y-12294174D01*
X10776801Y-12294174D02*
X10776801Y-12341793D01*
X10776801Y-12341793D02*
X10767277Y-12379888D01*
X10767277Y-12379888D02*
X10757753Y-12398936D01*
X10757753Y-12398936D02*
X10748229Y-12408460D01*
X10748229Y-12408460D02*
X10729182Y-12417984D01*
X10729182Y-12417984D02*
X10710134Y-12417984D01*
X10710134Y-12417984D02*
X10691087Y-12408460D01*
X10691087Y-12408460D02*
X10681563Y-12398936D01*
X10681563Y-12398936D02*
X10672039Y-12379888D01*
X10672039Y-12379888D02*
X10662515Y-12341793D01*
X10662515Y-12341793D02*
X10662515Y-12294174D01*
X10662515Y-12294174D02*
X10672039Y-12256079D01*
X10672039Y-12256079D02*
X10681563Y-12237031D01*
X10681563Y-12237031D02*
X10691087Y-12227508D01*
X10691087Y-12227508D02*
X10710134Y-12217984D01*
X10862515Y-12398936D02*
X10872039Y-12408460D01*
X10872039Y-12408460D02*
X10862515Y-12417984D01*
X10862515Y-12417984D02*
X10852991Y-12408460D01*
X10852991Y-12408460D02*
X10862515Y-12398936D01*
X10862515Y-12398936D02*
X10862515Y-12417984D01*
X10995848Y-12217984D02*
X11014896Y-12217984D01*
X11014896Y-12217984D02*
X11033944Y-12227508D01*
X11033944Y-12227508D02*
X11043468Y-12237031D01*
X11043468Y-12237031D02*
X11052991Y-12256079D01*
X11052991Y-12256079D02*
X11062515Y-12294174D01*
X11062515Y-12294174D02*
X11062515Y-12341793D01*
X11062515Y-12341793D02*
X11052991Y-12379888D01*
X11052991Y-12379888D02*
X11043468Y-12398936D01*
X11043468Y-12398936D02*
X11033944Y-12408460D01*
X11033944Y-12408460D02*
X11014896Y-12417984D01*
X11014896Y-12417984D02*
X10995848Y-12417984D01*
X10995848Y-12417984D02*
X10976801Y-12408460D01*
X10976801Y-12408460D02*
X10967277Y-12398936D01*
X10967277Y-12398936D02*
X10957753Y-12379888D01*
X10957753Y-12379888D02*
X10948229Y-12341793D01*
X10948229Y-12341793D02*
X10948229Y-12294174D01*
X10948229Y-12294174D02*
X10957753Y-12256079D01*
X10957753Y-12256079D02*
X10967277Y-12237031D01*
X10967277Y-12237031D02*
X10976801Y-12227508D01*
X10976801Y-12227508D02*
X10995848Y-12217984D01*
X11252991Y-12417984D02*
X11138706Y-12417984D01*
X11195848Y-12417984D02*
X11195848Y-12217984D01*
X11195848Y-12217984D02*
X11176801Y-12246555D01*
X11176801Y-12246555D02*
X11157753Y-12265603D01*
X11157753Y-12265603D02*
X11138706Y-12275127D01*
X11433944Y-12217984D02*
X11338706Y-12217984D01*
X11338706Y-12217984D02*
X11329182Y-12313222D01*
X11329182Y-12313222D02*
X11338706Y-12303698D01*
X11338706Y-12303698D02*
X11357753Y-12294174D01*
X11357753Y-12294174D02*
X11405372Y-12294174D01*
X11405372Y-12294174D02*
X11424420Y-12303698D01*
X11424420Y-12303698D02*
X11433944Y-12313222D01*
X11433944Y-12313222D02*
X11443467Y-12332269D01*
X11443467Y-12332269D02*
X11443467Y-12379888D01*
X11443467Y-12379888D02*
X11433944Y-12398936D01*
X11433944Y-12398936D02*
X11424420Y-12408460D01*
X11424420Y-12408460D02*
X11405372Y-12417984D01*
X11405372Y-12417984D02*
X11357753Y-12417984D01*
X11357753Y-12417984D02*
X11338706Y-12408460D01*
X11338706Y-12408460D02*
X11329182Y-12398936D01*
X11510134Y-12217984D02*
X11643467Y-12217984D01*
X11643467Y-12217984D02*
X11557753Y-12417984D01*
X11710134Y-12217984D02*
X11710134Y-12256079D01*
X11786325Y-12217984D02*
X11786325Y-12256079D01*
X12081563Y-12494174D02*
X12072039Y-12484650D01*
X12072039Y-12484650D02*
X12052991Y-12456079D01*
X12052991Y-12456079D02*
X12043468Y-12437031D01*
X12043468Y-12437031D02*
X12033944Y-12408460D01*
X12033944Y-12408460D02*
X12024420Y-12360841D01*
X12024420Y-12360841D02*
X12024420Y-12322746D01*
X12024420Y-12322746D02*
X12033944Y-12275127D01*
X12033944Y-12275127D02*
X12043468Y-12246555D01*
X12043468Y-12246555D02*
X12052991Y-12227508D01*
X12052991Y-12227508D02*
X12072039Y-12198936D01*
X12072039Y-12198936D02*
X12081563Y-12189412D01*
X12148229Y-12237031D02*
X12157753Y-12227508D01*
X12157753Y-12227508D02*
X12176801Y-12217984D01*
X12176801Y-12217984D02*
X12224420Y-12217984D01*
X12224420Y-12217984D02*
X12243468Y-12227508D01*
X12243468Y-12227508D02*
X12252991Y-12237031D01*
X12252991Y-12237031D02*
X12262515Y-12256079D01*
X12262515Y-12256079D02*
X12262515Y-12275127D01*
X12262515Y-12275127D02*
X12252991Y-12303698D01*
X12252991Y-12303698D02*
X12138706Y-12417984D01*
X12138706Y-12417984D02*
X12262515Y-12417984D01*
X12500610Y-12417984D02*
X12500610Y-12217984D01*
X12586325Y-12417984D02*
X12586325Y-12313222D01*
X12586325Y-12313222D02*
X12576801Y-12294174D01*
X12576801Y-12294174D02*
X12557753Y-12284650D01*
X12557753Y-12284650D02*
X12529182Y-12284650D01*
X12529182Y-12284650D02*
X12510134Y-12294174D01*
X12510134Y-12294174D02*
X12500610Y-12303698D01*
X12710134Y-12417984D02*
X12691087Y-12408460D01*
X12691087Y-12408460D02*
X12681563Y-12398936D01*
X12681563Y-12398936D02*
X12672039Y-12379888D01*
X12672039Y-12379888D02*
X12672039Y-12322746D01*
X12672039Y-12322746D02*
X12681563Y-12303698D01*
X12681563Y-12303698D02*
X12691087Y-12294174D01*
X12691087Y-12294174D02*
X12710134Y-12284650D01*
X12710134Y-12284650D02*
X12738706Y-12284650D01*
X12738706Y-12284650D02*
X12757753Y-12294174D01*
X12757753Y-12294174D02*
X12767277Y-12303698D01*
X12767277Y-12303698D02*
X12776801Y-12322746D01*
X12776801Y-12322746D02*
X12776801Y-12379888D01*
X12776801Y-12379888D02*
X12767277Y-12398936D01*
X12767277Y-12398936D02*
X12757753Y-12408460D01*
X12757753Y-12408460D02*
X12738706Y-12417984D01*
X12738706Y-12417984D02*
X12710134Y-12417984D01*
X12891087Y-12417984D02*
X12872039Y-12408460D01*
X12872039Y-12408460D02*
X12862515Y-12389412D01*
X12862515Y-12389412D02*
X12862515Y-12217984D01*
X13043468Y-12408460D02*
X13024420Y-12417984D01*
X13024420Y-12417984D02*
X12986325Y-12417984D01*
X12986325Y-12417984D02*
X12967277Y-12408460D01*
X12967277Y-12408460D02*
X12957753Y-12389412D01*
X12957753Y-12389412D02*
X12957753Y-12313222D01*
X12957753Y-12313222D02*
X12967277Y-12294174D01*
X12967277Y-12294174D02*
X12986325Y-12284650D01*
X12986325Y-12284650D02*
X13024420Y-12284650D01*
X13024420Y-12284650D02*
X13043468Y-12294174D01*
X13043468Y-12294174D02*
X13052991Y-12313222D01*
X13052991Y-12313222D02*
X13052991Y-12332269D01*
X13052991Y-12332269D02*
X12957753Y-12351317D01*
X13129182Y-12408460D02*
X13148230Y-12417984D01*
X13148230Y-12417984D02*
X13186325Y-12417984D01*
X13186325Y-12417984D02*
X13205372Y-12408460D01*
X13205372Y-12408460D02*
X13214896Y-12389412D01*
X13214896Y-12389412D02*
X13214896Y-12379888D01*
X13214896Y-12379888D02*
X13205372Y-12360841D01*
X13205372Y-12360841D02*
X13186325Y-12351317D01*
X13186325Y-12351317D02*
X13157753Y-12351317D01*
X13157753Y-12351317D02*
X13138706Y-12341793D01*
X13138706Y-12341793D02*
X13129182Y-12322746D01*
X13129182Y-12322746D02*
X13129182Y-12313222D01*
X13129182Y-12313222D02*
X13138706Y-12294174D01*
X13138706Y-12294174D02*
X13157753Y-12284650D01*
X13157753Y-12284650D02*
X13186325Y-12284650D01*
X13186325Y-12284650D02*
X13205372Y-12294174D01*
X13281563Y-12494174D02*
X13291087Y-12484650D01*
X13291087Y-12484650D02*
X13310134Y-12456079D01*
X13310134Y-12456079D02*
X13319658Y-12437031D01*
X13319658Y-12437031D02*
X13329182Y-12408460D01*
X13329182Y-12408460D02*
X13338706Y-12360841D01*
X13338706Y-12360841D02*
X13338706Y-12322746D01*
X13338706Y-12322746D02*
X13329182Y-12275127D01*
X13329182Y-12275127D02*
X13319658Y-12246555D01*
X13319658Y-12246555D02*
X13310134Y-12227508D01*
X13310134Y-12227508D02*
X13291087Y-12198936D01*
X13291087Y-12198936D02*
X13281563Y-12189412D01*
D12*
X8506500Y-12590500D02*
G75*
G03*
X8406500Y-12590500I-50000J0D01*
G01*
X8406500Y-12590500D02*
G75*
G03*
X8506500Y-12590500I50000J0D01*
G01*
D11*
X8872039Y-12681984D02*
X8757753Y-12681984D01*
X8814896Y-12681984D02*
X8814896Y-12481984D01*
X8814896Y-12481984D02*
X8795848Y-12510555D01*
X8795848Y-12510555D02*
X8776801Y-12529603D01*
X8776801Y-12529603D02*
X8757753Y-12539127D01*
X8957753Y-12662936D02*
X8967277Y-12672460D01*
X8967277Y-12672460D02*
X8957753Y-12681984D01*
X8957753Y-12681984D02*
X8948229Y-12672460D01*
X8948229Y-12672460D02*
X8957753Y-12662936D01*
X8957753Y-12662936D02*
X8957753Y-12681984D01*
X9091086Y-12481984D02*
X9110134Y-12481984D01*
X9110134Y-12481984D02*
X9129182Y-12491508D01*
X9129182Y-12491508D02*
X9138705Y-12501031D01*
X9138705Y-12501031D02*
X9148229Y-12520079D01*
X9148229Y-12520079D02*
X9157753Y-12558174D01*
X9157753Y-12558174D02*
X9157753Y-12605793D01*
X9157753Y-12605793D02*
X9148229Y-12643888D01*
X9148229Y-12643888D02*
X9138705Y-12662936D01*
X9138705Y-12662936D02*
X9129182Y-12672460D01*
X9129182Y-12672460D02*
X9110134Y-12681984D01*
X9110134Y-12681984D02*
X9091086Y-12681984D01*
X9091086Y-12681984D02*
X9072039Y-12672460D01*
X9072039Y-12672460D02*
X9062515Y-12662936D01*
X9062515Y-12662936D02*
X9052991Y-12643888D01*
X9052991Y-12643888D02*
X9043467Y-12605793D01*
X9043467Y-12605793D02*
X9043467Y-12558174D01*
X9043467Y-12558174D02*
X9052991Y-12520079D01*
X9052991Y-12520079D02*
X9062515Y-12501031D01*
X9062515Y-12501031D02*
X9072039Y-12491508D01*
X9072039Y-12491508D02*
X9091086Y-12481984D01*
X9281563Y-12481984D02*
X9300610Y-12481984D01*
X9300610Y-12481984D02*
X9319658Y-12491508D01*
X9319658Y-12491508D02*
X9329182Y-12501031D01*
X9329182Y-12501031D02*
X9338705Y-12520079D01*
X9338705Y-12520079D02*
X9348229Y-12558174D01*
X9348229Y-12558174D02*
X9348229Y-12605793D01*
X9348229Y-12605793D02*
X9338705Y-12643888D01*
X9338705Y-12643888D02*
X9329182Y-12662936D01*
X9329182Y-12662936D02*
X9319658Y-12672460D01*
X9319658Y-12672460D02*
X9300610Y-12681984D01*
X9300610Y-12681984D02*
X9281563Y-12681984D01*
X9281563Y-12681984D02*
X9262515Y-12672460D01*
X9262515Y-12672460D02*
X9252991Y-12662936D01*
X9252991Y-12662936D02*
X9243467Y-12643888D01*
X9243467Y-12643888D02*
X9233944Y-12605793D01*
X9233944Y-12605793D02*
X9233944Y-12558174D01*
X9233944Y-12558174D02*
X9243467Y-12520079D01*
X9243467Y-12520079D02*
X9252991Y-12501031D01*
X9252991Y-12501031D02*
X9262515Y-12491508D01*
X9262515Y-12491508D02*
X9281563Y-12481984D01*
X9472039Y-12481984D02*
X9491086Y-12481984D01*
X9491086Y-12481984D02*
X9510134Y-12491508D01*
X9510134Y-12491508D02*
X9519658Y-12501031D01*
X9519658Y-12501031D02*
X9529182Y-12520079D01*
X9529182Y-12520079D02*
X9538705Y-12558174D01*
X9538705Y-12558174D02*
X9538705Y-12605793D01*
X9538705Y-12605793D02*
X9529182Y-12643888D01*
X9529182Y-12643888D02*
X9519658Y-12662936D01*
X9519658Y-12662936D02*
X9510134Y-12672460D01*
X9510134Y-12672460D02*
X9491086Y-12681984D01*
X9491086Y-12681984D02*
X9472039Y-12681984D01*
X9472039Y-12681984D02*
X9452991Y-12672460D01*
X9452991Y-12672460D02*
X9443467Y-12662936D01*
X9443467Y-12662936D02*
X9433944Y-12643888D01*
X9433944Y-12643888D02*
X9424420Y-12605793D01*
X9424420Y-12605793D02*
X9424420Y-12558174D01*
X9424420Y-12558174D02*
X9433944Y-12520079D01*
X9433944Y-12520079D02*
X9443467Y-12501031D01*
X9443467Y-12501031D02*
X9452991Y-12491508D01*
X9452991Y-12491508D02*
X9472039Y-12481984D01*
X9624420Y-12681984D02*
X9624420Y-12548650D01*
X9624420Y-12567698D02*
X9633944Y-12558174D01*
X9633944Y-12558174D02*
X9652991Y-12548650D01*
X9652991Y-12548650D02*
X9681563Y-12548650D01*
X9681563Y-12548650D02*
X9700610Y-12558174D01*
X9700610Y-12558174D02*
X9710134Y-12577222D01*
X9710134Y-12577222D02*
X9710134Y-12681984D01*
X9710134Y-12577222D02*
X9719658Y-12558174D01*
X9719658Y-12558174D02*
X9738705Y-12548650D01*
X9738705Y-12548650D02*
X9767277Y-12548650D01*
X9767277Y-12548650D02*
X9786325Y-12558174D01*
X9786325Y-12558174D02*
X9795848Y-12577222D01*
X9795848Y-12577222D02*
X9795848Y-12681984D01*
X9891086Y-12681984D02*
X9891086Y-12548650D01*
X9891086Y-12567698D02*
X9900610Y-12558174D01*
X9900610Y-12558174D02*
X9919658Y-12548650D01*
X9919658Y-12548650D02*
X9948229Y-12548650D01*
X9948229Y-12548650D02*
X9967277Y-12558174D01*
X9967277Y-12558174D02*
X9976801Y-12577222D01*
X9976801Y-12577222D02*
X9976801Y-12681984D01*
X9976801Y-12577222D02*
X9986325Y-12558174D01*
X9986325Y-12558174D02*
X10005372Y-12548650D01*
X10005372Y-12548650D02*
X10033944Y-12548650D01*
X10033944Y-12548650D02*
X10052991Y-12558174D01*
X10052991Y-12558174D02*
X10062515Y-12577222D01*
X10062515Y-12577222D02*
X10062515Y-12681984D01*
X10452991Y-12472460D02*
X10281563Y-12729603D01*
X10710134Y-12481984D02*
X10729182Y-12481984D01*
X10729182Y-12481984D02*
X10748229Y-12491508D01*
X10748229Y-12491508D02*
X10757753Y-12501031D01*
X10757753Y-12501031D02*
X10767277Y-12520079D01*
X10767277Y-12520079D02*
X10776801Y-12558174D01*
X10776801Y-12558174D02*
X10776801Y-12605793D01*
X10776801Y-12605793D02*
X10767277Y-12643888D01*
X10767277Y-12643888D02*
X10757753Y-12662936D01*
X10757753Y-12662936D02*
X10748229Y-12672460D01*
X10748229Y-12672460D02*
X10729182Y-12681984D01*
X10729182Y-12681984D02*
X10710134Y-12681984D01*
X10710134Y-12681984D02*
X10691087Y-12672460D01*
X10691087Y-12672460D02*
X10681563Y-12662936D01*
X10681563Y-12662936D02*
X10672039Y-12643888D01*
X10672039Y-12643888D02*
X10662515Y-12605793D01*
X10662515Y-12605793D02*
X10662515Y-12558174D01*
X10662515Y-12558174D02*
X10672039Y-12520079D01*
X10672039Y-12520079D02*
X10681563Y-12501031D01*
X10681563Y-12501031D02*
X10691087Y-12491508D01*
X10691087Y-12491508D02*
X10710134Y-12481984D01*
X10862515Y-12662936D02*
X10872039Y-12672460D01*
X10872039Y-12672460D02*
X10862515Y-12681984D01*
X10862515Y-12681984D02*
X10852991Y-12672460D01*
X10852991Y-12672460D02*
X10862515Y-12662936D01*
X10862515Y-12662936D02*
X10862515Y-12681984D01*
X10995848Y-12481984D02*
X11014896Y-12481984D01*
X11014896Y-12481984D02*
X11033944Y-12491508D01*
X11033944Y-12491508D02*
X11043468Y-12501031D01*
X11043468Y-12501031D02*
X11052991Y-12520079D01*
X11052991Y-12520079D02*
X11062515Y-12558174D01*
X11062515Y-12558174D02*
X11062515Y-12605793D01*
X11062515Y-12605793D02*
X11052991Y-12643888D01*
X11052991Y-12643888D02*
X11043468Y-12662936D01*
X11043468Y-12662936D02*
X11033944Y-12672460D01*
X11033944Y-12672460D02*
X11014896Y-12681984D01*
X11014896Y-12681984D02*
X10995848Y-12681984D01*
X10995848Y-12681984D02*
X10976801Y-12672460D01*
X10976801Y-12672460D02*
X10967277Y-12662936D01*
X10967277Y-12662936D02*
X10957753Y-12643888D01*
X10957753Y-12643888D02*
X10948229Y-12605793D01*
X10948229Y-12605793D02*
X10948229Y-12558174D01*
X10948229Y-12558174D02*
X10957753Y-12520079D01*
X10957753Y-12520079D02*
X10967277Y-12501031D01*
X10967277Y-12501031D02*
X10976801Y-12491508D01*
X10976801Y-12491508D02*
X10995848Y-12481984D01*
X11129182Y-12481984D02*
X11252991Y-12481984D01*
X11252991Y-12481984D02*
X11186325Y-12558174D01*
X11186325Y-12558174D02*
X11214896Y-12558174D01*
X11214896Y-12558174D02*
X11233944Y-12567698D01*
X11233944Y-12567698D02*
X11243467Y-12577222D01*
X11243467Y-12577222D02*
X11252991Y-12596269D01*
X11252991Y-12596269D02*
X11252991Y-12643888D01*
X11252991Y-12643888D02*
X11243467Y-12662936D01*
X11243467Y-12662936D02*
X11233944Y-12672460D01*
X11233944Y-12672460D02*
X11214896Y-12681984D01*
X11214896Y-12681984D02*
X11157753Y-12681984D01*
X11157753Y-12681984D02*
X11138706Y-12672460D01*
X11138706Y-12672460D02*
X11129182Y-12662936D01*
X11348229Y-12681984D02*
X11386325Y-12681984D01*
X11386325Y-12681984D02*
X11405372Y-12672460D01*
X11405372Y-12672460D02*
X11414896Y-12662936D01*
X11414896Y-12662936D02*
X11433944Y-12634365D01*
X11433944Y-12634365D02*
X11443467Y-12596269D01*
X11443467Y-12596269D02*
X11443467Y-12520079D01*
X11443467Y-12520079D02*
X11433944Y-12501031D01*
X11433944Y-12501031D02*
X11424420Y-12491508D01*
X11424420Y-12491508D02*
X11405372Y-12481984D01*
X11405372Y-12481984D02*
X11367277Y-12481984D01*
X11367277Y-12481984D02*
X11348229Y-12491508D01*
X11348229Y-12491508D02*
X11338706Y-12501031D01*
X11338706Y-12501031D02*
X11329182Y-12520079D01*
X11329182Y-12520079D02*
X11329182Y-12567698D01*
X11329182Y-12567698D02*
X11338706Y-12586746D01*
X11338706Y-12586746D02*
X11348229Y-12596269D01*
X11348229Y-12596269D02*
X11367277Y-12605793D01*
X11367277Y-12605793D02*
X11405372Y-12605793D01*
X11405372Y-12605793D02*
X11424420Y-12596269D01*
X11424420Y-12596269D02*
X11433944Y-12586746D01*
X11433944Y-12586746D02*
X11443467Y-12567698D01*
X11614896Y-12548650D02*
X11614896Y-12681984D01*
X11567277Y-12472460D02*
X11519658Y-12615317D01*
X11519658Y-12615317D02*
X11643467Y-12615317D01*
X11710134Y-12481984D02*
X11710134Y-12520079D01*
X11786325Y-12481984D02*
X11786325Y-12520079D01*
X12081563Y-12758174D02*
X12072039Y-12748650D01*
X12072039Y-12748650D02*
X12052991Y-12720079D01*
X12052991Y-12720079D02*
X12043468Y-12701031D01*
X12043468Y-12701031D02*
X12033944Y-12672460D01*
X12033944Y-12672460D02*
X12024420Y-12624841D01*
X12024420Y-12624841D02*
X12024420Y-12586746D01*
X12024420Y-12586746D02*
X12033944Y-12539127D01*
X12033944Y-12539127D02*
X12043468Y-12510555D01*
X12043468Y-12510555D02*
X12052991Y-12491508D01*
X12052991Y-12491508D02*
X12072039Y-12462936D01*
X12072039Y-12462936D02*
X12081563Y-12453412D01*
X12167277Y-12681984D02*
X12205372Y-12681984D01*
X12205372Y-12681984D02*
X12224420Y-12672460D01*
X12224420Y-12672460D02*
X12233944Y-12662936D01*
X12233944Y-12662936D02*
X12252991Y-12634365D01*
X12252991Y-12634365D02*
X12262515Y-12596269D01*
X12262515Y-12596269D02*
X12262515Y-12520079D01*
X12262515Y-12520079D02*
X12252991Y-12501031D01*
X12252991Y-12501031D02*
X12243468Y-12491508D01*
X12243468Y-12491508D02*
X12224420Y-12481984D01*
X12224420Y-12481984D02*
X12186325Y-12481984D01*
X12186325Y-12481984D02*
X12167277Y-12491508D01*
X12167277Y-12491508D02*
X12157753Y-12501031D01*
X12157753Y-12501031D02*
X12148229Y-12520079D01*
X12148229Y-12520079D02*
X12148229Y-12567698D01*
X12148229Y-12567698D02*
X12157753Y-12586746D01*
X12157753Y-12586746D02*
X12167277Y-12596269D01*
X12167277Y-12596269D02*
X12186325Y-12605793D01*
X12186325Y-12605793D02*
X12224420Y-12605793D01*
X12224420Y-12605793D02*
X12243468Y-12596269D01*
X12243468Y-12596269D02*
X12252991Y-12586746D01*
X12252991Y-12586746D02*
X12262515Y-12567698D01*
X12433944Y-12548650D02*
X12433944Y-12681984D01*
X12386325Y-12472460D02*
X12338706Y-12615317D01*
X12338706Y-12615317D02*
X12462515Y-12615317D01*
X12691087Y-12681984D02*
X12691087Y-12481984D01*
X12776801Y-12681984D02*
X12776801Y-12577222D01*
X12776801Y-12577222D02*
X12767277Y-12558174D01*
X12767277Y-12558174D02*
X12748230Y-12548650D01*
X12748230Y-12548650D02*
X12719658Y-12548650D01*
X12719658Y-12548650D02*
X12700610Y-12558174D01*
X12700610Y-12558174D02*
X12691087Y-12567698D01*
X12900610Y-12681984D02*
X12881563Y-12672460D01*
X12881563Y-12672460D02*
X12872039Y-12662936D01*
X12872039Y-12662936D02*
X12862515Y-12643888D01*
X12862515Y-12643888D02*
X12862515Y-12586746D01*
X12862515Y-12586746D02*
X12872039Y-12567698D01*
X12872039Y-12567698D02*
X12881563Y-12558174D01*
X12881563Y-12558174D02*
X12900610Y-12548650D01*
X12900610Y-12548650D02*
X12929182Y-12548650D01*
X12929182Y-12548650D02*
X12948230Y-12558174D01*
X12948230Y-12558174D02*
X12957753Y-12567698D01*
X12957753Y-12567698D02*
X12967277Y-12586746D01*
X12967277Y-12586746D02*
X12967277Y-12643888D01*
X12967277Y-12643888D02*
X12957753Y-12662936D01*
X12957753Y-12662936D02*
X12948230Y-12672460D01*
X12948230Y-12672460D02*
X12929182Y-12681984D01*
X12929182Y-12681984D02*
X12900610Y-12681984D01*
X13081563Y-12681984D02*
X13062515Y-12672460D01*
X13062515Y-12672460D02*
X13052991Y-12653412D01*
X13052991Y-12653412D02*
X13052991Y-12481984D01*
X13233944Y-12672460D02*
X13214896Y-12681984D01*
X13214896Y-12681984D02*
X13176801Y-12681984D01*
X13176801Y-12681984D02*
X13157753Y-12672460D01*
X13157753Y-12672460D02*
X13148230Y-12653412D01*
X13148230Y-12653412D02*
X13148230Y-12577222D01*
X13148230Y-12577222D02*
X13157753Y-12558174D01*
X13157753Y-12558174D02*
X13176801Y-12548650D01*
X13176801Y-12548650D02*
X13214896Y-12548650D01*
X13214896Y-12548650D02*
X13233944Y-12558174D01*
X13233944Y-12558174D02*
X13243468Y-12577222D01*
X13243468Y-12577222D02*
X13243468Y-12596269D01*
X13243468Y-12596269D02*
X13148230Y-12615317D01*
X13319658Y-12672460D02*
X13338706Y-12681984D01*
X13338706Y-12681984D02*
X13376801Y-12681984D01*
X13376801Y-12681984D02*
X13395849Y-12672460D01*
X13395849Y-12672460D02*
X13405372Y-12653412D01*
X13405372Y-12653412D02*
X13405372Y-12643888D01*
X13405372Y-12643888D02*
X13395849Y-12624841D01*
X13395849Y-12624841D02*
X13376801Y-12615317D01*
X13376801Y-12615317D02*
X13348230Y-12615317D01*
X13348230Y-12615317D02*
X13329182Y-12605793D01*
X13329182Y-12605793D02*
X13319658Y-12586746D01*
X13319658Y-12586746D02*
X13319658Y-12577222D01*
X13319658Y-12577222D02*
X13329182Y-12558174D01*
X13329182Y-12558174D02*
X13348230Y-12548650D01*
X13348230Y-12548650D02*
X13376801Y-12548650D01*
X13376801Y-12548650D02*
X13395849Y-12558174D01*
X13472039Y-12758174D02*
X13481563Y-12748650D01*
X13481563Y-12748650D02*
X13500611Y-12720079D01*
X13500611Y-12720079D02*
X13510134Y-12701031D01*
X13510134Y-12701031D02*
X13519658Y-12672460D01*
X13519658Y-12672460D02*
X13529182Y-12624841D01*
X13529182Y-12624841D02*
X13529182Y-12586746D01*
X13529182Y-12586746D02*
X13519658Y-12539127D01*
X13519658Y-12539127D02*
X13510134Y-12510555D01*
X13510134Y-12510555D02*
X13500611Y-12491508D01*
X13500611Y-12491508D02*
X13481563Y-12462936D01*
X13481563Y-12462936D02*
X13472039Y-12453412D01*
M02*
