G04 #@! TF.GenerationSoftware,KiCad,Pcbnew,7.0.11-7.0.11~ubuntu20.04.1*
G04 #@! TF.CreationDate,2024-08-17T18:13:06+02:00*
G04 #@! TF.ProjectId,kicad-kria-pi4-ext,6b696361-642d-46b7-9269-612d7069342d,1.0*
G04 #@! TF.SameCoordinates,Original*
G04 #@! TF.FileFunction,Legend,Top*
G04 #@! TF.FilePolarity,Positive*
%FSLAX46Y46*%
G04 Gerber Fmt 4.6, Leading zero omitted, Abs format (unit mm)*
G04 Created by KiCad (PCBNEW 7.0.11-7.0.11~ubuntu20.04.1) date 2024-08-17 18:13:06*
%MOMM*%
%LPD*%
G01*
G04 APERTURE LIST*
G04 Aperture macros list*
%AMRoundRect*
0 Rectangle with rounded corners*
0 $1 Rounding radius*
0 $2 $3 $4 $5 $6 $7 $8 $9 X,Y pos of 4 corners*
0 Add a 4 corners polygon primitive as box body*
4,1,4,$2,$3,$4,$5,$6,$7,$8,$9,$2,$3,0*
0 Add four circle primitives for the rounded corners*
1,1,$1+$1,$2,$3*
1,1,$1+$1,$4,$5*
1,1,$1+$1,$6,$7*
1,1,$1+$1,$8,$9*
0 Add four rect primitives between the rounded corners*
20,1,$1+$1,$2,$3,$4,$5,0*
20,1,$1+$1,$4,$5,$6,$7,0*
20,1,$1+$1,$6,$7,$8,$9,0*
20,1,$1+$1,$8,$9,$2,$3,0*%
G04 Aperture macros list end*
%ADD10C,0.100000*%
%ADD11C,0.130000*%
%ADD12C,0.150000*%
%ADD13C,0.120000*%
%ADD14RoundRect,0.237500X-0.300000X-0.237500X0.300000X-0.237500X0.300000X0.237500X-0.300000X0.237500X0*%
%ADD15C,2.500000*%
%ADD16RoundRect,0.237500X-0.237500X0.300000X-0.237500X-0.300000X0.237500X-0.300000X0.237500X0.300000X0*%
%ADD17R,1.700000X1.700000*%
%ADD18O,1.700000X1.700000*%
%ADD19RoundRect,0.250000X0.600000X0.600000X-0.600000X0.600000X-0.600000X-0.600000X0.600000X-0.600000X0*%
%ADD20C,1.700000*%
G04 APERTURE END LIST*
D10*
X103971561Y-67108885D02*
X104619180Y-67108885D01*
X104619180Y-67108885D02*
X104695371Y-67146980D01*
X104695371Y-67146980D02*
X104733466Y-67185076D01*
X104733466Y-67185076D02*
X104771561Y-67261266D01*
X104771561Y-67261266D02*
X104771561Y-67375552D01*
X104771561Y-67375552D02*
X104733466Y-67451742D01*
X104466800Y-67108885D02*
X104504895Y-67185076D01*
X104504895Y-67185076D02*
X104504895Y-67337457D01*
X104504895Y-67337457D02*
X104466800Y-67413647D01*
X104466800Y-67413647D02*
X104428704Y-67451742D01*
X104428704Y-67451742D02*
X104352514Y-67489838D01*
X104352514Y-67489838D02*
X104123942Y-67489838D01*
X104123942Y-67489838D02*
X104047752Y-67451742D01*
X104047752Y-67451742D02*
X104009657Y-67413647D01*
X104009657Y-67413647D02*
X103971561Y-67337457D01*
X103971561Y-67337457D02*
X103971561Y-67185076D01*
X103971561Y-67185076D02*
X104009657Y-67108885D01*
X103971561Y-66727932D02*
X104504895Y-66727932D01*
X104047752Y-66727932D02*
X104009657Y-66689837D01*
X104009657Y-66689837D02*
X103971561Y-66613647D01*
X103971561Y-66613647D02*
X103971561Y-66499361D01*
X103971561Y-66499361D02*
X104009657Y-66423170D01*
X104009657Y-66423170D02*
X104085847Y-66385075D01*
X104085847Y-66385075D02*
X104504895Y-66385075D01*
X104504895Y-65661265D02*
X103704895Y-65661265D01*
X104466800Y-65661265D02*
X104504895Y-65737456D01*
X104504895Y-65737456D02*
X104504895Y-65889837D01*
X104504895Y-65889837D02*
X104466800Y-65966027D01*
X104466800Y-65966027D02*
X104428704Y-66004122D01*
X104428704Y-66004122D02*
X104352514Y-66042218D01*
X104352514Y-66042218D02*
X104123942Y-66042218D01*
X104123942Y-66042218D02*
X104047752Y-66004122D01*
X104047752Y-66004122D02*
X104009657Y-65966027D01*
X104009657Y-65966027D02*
X103971561Y-65889837D01*
X103971561Y-65889837D02*
X103971561Y-65737456D01*
X103971561Y-65737456D02*
X104009657Y-65661265D01*
X103971561Y-58455877D02*
X104619180Y-58455877D01*
X104619180Y-58455877D02*
X104695371Y-58493972D01*
X104695371Y-58493972D02*
X104733466Y-58532068D01*
X104733466Y-58532068D02*
X104771561Y-58608258D01*
X104771561Y-58608258D02*
X104771561Y-58722544D01*
X104771561Y-58722544D02*
X104733466Y-58798734D01*
X104466800Y-58455877D02*
X104504895Y-58532068D01*
X104504895Y-58532068D02*
X104504895Y-58684449D01*
X104504895Y-58684449D02*
X104466800Y-58760639D01*
X104466800Y-58760639D02*
X104428704Y-58798734D01*
X104428704Y-58798734D02*
X104352514Y-58836830D01*
X104352514Y-58836830D02*
X104123942Y-58836830D01*
X104123942Y-58836830D02*
X104047752Y-58798734D01*
X104047752Y-58798734D02*
X104009657Y-58760639D01*
X104009657Y-58760639D02*
X103971561Y-58684449D01*
X103971561Y-58684449D02*
X103971561Y-58532068D01*
X103971561Y-58532068D02*
X104009657Y-58455877D01*
X103971561Y-58074924D02*
X104504895Y-58074924D01*
X104047752Y-58074924D02*
X104009657Y-58036829D01*
X104009657Y-58036829D02*
X103971561Y-57960639D01*
X103971561Y-57960639D02*
X103971561Y-57846353D01*
X103971561Y-57846353D02*
X104009657Y-57770162D01*
X104009657Y-57770162D02*
X104085847Y-57732067D01*
X104085847Y-57732067D02*
X104504895Y-57732067D01*
X104504895Y-57008257D02*
X103704895Y-57008257D01*
X104466800Y-57008257D02*
X104504895Y-57084448D01*
X104504895Y-57084448D02*
X104504895Y-57236829D01*
X104504895Y-57236829D02*
X104466800Y-57313019D01*
X104466800Y-57313019D02*
X104428704Y-57351114D01*
X104428704Y-57351114D02*
X104352514Y-57389210D01*
X104352514Y-57389210D02*
X104123942Y-57389210D01*
X104123942Y-57389210D02*
X104047752Y-57351114D01*
X104047752Y-57351114D02*
X104009657Y-57313019D01*
X104009657Y-57313019D02*
X103971561Y-57236829D01*
X103971561Y-57236829D02*
X103971561Y-57084448D01*
X103971561Y-57084448D02*
X104009657Y-57008257D01*
X98911210Y-64516000D02*
G75*
G03*
X98192790Y-64516000I-359210J0D01*
G01*
X98192790Y-64516000D02*
G75*
G03*
X98911210Y-64516000I359210J0D01*
G01*
X98911210Y-52324000D02*
G75*
G03*
X98192790Y-52324000I-359210J0D01*
G01*
X98192790Y-52324000D02*
G75*
G03*
X98911210Y-52324000I359210J0D01*
G01*
X107044895Y-67642218D02*
X106625847Y-67642218D01*
X106625847Y-67642218D02*
X106549657Y-67680313D01*
X106549657Y-67680313D02*
X106511561Y-67756504D01*
X106511561Y-67756504D02*
X106511561Y-67908885D01*
X106511561Y-67908885D02*
X106549657Y-67985075D01*
X107006800Y-67642218D02*
X107044895Y-67718409D01*
X107044895Y-67718409D02*
X107044895Y-67908885D01*
X107044895Y-67908885D02*
X107006800Y-67985075D01*
X107006800Y-67985075D02*
X106930609Y-68023171D01*
X106930609Y-68023171D02*
X106854419Y-68023171D01*
X106854419Y-68023171D02*
X106778228Y-67985075D01*
X106778228Y-67985075D02*
X106740133Y-67908885D01*
X106740133Y-67908885D02*
X106740133Y-67718409D01*
X106740133Y-67718409D02*
X106702038Y-67642218D01*
X106511561Y-67375551D02*
X106511561Y-67070789D01*
X107044895Y-67261265D02*
X106359180Y-67261265D01*
X106359180Y-67261265D02*
X106282990Y-67223170D01*
X106282990Y-67223170D02*
X106244895Y-67146980D01*
X106244895Y-67146980D02*
X106244895Y-67070789D01*
X107044895Y-66385075D02*
X107044895Y-66842218D01*
X107044895Y-66613646D02*
X106244895Y-66613646D01*
X106244895Y-66613646D02*
X106359180Y-66689837D01*
X106359180Y-66689837D02*
X106435371Y-66766027D01*
X106435371Y-66766027D02*
X106473466Y-66842218D01*
X106244895Y-65889836D02*
X106244895Y-65813646D01*
X106244895Y-65813646D02*
X106282990Y-65737455D01*
X106282990Y-65737455D02*
X106321085Y-65699360D01*
X106321085Y-65699360D02*
X106397276Y-65661265D01*
X106397276Y-65661265D02*
X106549657Y-65623170D01*
X106549657Y-65623170D02*
X106740133Y-65623170D01*
X106740133Y-65623170D02*
X106892514Y-65661265D01*
X106892514Y-65661265D02*
X106968704Y-65699360D01*
X106968704Y-65699360D02*
X107006800Y-65737455D01*
X107006800Y-65737455D02*
X107044895Y-65813646D01*
X107044895Y-65813646D02*
X107044895Y-65889836D01*
X107044895Y-65889836D02*
X107006800Y-65966027D01*
X107006800Y-65966027D02*
X106968704Y-66004122D01*
X106968704Y-66004122D02*
X106892514Y-66042217D01*
X106892514Y-66042217D02*
X106740133Y-66080313D01*
X106740133Y-66080313D02*
X106549657Y-66080313D01*
X106549657Y-66080313D02*
X106397276Y-66042217D01*
X106397276Y-66042217D02*
X106321085Y-66004122D01*
X106321085Y-66004122D02*
X106282990Y-65966027D01*
X106282990Y-65966027D02*
X106244895Y-65889836D01*
X114436323Y-68251742D02*
X114436323Y-67870789D01*
X114664895Y-68327932D02*
X113864895Y-68061265D01*
X113864895Y-68061265D02*
X114664895Y-67794599D01*
X114245847Y-67527932D02*
X114245847Y-67261266D01*
X114664895Y-67146980D02*
X114664895Y-67527932D01*
X114664895Y-67527932D02*
X113864895Y-67527932D01*
X113864895Y-67527932D02*
X113864895Y-67146980D01*
X114664895Y-66385075D02*
X114664895Y-66842218D01*
X114664895Y-66613646D02*
X113864895Y-66613646D01*
X113864895Y-66613646D02*
X113979180Y-66689837D01*
X113979180Y-66689837D02*
X114055371Y-66766027D01*
X114055371Y-66766027D02*
X114093466Y-66842218D01*
X114131561Y-65699360D02*
X114664895Y-65699360D01*
X113826800Y-65889836D02*
X114398228Y-66080313D01*
X114398228Y-66080313D02*
X114398228Y-65585074D01*
X129676323Y-58836830D02*
X129676323Y-58455877D01*
X129904895Y-58913020D02*
X129104895Y-58646353D01*
X129104895Y-58646353D02*
X129904895Y-58379687D01*
X129485847Y-58113020D02*
X129485847Y-57846354D01*
X129904895Y-57732068D02*
X129904895Y-58113020D01*
X129904895Y-58113020D02*
X129104895Y-58113020D01*
X129104895Y-58113020D02*
X129104895Y-57732068D01*
X129904895Y-56970163D02*
X129904895Y-57427306D01*
X129904895Y-57198734D02*
X129104895Y-57198734D01*
X129104895Y-57198734D02*
X129219180Y-57274925D01*
X129219180Y-57274925D02*
X129295371Y-57351115D01*
X129295371Y-57351115D02*
X129333466Y-57427306D01*
X129104895Y-56703496D02*
X129104895Y-56208258D01*
X129104895Y-56208258D02*
X129409657Y-56474924D01*
X129409657Y-56474924D02*
X129409657Y-56360639D01*
X129409657Y-56360639D02*
X129447752Y-56284448D01*
X129447752Y-56284448D02*
X129485847Y-56246353D01*
X129485847Y-56246353D02*
X129562038Y-56208258D01*
X129562038Y-56208258D02*
X129752514Y-56208258D01*
X129752514Y-56208258D02*
X129828704Y-56246353D01*
X129828704Y-56246353D02*
X129866800Y-56284448D01*
X129866800Y-56284448D02*
X129904895Y-56360639D01*
X129904895Y-56360639D02*
X129904895Y-56589210D01*
X129904895Y-56589210D02*
X129866800Y-56665401D01*
X129866800Y-56665401D02*
X129828704Y-56703496D01*
X132216323Y-58836830D02*
X132216323Y-58455877D01*
X132444895Y-58913020D02*
X131644895Y-58646353D01*
X131644895Y-58646353D02*
X132444895Y-58379687D01*
X132216323Y-58151116D02*
X132216323Y-57770163D01*
X132444895Y-58227306D02*
X131644895Y-57960639D01*
X131644895Y-57960639D02*
X132444895Y-57693973D01*
X131987752Y-57313021D02*
X131949657Y-57389211D01*
X131949657Y-57389211D02*
X131911561Y-57427306D01*
X131911561Y-57427306D02*
X131835371Y-57465402D01*
X131835371Y-57465402D02*
X131797276Y-57465402D01*
X131797276Y-57465402D02*
X131721085Y-57427306D01*
X131721085Y-57427306D02*
X131682990Y-57389211D01*
X131682990Y-57389211D02*
X131644895Y-57313021D01*
X131644895Y-57313021D02*
X131644895Y-57160640D01*
X131644895Y-57160640D02*
X131682990Y-57084449D01*
X131682990Y-57084449D02*
X131721085Y-57046354D01*
X131721085Y-57046354D02*
X131797276Y-57008259D01*
X131797276Y-57008259D02*
X131835371Y-57008259D01*
X131835371Y-57008259D02*
X131911561Y-57046354D01*
X131911561Y-57046354D02*
X131949657Y-57084449D01*
X131949657Y-57084449D02*
X131987752Y-57160640D01*
X131987752Y-57160640D02*
X131987752Y-57313021D01*
X131987752Y-57313021D02*
X132025847Y-57389211D01*
X132025847Y-57389211D02*
X132063942Y-57427306D01*
X132063942Y-57427306D02*
X132140133Y-57465402D01*
X132140133Y-57465402D02*
X132292514Y-57465402D01*
X132292514Y-57465402D02*
X132368704Y-57427306D01*
X132368704Y-57427306D02*
X132406800Y-57389211D01*
X132406800Y-57389211D02*
X132444895Y-57313021D01*
X132444895Y-57313021D02*
X132444895Y-57160640D01*
X132444895Y-57160640D02*
X132406800Y-57084449D01*
X132406800Y-57084449D02*
X132368704Y-57046354D01*
X132368704Y-57046354D02*
X132292514Y-57008259D01*
X132292514Y-57008259D02*
X132140133Y-57008259D01*
X132140133Y-57008259D02*
X132063942Y-57046354D01*
X132063942Y-57046354D02*
X132025847Y-57084449D01*
X132025847Y-57084449D02*
X131987752Y-57160640D01*
X100060286Y-66370466D02*
X100822191Y-66370466D01*
X100441238Y-66751419D02*
X100441238Y-65989514D01*
X101774571Y-65751419D02*
X101298381Y-65751419D01*
X101298381Y-65751419D02*
X101250762Y-66227609D01*
X101250762Y-66227609D02*
X101298381Y-66179990D01*
X101298381Y-66179990D02*
X101393619Y-66132371D01*
X101393619Y-66132371D02*
X101631714Y-66132371D01*
X101631714Y-66132371D02*
X101726952Y-66179990D01*
X101726952Y-66179990D02*
X101774571Y-66227609D01*
X101774571Y-66227609D02*
X101822190Y-66322847D01*
X101822190Y-66322847D02*
X101822190Y-66560942D01*
X101822190Y-66560942D02*
X101774571Y-66656180D01*
X101774571Y-66656180D02*
X101726952Y-66703800D01*
X101726952Y-66703800D02*
X101631714Y-66751419D01*
X101631714Y-66751419D02*
X101393619Y-66751419D01*
X101393619Y-66751419D02*
X101298381Y-66703800D01*
X101298381Y-66703800D02*
X101250762Y-66656180D01*
X102107905Y-65751419D02*
X102441238Y-66751419D01*
X102441238Y-66751419D02*
X102774571Y-65751419D01*
X124596323Y-58836830D02*
X124596323Y-58455877D01*
X124824895Y-58913020D02*
X124024895Y-58646353D01*
X124024895Y-58646353D02*
X124824895Y-58379687D01*
X124405847Y-57846354D02*
X124443942Y-57732068D01*
X124443942Y-57732068D02*
X124482038Y-57693973D01*
X124482038Y-57693973D02*
X124558228Y-57655877D01*
X124558228Y-57655877D02*
X124672514Y-57655877D01*
X124672514Y-57655877D02*
X124748704Y-57693973D01*
X124748704Y-57693973D02*
X124786800Y-57732068D01*
X124786800Y-57732068D02*
X124824895Y-57808258D01*
X124824895Y-57808258D02*
X124824895Y-58113020D01*
X124824895Y-58113020D02*
X124024895Y-58113020D01*
X124024895Y-58113020D02*
X124024895Y-57846354D01*
X124024895Y-57846354D02*
X124062990Y-57770163D01*
X124062990Y-57770163D02*
X124101085Y-57732068D01*
X124101085Y-57732068D02*
X124177276Y-57693973D01*
X124177276Y-57693973D02*
X124253466Y-57693973D01*
X124253466Y-57693973D02*
X124329657Y-57732068D01*
X124329657Y-57732068D02*
X124367752Y-57770163D01*
X124367752Y-57770163D02*
X124405847Y-57846354D01*
X124405847Y-57846354D02*
X124405847Y-58113020D01*
X124824895Y-57274925D02*
X124824895Y-57122544D01*
X124824895Y-57122544D02*
X124786800Y-57046354D01*
X124786800Y-57046354D02*
X124748704Y-57008258D01*
X124748704Y-57008258D02*
X124634419Y-56932068D01*
X124634419Y-56932068D02*
X124482038Y-56893973D01*
X124482038Y-56893973D02*
X124177276Y-56893973D01*
X124177276Y-56893973D02*
X124101085Y-56932068D01*
X124101085Y-56932068D02*
X124062990Y-56970163D01*
X124062990Y-56970163D02*
X124024895Y-57046354D01*
X124024895Y-57046354D02*
X124024895Y-57198735D01*
X124024895Y-57198735D02*
X124062990Y-57274925D01*
X124062990Y-57274925D02*
X124101085Y-57313020D01*
X124101085Y-57313020D02*
X124177276Y-57351116D01*
X124177276Y-57351116D02*
X124367752Y-57351116D01*
X124367752Y-57351116D02*
X124443942Y-57313020D01*
X124443942Y-57313020D02*
X124482038Y-57274925D01*
X124482038Y-57274925D02*
X124520133Y-57198735D01*
X124520133Y-57198735D02*
X124520133Y-57046354D01*
X124520133Y-57046354D02*
X124482038Y-56970163D01*
X124482038Y-56970163D02*
X124443942Y-56932068D01*
X124443942Y-56932068D02*
X124367752Y-56893973D01*
X144916323Y-58836830D02*
X144916323Y-58455877D01*
X145144895Y-58913020D02*
X144344895Y-58646353D01*
X144344895Y-58646353D02*
X145144895Y-58379687D01*
X144725847Y-57846354D02*
X144763942Y-57732068D01*
X144763942Y-57732068D02*
X144802038Y-57693973D01*
X144802038Y-57693973D02*
X144878228Y-57655877D01*
X144878228Y-57655877D02*
X144992514Y-57655877D01*
X144992514Y-57655877D02*
X145068704Y-57693973D01*
X145068704Y-57693973D02*
X145106800Y-57732068D01*
X145106800Y-57732068D02*
X145144895Y-57808258D01*
X145144895Y-57808258D02*
X145144895Y-58113020D01*
X145144895Y-58113020D02*
X144344895Y-58113020D01*
X144344895Y-58113020D02*
X144344895Y-57846354D01*
X144344895Y-57846354D02*
X144382990Y-57770163D01*
X144382990Y-57770163D02*
X144421085Y-57732068D01*
X144421085Y-57732068D02*
X144497276Y-57693973D01*
X144497276Y-57693973D02*
X144573466Y-57693973D01*
X144573466Y-57693973D02*
X144649657Y-57732068D01*
X144649657Y-57732068D02*
X144687752Y-57770163D01*
X144687752Y-57770163D02*
X144725847Y-57846354D01*
X144725847Y-57846354D02*
X144725847Y-58113020D01*
X145144895Y-56893973D02*
X145144895Y-57351116D01*
X145144895Y-57122544D02*
X144344895Y-57122544D01*
X144344895Y-57122544D02*
X144459180Y-57198735D01*
X144459180Y-57198735D02*
X144535371Y-57274925D01*
X144535371Y-57274925D02*
X144573466Y-57351116D01*
X144344895Y-56170163D02*
X144344895Y-56551115D01*
X144344895Y-56551115D02*
X144725847Y-56589211D01*
X144725847Y-56589211D02*
X144687752Y-56551115D01*
X144687752Y-56551115D02*
X144649657Y-56474925D01*
X144649657Y-56474925D02*
X144649657Y-56284449D01*
X144649657Y-56284449D02*
X144687752Y-56208258D01*
X144687752Y-56208258D02*
X144725847Y-56170163D01*
X144725847Y-56170163D02*
X144802038Y-56132068D01*
X144802038Y-56132068D02*
X144992514Y-56132068D01*
X144992514Y-56132068D02*
X145068704Y-56170163D01*
X145068704Y-56170163D02*
X145106800Y-56208258D01*
X145106800Y-56208258D02*
X145144895Y-56284449D01*
X145144895Y-56284449D02*
X145144895Y-56474925D01*
X145144895Y-56474925D02*
X145106800Y-56551115D01*
X145106800Y-56551115D02*
X145068704Y-56589211D01*
X117204895Y-67908885D02*
X116785847Y-67908885D01*
X116785847Y-67908885D02*
X116709657Y-67946980D01*
X116709657Y-67946980D02*
X116671561Y-68023171D01*
X116671561Y-68023171D02*
X116671561Y-68175552D01*
X116671561Y-68175552D02*
X116709657Y-68251742D01*
X117166800Y-67908885D02*
X117204895Y-67985076D01*
X117204895Y-67985076D02*
X117204895Y-68175552D01*
X117204895Y-68175552D02*
X117166800Y-68251742D01*
X117166800Y-68251742D02*
X117090609Y-68289838D01*
X117090609Y-68289838D02*
X117014419Y-68289838D01*
X117014419Y-68289838D02*
X116938228Y-68251742D01*
X116938228Y-68251742D02*
X116900133Y-68175552D01*
X116900133Y-68175552D02*
X116900133Y-67985076D01*
X116900133Y-67985076D02*
X116862038Y-67908885D01*
X117204895Y-67185075D02*
X116404895Y-67185075D01*
X117166800Y-67185075D02*
X117204895Y-67261266D01*
X117204895Y-67261266D02*
X117204895Y-67413647D01*
X117204895Y-67413647D02*
X117166800Y-67489837D01*
X117166800Y-67489837D02*
X117128704Y-67527932D01*
X117128704Y-67527932D02*
X117052514Y-67566028D01*
X117052514Y-67566028D02*
X116823942Y-67566028D01*
X116823942Y-67566028D02*
X116747752Y-67527932D01*
X116747752Y-67527932D02*
X116709657Y-67489837D01*
X116709657Y-67489837D02*
X116671561Y-67413647D01*
X116671561Y-67413647D02*
X116671561Y-67261266D01*
X116671561Y-67261266D02*
X116709657Y-67185075D01*
X117204895Y-66385075D02*
X117204895Y-66842218D01*
X117204895Y-66613646D02*
X116404895Y-66613646D01*
X116404895Y-66613646D02*
X116519180Y-66689837D01*
X116519180Y-66689837D02*
X116595371Y-66766027D01*
X116595371Y-66766027D02*
X116633466Y-66842218D01*
X117204895Y-65623170D02*
X117204895Y-66080313D01*
X117204895Y-65851741D02*
X116404895Y-65851741D01*
X116404895Y-65851741D02*
X116519180Y-65927932D01*
X116519180Y-65927932D02*
X116595371Y-66004122D01*
X116595371Y-66004122D02*
X116633466Y-66080313D01*
X134756323Y-68213646D02*
X134756323Y-67832693D01*
X134984895Y-68289836D02*
X134184895Y-68023169D01*
X134184895Y-68023169D02*
X134984895Y-67756503D01*
X134565847Y-67223170D02*
X134565847Y-67489836D01*
X134984895Y-67489836D02*
X134184895Y-67489836D01*
X134184895Y-67489836D02*
X134184895Y-67108884D01*
X134984895Y-66385075D02*
X134984895Y-66842218D01*
X134984895Y-66613646D02*
X134184895Y-66613646D01*
X134184895Y-66613646D02*
X134299180Y-66689837D01*
X134299180Y-66689837D02*
X134375371Y-66766027D01*
X134375371Y-66766027D02*
X134413466Y-66842218D01*
X134184895Y-66118408D02*
X134184895Y-65623170D01*
X134184895Y-65623170D02*
X134489657Y-65889836D01*
X134489657Y-65889836D02*
X134489657Y-65775551D01*
X134489657Y-65775551D02*
X134527752Y-65699360D01*
X134527752Y-65699360D02*
X134565847Y-65661265D01*
X134565847Y-65661265D02*
X134642038Y-65623170D01*
X134642038Y-65623170D02*
X134832514Y-65623170D01*
X134832514Y-65623170D02*
X134908704Y-65661265D01*
X134908704Y-65661265D02*
X134946800Y-65699360D01*
X134946800Y-65699360D02*
X134984895Y-65775551D01*
X134984895Y-65775551D02*
X134984895Y-66004122D01*
X134984895Y-66004122D02*
X134946800Y-66080313D01*
X134946800Y-66080313D02*
X134908704Y-66118408D01*
X121484895Y-67794599D02*
X122284895Y-67604123D01*
X122284895Y-67604123D02*
X121713466Y-67451742D01*
X121713466Y-67451742D02*
X122284895Y-67299361D01*
X122284895Y-67299361D02*
X121484895Y-67108885D01*
X122284895Y-66385075D02*
X122284895Y-66842218D01*
X122284895Y-66613646D02*
X121484895Y-66613646D01*
X121484895Y-66613646D02*
X121599180Y-66689837D01*
X121599180Y-66689837D02*
X121675371Y-66766027D01*
X121675371Y-66766027D02*
X121713466Y-66842218D01*
X121484895Y-66118408D02*
X121484895Y-65623170D01*
X121484895Y-65623170D02*
X121789657Y-65889836D01*
X121789657Y-65889836D02*
X121789657Y-65775551D01*
X121789657Y-65775551D02*
X121827752Y-65699360D01*
X121827752Y-65699360D02*
X121865847Y-65661265D01*
X121865847Y-65661265D02*
X121942038Y-65623170D01*
X121942038Y-65623170D02*
X122132514Y-65623170D01*
X122132514Y-65623170D02*
X122208704Y-65661265D01*
X122208704Y-65661265D02*
X122246800Y-65699360D01*
X122246800Y-65699360D02*
X122284895Y-65775551D01*
X122284895Y-65775551D02*
X122284895Y-66004122D01*
X122284895Y-66004122D02*
X122246800Y-66080313D01*
X122246800Y-66080313D02*
X122208704Y-66118408D01*
X109584895Y-67870789D02*
X109165847Y-67870789D01*
X109165847Y-67870789D02*
X109089657Y-67908884D01*
X109089657Y-67908884D02*
X109051561Y-67985075D01*
X109051561Y-67985075D02*
X109051561Y-68137456D01*
X109051561Y-68137456D02*
X109089657Y-68213646D01*
X109546800Y-67870789D02*
X109584895Y-67946980D01*
X109584895Y-67946980D02*
X109584895Y-68137456D01*
X109584895Y-68137456D02*
X109546800Y-68213646D01*
X109546800Y-68213646D02*
X109470609Y-68251742D01*
X109470609Y-68251742D02*
X109394419Y-68251742D01*
X109394419Y-68251742D02*
X109318228Y-68213646D01*
X109318228Y-68213646D02*
X109280133Y-68137456D01*
X109280133Y-68137456D02*
X109280133Y-67946980D01*
X109280133Y-67946980D02*
X109242038Y-67870789D01*
X109546800Y-67185074D02*
X109584895Y-67261265D01*
X109584895Y-67261265D02*
X109584895Y-67413646D01*
X109584895Y-67413646D02*
X109546800Y-67489836D01*
X109546800Y-67489836D02*
X109470609Y-67527932D01*
X109470609Y-67527932D02*
X109165847Y-67527932D01*
X109165847Y-67527932D02*
X109089657Y-67489836D01*
X109089657Y-67489836D02*
X109051561Y-67413646D01*
X109051561Y-67413646D02*
X109051561Y-67261265D01*
X109051561Y-67261265D02*
X109089657Y-67185074D01*
X109089657Y-67185074D02*
X109165847Y-67146979D01*
X109165847Y-67146979D02*
X109242038Y-67146979D01*
X109242038Y-67146979D02*
X109318228Y-67527932D01*
X109584895Y-66385075D02*
X109584895Y-66842218D01*
X109584895Y-66613646D02*
X108784895Y-66613646D01*
X108784895Y-66613646D02*
X108899180Y-66689837D01*
X108899180Y-66689837D02*
X108975371Y-66766027D01*
X108975371Y-66766027D02*
X109013466Y-66842218D01*
X108784895Y-65889836D02*
X108784895Y-65813646D01*
X108784895Y-65813646D02*
X108822990Y-65737455D01*
X108822990Y-65737455D02*
X108861085Y-65699360D01*
X108861085Y-65699360D02*
X108937276Y-65661265D01*
X108937276Y-65661265D02*
X109089657Y-65623170D01*
X109089657Y-65623170D02*
X109280133Y-65623170D01*
X109280133Y-65623170D02*
X109432514Y-65661265D01*
X109432514Y-65661265D02*
X109508704Y-65699360D01*
X109508704Y-65699360D02*
X109546800Y-65737455D01*
X109546800Y-65737455D02*
X109584895Y-65813646D01*
X109584895Y-65813646D02*
X109584895Y-65889836D01*
X109584895Y-65889836D02*
X109546800Y-65966027D01*
X109546800Y-65966027D02*
X109508704Y-66004122D01*
X109508704Y-66004122D02*
X109432514Y-66042217D01*
X109432514Y-66042217D02*
X109280133Y-66080313D01*
X109280133Y-66080313D02*
X109089657Y-66080313D01*
X109089657Y-66080313D02*
X108937276Y-66042217D01*
X108937276Y-66042217D02*
X108861085Y-66004122D01*
X108861085Y-66004122D02*
X108822990Y-65966027D01*
X108822990Y-65966027D02*
X108784895Y-65889836D01*
D11*
X111393049Y-82201144D02*
X111393049Y-80901144D01*
X112135906Y-82201144D02*
X111578764Y-81458287D01*
X112135906Y-80901144D02*
X111393049Y-81644001D01*
X112693049Y-82201144D02*
X112693049Y-81334478D01*
X112693049Y-81582097D02*
X112754954Y-81458287D01*
X112754954Y-81458287D02*
X112816859Y-81396382D01*
X112816859Y-81396382D02*
X112940668Y-81334478D01*
X112940668Y-81334478D02*
X113064478Y-81334478D01*
X113497811Y-82201144D02*
X113497811Y-81334478D01*
X113497811Y-80901144D02*
X113435907Y-80963049D01*
X113435907Y-80963049D02*
X113497811Y-81024954D01*
X113497811Y-81024954D02*
X113559716Y-80963049D01*
X113559716Y-80963049D02*
X113497811Y-80901144D01*
X113497811Y-80901144D02*
X113497811Y-81024954D01*
X114674002Y-82201144D02*
X114674002Y-81520192D01*
X114674002Y-81520192D02*
X114612097Y-81396382D01*
X114612097Y-81396382D02*
X114488288Y-81334478D01*
X114488288Y-81334478D02*
X114240669Y-81334478D01*
X114240669Y-81334478D02*
X114116859Y-81396382D01*
X114674002Y-82139240D02*
X114550193Y-82201144D01*
X114550193Y-82201144D02*
X114240669Y-82201144D01*
X114240669Y-82201144D02*
X114116859Y-82139240D01*
X114116859Y-82139240D02*
X114054955Y-82015430D01*
X114054955Y-82015430D02*
X114054955Y-81891620D01*
X114054955Y-81891620D02*
X114116859Y-81767811D01*
X114116859Y-81767811D02*
X114240669Y-81705906D01*
X114240669Y-81705906D02*
X114550193Y-81705906D01*
X114550193Y-81705906D02*
X114674002Y-81644001D01*
X116283525Y-82201144D02*
X116283525Y-80901144D01*
X117026382Y-82201144D02*
X116469240Y-81458287D01*
X117026382Y-80901144D02*
X116283525Y-81644001D01*
X118326382Y-82201144D02*
X117893049Y-81582097D01*
X117583525Y-82201144D02*
X117583525Y-80901144D01*
X117583525Y-80901144D02*
X118078763Y-80901144D01*
X118078763Y-80901144D02*
X118202573Y-80963049D01*
X118202573Y-80963049D02*
X118264478Y-81024954D01*
X118264478Y-81024954D02*
X118326382Y-81148763D01*
X118326382Y-81148763D02*
X118326382Y-81334478D01*
X118326382Y-81334478D02*
X118264478Y-81458287D01*
X118264478Y-81458287D02*
X118202573Y-81520192D01*
X118202573Y-81520192D02*
X118078763Y-81582097D01*
X118078763Y-81582097D02*
X117583525Y-81582097D01*
X118821621Y-81024954D02*
X118883525Y-80963049D01*
X118883525Y-80963049D02*
X119007335Y-80901144D01*
X119007335Y-80901144D02*
X119316859Y-80901144D01*
X119316859Y-80901144D02*
X119440668Y-80963049D01*
X119440668Y-80963049D02*
X119502573Y-81024954D01*
X119502573Y-81024954D02*
X119564478Y-81148763D01*
X119564478Y-81148763D02*
X119564478Y-81272573D01*
X119564478Y-81272573D02*
X119502573Y-81458287D01*
X119502573Y-81458287D02*
X118759716Y-82201144D01*
X118759716Y-82201144D02*
X119564478Y-82201144D01*
X120678763Y-80901144D02*
X120431144Y-80901144D01*
X120431144Y-80901144D02*
X120307335Y-80963049D01*
X120307335Y-80963049D02*
X120245430Y-81024954D01*
X120245430Y-81024954D02*
X120121620Y-81210668D01*
X120121620Y-81210668D02*
X120059716Y-81458287D01*
X120059716Y-81458287D02*
X120059716Y-81953525D01*
X120059716Y-81953525D02*
X120121620Y-82077335D01*
X120121620Y-82077335D02*
X120183525Y-82139240D01*
X120183525Y-82139240D02*
X120307335Y-82201144D01*
X120307335Y-82201144D02*
X120554954Y-82201144D01*
X120554954Y-82201144D02*
X120678763Y-82139240D01*
X120678763Y-82139240D02*
X120740668Y-82077335D01*
X120740668Y-82077335D02*
X120802573Y-81953525D01*
X120802573Y-81953525D02*
X120802573Y-81644001D01*
X120802573Y-81644001D02*
X120740668Y-81520192D01*
X120740668Y-81520192D02*
X120678763Y-81458287D01*
X120678763Y-81458287D02*
X120554954Y-81396382D01*
X120554954Y-81396382D02*
X120307335Y-81396382D01*
X120307335Y-81396382D02*
X120183525Y-81458287D01*
X120183525Y-81458287D02*
X120121620Y-81520192D01*
X120121620Y-81520192D02*
X120059716Y-81644001D01*
X121607334Y-80901144D02*
X121731144Y-80901144D01*
X121731144Y-80901144D02*
X121854953Y-80963049D01*
X121854953Y-80963049D02*
X121916858Y-81024954D01*
X121916858Y-81024954D02*
X121978763Y-81148763D01*
X121978763Y-81148763D02*
X122040668Y-81396382D01*
X122040668Y-81396382D02*
X122040668Y-81705906D01*
X122040668Y-81705906D02*
X121978763Y-81953525D01*
X121978763Y-81953525D02*
X121916858Y-82077335D01*
X121916858Y-82077335D02*
X121854953Y-82139240D01*
X121854953Y-82139240D02*
X121731144Y-82201144D01*
X121731144Y-82201144D02*
X121607334Y-82201144D01*
X121607334Y-82201144D02*
X121483525Y-82139240D01*
X121483525Y-82139240D02*
X121421620Y-82077335D01*
X121421620Y-82077335D02*
X121359715Y-81953525D01*
X121359715Y-81953525D02*
X121297811Y-81705906D01*
X121297811Y-81705906D02*
X121297811Y-81396382D01*
X121297811Y-81396382D02*
X121359715Y-81148763D01*
X121359715Y-81148763D02*
X121421620Y-81024954D01*
X121421620Y-81024954D02*
X121483525Y-80963049D01*
X121483525Y-80963049D02*
X121607334Y-80901144D01*
X123588286Y-82201144D02*
X123588286Y-80901144D01*
X123588286Y-80901144D02*
X124083524Y-80901144D01*
X124083524Y-80901144D02*
X124207334Y-80963049D01*
X124207334Y-80963049D02*
X124269239Y-81024954D01*
X124269239Y-81024954D02*
X124331143Y-81148763D01*
X124331143Y-81148763D02*
X124331143Y-81334478D01*
X124331143Y-81334478D02*
X124269239Y-81458287D01*
X124269239Y-81458287D02*
X124207334Y-81520192D01*
X124207334Y-81520192D02*
X124083524Y-81582097D01*
X124083524Y-81582097D02*
X123588286Y-81582097D01*
X124888286Y-82201144D02*
X124888286Y-81334478D01*
X124888286Y-80901144D02*
X124826382Y-80963049D01*
X124826382Y-80963049D02*
X124888286Y-81024954D01*
X124888286Y-81024954D02*
X124950191Y-80963049D01*
X124950191Y-80963049D02*
X124888286Y-80901144D01*
X124888286Y-80901144D02*
X124888286Y-81024954D01*
X125507334Y-81705906D02*
X126497811Y-81705906D01*
X126993049Y-80901144D02*
X127859715Y-80901144D01*
X127859715Y-80901144D02*
X126993049Y-82201144D01*
X126993049Y-82201144D02*
X127859715Y-82201144D01*
X128354953Y-81705906D02*
X129345430Y-81705906D01*
X129778763Y-80901144D02*
X130521620Y-80901144D01*
X130150192Y-82201144D02*
X130150192Y-80901144D01*
X131512096Y-81334478D02*
X131512096Y-82201144D01*
X130954953Y-81334478D02*
X130954953Y-82015430D01*
X130954953Y-82015430D02*
X131016858Y-82139240D01*
X131016858Y-82139240D02*
X131140668Y-82201144D01*
X131140668Y-82201144D02*
X131326382Y-82201144D01*
X131326382Y-82201144D02*
X131450191Y-82139240D01*
X131450191Y-82139240D02*
X131512096Y-82077335D01*
X132131143Y-82201144D02*
X132131143Y-81334478D01*
X132131143Y-81582097D02*
X132193048Y-81458287D01*
X132193048Y-81458287D02*
X132254953Y-81396382D01*
X132254953Y-81396382D02*
X132378762Y-81334478D01*
X132378762Y-81334478D02*
X132502572Y-81334478D01*
X132935905Y-81334478D02*
X132935905Y-82201144D01*
X132935905Y-81458287D02*
X132997810Y-81396382D01*
X132997810Y-81396382D02*
X133121620Y-81334478D01*
X133121620Y-81334478D02*
X133307334Y-81334478D01*
X133307334Y-81334478D02*
X133431143Y-81396382D01*
X133431143Y-81396382D02*
X133493048Y-81520192D01*
X133493048Y-81520192D02*
X133493048Y-82201144D01*
X135040667Y-81829716D02*
X135659714Y-81829716D01*
X134916857Y-82201144D02*
X135350190Y-80901144D01*
X135350190Y-80901144D02*
X135783524Y-82201144D01*
X136774000Y-82201144D02*
X136774000Y-80901144D01*
X136774000Y-82139240D02*
X136650191Y-82201144D01*
X136650191Y-82201144D02*
X136402572Y-82201144D01*
X136402572Y-82201144D02*
X136278762Y-82139240D01*
X136278762Y-82139240D02*
X136216857Y-82077335D01*
X136216857Y-82077335D02*
X136154953Y-81953525D01*
X136154953Y-81953525D02*
X136154953Y-81582097D01*
X136154953Y-81582097D02*
X136216857Y-81458287D01*
X136216857Y-81458287D02*
X136278762Y-81396382D01*
X136278762Y-81396382D02*
X136402572Y-81334478D01*
X136402572Y-81334478D02*
X136650191Y-81334478D01*
X136650191Y-81334478D02*
X136774000Y-81396382D01*
X137950190Y-82201144D02*
X137950190Y-81520192D01*
X137950190Y-81520192D02*
X137888285Y-81396382D01*
X137888285Y-81396382D02*
X137764476Y-81334478D01*
X137764476Y-81334478D02*
X137516857Y-81334478D01*
X137516857Y-81334478D02*
X137393047Y-81396382D01*
X137950190Y-82139240D02*
X137826381Y-82201144D01*
X137826381Y-82201144D02*
X137516857Y-82201144D01*
X137516857Y-82201144D02*
X137393047Y-82139240D01*
X137393047Y-82139240D02*
X137331143Y-82015430D01*
X137331143Y-82015430D02*
X137331143Y-81891620D01*
X137331143Y-81891620D02*
X137393047Y-81767811D01*
X137393047Y-81767811D02*
X137516857Y-81705906D01*
X137516857Y-81705906D02*
X137826381Y-81705906D01*
X137826381Y-81705906D02*
X137950190Y-81644001D01*
X138569237Y-81334478D02*
X138569237Y-82634478D01*
X138569237Y-81396382D02*
X138693047Y-81334478D01*
X138693047Y-81334478D02*
X138940666Y-81334478D01*
X138940666Y-81334478D02*
X139064475Y-81396382D01*
X139064475Y-81396382D02*
X139126380Y-81458287D01*
X139126380Y-81458287D02*
X139188285Y-81582097D01*
X139188285Y-81582097D02*
X139188285Y-81953525D01*
X139188285Y-81953525D02*
X139126380Y-82077335D01*
X139126380Y-82077335D02*
X139064475Y-82139240D01*
X139064475Y-82139240D02*
X138940666Y-82201144D01*
X138940666Y-82201144D02*
X138693047Y-82201144D01*
X138693047Y-82201144D02*
X138569237Y-82139240D01*
X139559713Y-81334478D02*
X140054951Y-81334478D01*
X139745427Y-80901144D02*
X139745427Y-82015430D01*
X139745427Y-82015430D02*
X139807332Y-82139240D01*
X139807332Y-82139240D02*
X139931142Y-82201144D01*
X139931142Y-82201144D02*
X140054951Y-82201144D01*
X140983522Y-82139240D02*
X140859713Y-82201144D01*
X140859713Y-82201144D02*
X140612094Y-82201144D01*
X140612094Y-82201144D02*
X140488284Y-82139240D01*
X140488284Y-82139240D02*
X140426380Y-82015430D01*
X140426380Y-82015430D02*
X140426380Y-81520192D01*
X140426380Y-81520192D02*
X140488284Y-81396382D01*
X140488284Y-81396382D02*
X140612094Y-81334478D01*
X140612094Y-81334478D02*
X140859713Y-81334478D01*
X140859713Y-81334478D02*
X140983522Y-81396382D01*
X140983522Y-81396382D02*
X141045427Y-81520192D01*
X141045427Y-81520192D02*
X141045427Y-81644001D01*
X141045427Y-81644001D02*
X140426380Y-81767811D01*
X141602570Y-82201144D02*
X141602570Y-81334478D01*
X141602570Y-81582097D02*
X141664475Y-81458287D01*
X141664475Y-81458287D02*
X141726380Y-81396382D01*
X141726380Y-81396382D02*
X141850189Y-81334478D01*
X141850189Y-81334478D02*
X141973999Y-81334478D01*
X112074002Y-86387144D02*
X111331145Y-86387144D01*
X111702573Y-86387144D02*
X111702573Y-85087144D01*
X111702573Y-85087144D02*
X111578764Y-85272859D01*
X111578764Y-85272859D02*
X111454954Y-85396668D01*
X111454954Y-85396668D02*
X111331145Y-85458573D01*
X113188287Y-85087144D02*
X112940668Y-85087144D01*
X112940668Y-85087144D02*
X112816859Y-85149049D01*
X112816859Y-85149049D02*
X112754954Y-85210954D01*
X112754954Y-85210954D02*
X112631144Y-85396668D01*
X112631144Y-85396668D02*
X112569240Y-85644287D01*
X112569240Y-85644287D02*
X112569240Y-86139525D01*
X112569240Y-86139525D02*
X112631144Y-86263335D01*
X112631144Y-86263335D02*
X112693049Y-86325240D01*
X112693049Y-86325240D02*
X112816859Y-86387144D01*
X112816859Y-86387144D02*
X113064478Y-86387144D01*
X113064478Y-86387144D02*
X113188287Y-86325240D01*
X113188287Y-86325240D02*
X113250192Y-86263335D01*
X113250192Y-86263335D02*
X113312097Y-86139525D01*
X113312097Y-86139525D02*
X113312097Y-85830001D01*
X113312097Y-85830001D02*
X113250192Y-85706192D01*
X113250192Y-85706192D02*
X113188287Y-85644287D01*
X113188287Y-85644287D02*
X113064478Y-85582382D01*
X113064478Y-85582382D02*
X112816859Y-85582382D01*
X112816859Y-85582382D02*
X112693049Y-85644287D01*
X112693049Y-85644287D02*
X112631144Y-85706192D01*
X112631144Y-85706192D02*
X112569240Y-85830001D01*
X113869239Y-86263335D02*
X113931144Y-86325240D01*
X113931144Y-86325240D02*
X113869239Y-86387144D01*
X113869239Y-86387144D02*
X113807335Y-86325240D01*
X113807335Y-86325240D02*
X113869239Y-86263335D01*
X113869239Y-86263335D02*
X113869239Y-86387144D01*
X114735906Y-85087144D02*
X114859716Y-85087144D01*
X114859716Y-85087144D02*
X114983525Y-85149049D01*
X114983525Y-85149049D02*
X115045430Y-85210954D01*
X115045430Y-85210954D02*
X115107335Y-85334763D01*
X115107335Y-85334763D02*
X115169240Y-85582382D01*
X115169240Y-85582382D02*
X115169240Y-85891906D01*
X115169240Y-85891906D02*
X115107335Y-86139525D01*
X115107335Y-86139525D02*
X115045430Y-86263335D01*
X115045430Y-86263335D02*
X114983525Y-86325240D01*
X114983525Y-86325240D02*
X114859716Y-86387144D01*
X114859716Y-86387144D02*
X114735906Y-86387144D01*
X114735906Y-86387144D02*
X114612097Y-86325240D01*
X114612097Y-86325240D02*
X114550192Y-86263335D01*
X114550192Y-86263335D02*
X114488287Y-86139525D01*
X114488287Y-86139525D02*
X114426383Y-85891906D01*
X114426383Y-85891906D02*
X114426383Y-85582382D01*
X114426383Y-85582382D02*
X114488287Y-85334763D01*
X114488287Y-85334763D02*
X114550192Y-85210954D01*
X114550192Y-85210954D02*
X114612097Y-85149049D01*
X114612097Y-85149049D02*
X114735906Y-85087144D01*
X115912097Y-85644287D02*
X115788287Y-85582382D01*
X115788287Y-85582382D02*
X115726382Y-85520478D01*
X115726382Y-85520478D02*
X115664478Y-85396668D01*
X115664478Y-85396668D02*
X115664478Y-85334763D01*
X115664478Y-85334763D02*
X115726382Y-85210954D01*
X115726382Y-85210954D02*
X115788287Y-85149049D01*
X115788287Y-85149049D02*
X115912097Y-85087144D01*
X115912097Y-85087144D02*
X116159716Y-85087144D01*
X116159716Y-85087144D02*
X116283525Y-85149049D01*
X116283525Y-85149049D02*
X116345430Y-85210954D01*
X116345430Y-85210954D02*
X116407335Y-85334763D01*
X116407335Y-85334763D02*
X116407335Y-85396668D01*
X116407335Y-85396668D02*
X116345430Y-85520478D01*
X116345430Y-85520478D02*
X116283525Y-85582382D01*
X116283525Y-85582382D02*
X116159716Y-85644287D01*
X116159716Y-85644287D02*
X115912097Y-85644287D01*
X115912097Y-85644287D02*
X115788287Y-85706192D01*
X115788287Y-85706192D02*
X115726382Y-85768097D01*
X115726382Y-85768097D02*
X115664478Y-85891906D01*
X115664478Y-85891906D02*
X115664478Y-86139525D01*
X115664478Y-86139525D02*
X115726382Y-86263335D01*
X115726382Y-86263335D02*
X115788287Y-86325240D01*
X115788287Y-86325240D02*
X115912097Y-86387144D01*
X115912097Y-86387144D02*
X116159716Y-86387144D01*
X116159716Y-86387144D02*
X116283525Y-86325240D01*
X116283525Y-86325240D02*
X116345430Y-86263335D01*
X116345430Y-86263335D02*
X116407335Y-86139525D01*
X116407335Y-86139525D02*
X116407335Y-85891906D01*
X116407335Y-85891906D02*
X116345430Y-85768097D01*
X116345430Y-85768097D02*
X116283525Y-85706192D01*
X116283525Y-85706192D02*
X116159716Y-85644287D01*
X116964477Y-86263335D02*
X117026382Y-86325240D01*
X117026382Y-86325240D02*
X116964477Y-86387144D01*
X116964477Y-86387144D02*
X116902573Y-86325240D01*
X116902573Y-86325240D02*
X116964477Y-86263335D01*
X116964477Y-86263335D02*
X116964477Y-86387144D01*
X117521621Y-85210954D02*
X117583525Y-85149049D01*
X117583525Y-85149049D02*
X117707335Y-85087144D01*
X117707335Y-85087144D02*
X118016859Y-85087144D01*
X118016859Y-85087144D02*
X118140668Y-85149049D01*
X118140668Y-85149049D02*
X118202573Y-85210954D01*
X118202573Y-85210954D02*
X118264478Y-85334763D01*
X118264478Y-85334763D02*
X118264478Y-85458573D01*
X118264478Y-85458573D02*
X118202573Y-85644287D01*
X118202573Y-85644287D02*
X117459716Y-86387144D01*
X117459716Y-86387144D02*
X118264478Y-86387144D01*
X119069239Y-85087144D02*
X119193049Y-85087144D01*
X119193049Y-85087144D02*
X119316858Y-85149049D01*
X119316858Y-85149049D02*
X119378763Y-85210954D01*
X119378763Y-85210954D02*
X119440668Y-85334763D01*
X119440668Y-85334763D02*
X119502573Y-85582382D01*
X119502573Y-85582382D02*
X119502573Y-85891906D01*
X119502573Y-85891906D02*
X119440668Y-86139525D01*
X119440668Y-86139525D02*
X119378763Y-86263335D01*
X119378763Y-86263335D02*
X119316858Y-86325240D01*
X119316858Y-86325240D02*
X119193049Y-86387144D01*
X119193049Y-86387144D02*
X119069239Y-86387144D01*
X119069239Y-86387144D02*
X118945430Y-86325240D01*
X118945430Y-86325240D02*
X118883525Y-86263335D01*
X118883525Y-86263335D02*
X118821620Y-86139525D01*
X118821620Y-86139525D02*
X118759716Y-85891906D01*
X118759716Y-85891906D02*
X118759716Y-85582382D01*
X118759716Y-85582382D02*
X118821620Y-85334763D01*
X118821620Y-85334763D02*
X118883525Y-85210954D01*
X118883525Y-85210954D02*
X118945430Y-85149049D01*
X118945430Y-85149049D02*
X119069239Y-85087144D01*
X119997811Y-85210954D02*
X120059715Y-85149049D01*
X120059715Y-85149049D02*
X120183525Y-85087144D01*
X120183525Y-85087144D02*
X120493049Y-85087144D01*
X120493049Y-85087144D02*
X120616858Y-85149049D01*
X120616858Y-85149049D02*
X120678763Y-85210954D01*
X120678763Y-85210954D02*
X120740668Y-85334763D01*
X120740668Y-85334763D02*
X120740668Y-85458573D01*
X120740668Y-85458573D02*
X120678763Y-85644287D01*
X120678763Y-85644287D02*
X119935906Y-86387144D01*
X119935906Y-86387144D02*
X120740668Y-86387144D01*
X121854953Y-85520478D02*
X121854953Y-86387144D01*
X121545429Y-85025240D02*
X121235906Y-85953811D01*
X121235906Y-85953811D02*
X122040667Y-85953811D01*
X111393049Y-88480144D02*
X111393049Y-87180144D01*
X111393049Y-87675382D02*
X111516859Y-87613478D01*
X111516859Y-87613478D02*
X111764478Y-87613478D01*
X111764478Y-87613478D02*
X111888287Y-87675382D01*
X111888287Y-87675382D02*
X111950192Y-87737287D01*
X111950192Y-87737287D02*
X112012097Y-87861097D01*
X112012097Y-87861097D02*
X112012097Y-88232525D01*
X112012097Y-88232525D02*
X111950192Y-88356335D01*
X111950192Y-88356335D02*
X111888287Y-88418240D01*
X111888287Y-88418240D02*
X111764478Y-88480144D01*
X111764478Y-88480144D02*
X111516859Y-88480144D01*
X111516859Y-88480144D02*
X111393049Y-88418240D01*
X112445430Y-87613478D02*
X112754954Y-88480144D01*
X113064477Y-87613478D02*
X112754954Y-88480144D01*
X112754954Y-88480144D02*
X112631144Y-88789668D01*
X112631144Y-88789668D02*
X112569239Y-88851573D01*
X112569239Y-88851573D02*
X112445430Y-88913478D01*
X114488287Y-88418240D02*
X114674001Y-88480144D01*
X114674001Y-88480144D02*
X114983525Y-88480144D01*
X114983525Y-88480144D02*
X115107334Y-88418240D01*
X115107334Y-88418240D02*
X115169239Y-88356335D01*
X115169239Y-88356335D02*
X115231144Y-88232525D01*
X115231144Y-88232525D02*
X115231144Y-88108716D01*
X115231144Y-88108716D02*
X115169239Y-87984906D01*
X115169239Y-87984906D02*
X115107334Y-87923001D01*
X115107334Y-87923001D02*
X114983525Y-87861097D01*
X114983525Y-87861097D02*
X114735906Y-87799192D01*
X114735906Y-87799192D02*
X114612096Y-87737287D01*
X114612096Y-87737287D02*
X114550191Y-87675382D01*
X114550191Y-87675382D02*
X114488287Y-87551573D01*
X114488287Y-87551573D02*
X114488287Y-87427763D01*
X114488287Y-87427763D02*
X114550191Y-87303954D01*
X114550191Y-87303954D02*
X114612096Y-87242049D01*
X114612096Y-87242049D02*
X114735906Y-87180144D01*
X114735906Y-87180144D02*
X115045429Y-87180144D01*
X115045429Y-87180144D02*
X115231144Y-87242049D01*
X116407334Y-87180144D02*
X115788286Y-87180144D01*
X115788286Y-87180144D02*
X115726382Y-87799192D01*
X115726382Y-87799192D02*
X115788286Y-87737287D01*
X115788286Y-87737287D02*
X115912096Y-87675382D01*
X115912096Y-87675382D02*
X116221620Y-87675382D01*
X116221620Y-87675382D02*
X116345429Y-87737287D01*
X116345429Y-87737287D02*
X116407334Y-87799192D01*
X116407334Y-87799192D02*
X116469239Y-87923001D01*
X116469239Y-87923001D02*
X116469239Y-88232525D01*
X116469239Y-88232525D02*
X116407334Y-88356335D01*
X116407334Y-88356335D02*
X116345429Y-88418240D01*
X116345429Y-88418240D02*
X116221620Y-88480144D01*
X116221620Y-88480144D02*
X115912096Y-88480144D01*
X115912096Y-88480144D02*
X115788286Y-88418240D01*
X115788286Y-88418240D02*
X115726382Y-88356335D01*
X117088286Y-88480144D02*
X117335905Y-88480144D01*
X117335905Y-88480144D02*
X117459715Y-88418240D01*
X117459715Y-88418240D02*
X117521619Y-88356335D01*
X117521619Y-88356335D02*
X117645429Y-88170620D01*
X117645429Y-88170620D02*
X117707334Y-87923001D01*
X117707334Y-87923001D02*
X117707334Y-87427763D01*
X117707334Y-87427763D02*
X117645429Y-87303954D01*
X117645429Y-87303954D02*
X117583524Y-87242049D01*
X117583524Y-87242049D02*
X117459715Y-87180144D01*
X117459715Y-87180144D02*
X117212096Y-87180144D01*
X117212096Y-87180144D02*
X117088286Y-87242049D01*
X117088286Y-87242049D02*
X117026381Y-87303954D01*
X117026381Y-87303954D02*
X116964477Y-87427763D01*
X116964477Y-87427763D02*
X116964477Y-87737287D01*
X116964477Y-87737287D02*
X117026381Y-87861097D01*
X117026381Y-87861097D02*
X117088286Y-87923001D01*
X117088286Y-87923001D02*
X117212096Y-87984906D01*
X117212096Y-87984906D02*
X117459715Y-87984906D01*
X117459715Y-87984906D02*
X117583524Y-87923001D01*
X117583524Y-87923001D02*
X117645429Y-87861097D01*
X117645429Y-87861097D02*
X117707334Y-87737287D01*
X118264476Y-88480144D02*
X118264476Y-87180144D01*
X118264476Y-87180144D02*
X118697810Y-88108716D01*
X118697810Y-88108716D02*
X119131143Y-87180144D01*
X119131143Y-87180144D02*
X119131143Y-88480144D01*
X119626381Y-87180144D02*
X120493047Y-87180144D01*
X120493047Y-87180144D02*
X119626381Y-88480144D01*
X119626381Y-88480144D02*
X120493047Y-88480144D01*
D10*
X89408095Y-63690038D02*
X89312857Y-63642419D01*
X89312857Y-63642419D02*
X89170000Y-63642419D01*
X89170000Y-63642419D02*
X89027143Y-63690038D01*
X89027143Y-63690038D02*
X88931905Y-63785276D01*
X88931905Y-63785276D02*
X88884286Y-63880514D01*
X88884286Y-63880514D02*
X88836667Y-64070990D01*
X88836667Y-64070990D02*
X88836667Y-64213847D01*
X88836667Y-64213847D02*
X88884286Y-64404323D01*
X88884286Y-64404323D02*
X88931905Y-64499561D01*
X88931905Y-64499561D02*
X89027143Y-64594800D01*
X89027143Y-64594800D02*
X89170000Y-64642419D01*
X89170000Y-64642419D02*
X89265238Y-64642419D01*
X89265238Y-64642419D02*
X89408095Y-64594800D01*
X89408095Y-64594800D02*
X89455714Y-64547180D01*
X89455714Y-64547180D02*
X89455714Y-64213847D01*
X89455714Y-64213847D02*
X89265238Y-64213847D01*
X89884286Y-64642419D02*
X89884286Y-63642419D01*
X89884286Y-63642419D02*
X90455714Y-64642419D01*
X90455714Y-64642419D02*
X90455714Y-63642419D01*
X90931905Y-64642419D02*
X90931905Y-63642419D01*
X90931905Y-63642419D02*
X91170000Y-63642419D01*
X91170000Y-63642419D02*
X91312857Y-63690038D01*
X91312857Y-63690038D02*
X91408095Y-63785276D01*
X91408095Y-63785276D02*
X91455714Y-63880514D01*
X91455714Y-63880514D02*
X91503333Y-64070990D01*
X91503333Y-64070990D02*
X91503333Y-64213847D01*
X91503333Y-64213847D02*
X91455714Y-64404323D01*
X91455714Y-64404323D02*
X91408095Y-64499561D01*
X91408095Y-64499561D02*
X91312857Y-64594800D01*
X91312857Y-64594800D02*
X91170000Y-64642419D01*
X91170000Y-64642419D02*
X90931905Y-64642419D01*
X118944895Y-58874925D02*
X119744895Y-58684449D01*
X119744895Y-58684449D02*
X119173466Y-58532068D01*
X119173466Y-58532068D02*
X119744895Y-58379687D01*
X119744895Y-58379687D02*
X118944895Y-58189211D01*
X119744895Y-57465401D02*
X119744895Y-57922544D01*
X119744895Y-57693972D02*
X118944895Y-57693972D01*
X118944895Y-57693972D02*
X119059180Y-57770163D01*
X119059180Y-57770163D02*
X119135371Y-57846353D01*
X119135371Y-57846353D02*
X119173466Y-57922544D01*
X119211561Y-56779686D02*
X119744895Y-56779686D01*
X118906800Y-56970162D02*
X119478228Y-57160639D01*
X119478228Y-57160639D02*
X119478228Y-56665400D01*
X114436323Y-58836830D02*
X114436323Y-58455877D01*
X114664895Y-58913020D02*
X113864895Y-58646353D01*
X113864895Y-58646353D02*
X114664895Y-58379687D01*
X113902990Y-57693973D02*
X113864895Y-57770163D01*
X113864895Y-57770163D02*
X113864895Y-57884449D01*
X113864895Y-57884449D02*
X113902990Y-57998735D01*
X113902990Y-57998735D02*
X113979180Y-58074925D01*
X113979180Y-58074925D02*
X114055371Y-58113020D01*
X114055371Y-58113020D02*
X114207752Y-58151116D01*
X114207752Y-58151116D02*
X114322038Y-58151116D01*
X114322038Y-58151116D02*
X114474419Y-58113020D01*
X114474419Y-58113020D02*
X114550609Y-58074925D01*
X114550609Y-58074925D02*
X114626800Y-57998735D01*
X114626800Y-57998735D02*
X114664895Y-57884449D01*
X114664895Y-57884449D02*
X114664895Y-57808258D01*
X114664895Y-57808258D02*
X114626800Y-57693973D01*
X114626800Y-57693973D02*
X114588704Y-57655877D01*
X114588704Y-57655877D02*
X114322038Y-57655877D01*
X114322038Y-57655877D02*
X114322038Y-57808258D01*
X114664895Y-56893973D02*
X114664895Y-57351116D01*
X114664895Y-57122544D02*
X113864895Y-57122544D01*
X113864895Y-57122544D02*
X113979180Y-57198735D01*
X113979180Y-57198735D02*
X114055371Y-57274925D01*
X114055371Y-57274925D02*
X114093466Y-57351116D01*
X114131561Y-56208258D02*
X114664895Y-56208258D01*
X113826800Y-56398734D02*
X114398228Y-56589211D01*
X114398228Y-56589211D02*
X114398228Y-56093972D01*
X117204895Y-58455877D02*
X116785847Y-58455877D01*
X116785847Y-58455877D02*
X116709657Y-58493972D01*
X116709657Y-58493972D02*
X116671561Y-58570163D01*
X116671561Y-58570163D02*
X116671561Y-58722544D01*
X116671561Y-58722544D02*
X116709657Y-58798734D01*
X117166800Y-58455877D02*
X117204895Y-58532068D01*
X117204895Y-58532068D02*
X117204895Y-58722544D01*
X117204895Y-58722544D02*
X117166800Y-58798734D01*
X117166800Y-58798734D02*
X117090609Y-58836830D01*
X117090609Y-58836830D02*
X117014419Y-58836830D01*
X117014419Y-58836830D02*
X116938228Y-58798734D01*
X116938228Y-58798734D02*
X116900133Y-58722544D01*
X116900133Y-58722544D02*
X116900133Y-58532068D01*
X116900133Y-58532068D02*
X116862038Y-58455877D01*
X117204895Y-57732067D02*
X116404895Y-57732067D01*
X117166800Y-57732067D02*
X117204895Y-57808258D01*
X117204895Y-57808258D02*
X117204895Y-57960639D01*
X117204895Y-57960639D02*
X117166800Y-58036829D01*
X117166800Y-58036829D02*
X117128704Y-58074924D01*
X117128704Y-58074924D02*
X117052514Y-58113020D01*
X117052514Y-58113020D02*
X116823942Y-58113020D01*
X116823942Y-58113020D02*
X116747752Y-58074924D01*
X116747752Y-58074924D02*
X116709657Y-58036829D01*
X116709657Y-58036829D02*
X116671561Y-57960639D01*
X116671561Y-57960639D02*
X116671561Y-57808258D01*
X116671561Y-57808258D02*
X116709657Y-57732067D01*
X117204895Y-56932067D02*
X117204895Y-57389210D01*
X117204895Y-57160638D02*
X116404895Y-57160638D01*
X116404895Y-57160638D02*
X116519180Y-57236829D01*
X116519180Y-57236829D02*
X116595371Y-57313019D01*
X116595371Y-57313019D02*
X116633466Y-57389210D01*
X116481085Y-56627305D02*
X116442990Y-56589209D01*
X116442990Y-56589209D02*
X116404895Y-56513019D01*
X116404895Y-56513019D02*
X116404895Y-56322543D01*
X116404895Y-56322543D02*
X116442990Y-56246352D01*
X116442990Y-56246352D02*
X116481085Y-56208257D01*
X116481085Y-56208257D02*
X116557276Y-56170162D01*
X116557276Y-56170162D02*
X116633466Y-56170162D01*
X116633466Y-56170162D02*
X116747752Y-56208257D01*
X116747752Y-56208257D02*
X117204895Y-56665400D01*
X117204895Y-56665400D02*
X117204895Y-56170162D01*
X126983942Y-67337455D02*
X127364895Y-67337455D01*
X126564895Y-67604122D02*
X126983942Y-67337455D01*
X126983942Y-67337455D02*
X126564895Y-67070789D01*
X127364895Y-66385075D02*
X127364895Y-66842218D01*
X127364895Y-66613646D02*
X126564895Y-66613646D01*
X126564895Y-66613646D02*
X126679180Y-66689837D01*
X126679180Y-66689837D02*
X126755371Y-66766027D01*
X126755371Y-66766027D02*
X126793466Y-66842218D01*
X126641085Y-66080313D02*
X126602990Y-66042217D01*
X126602990Y-66042217D02*
X126564895Y-65966027D01*
X126564895Y-65966027D02*
X126564895Y-65775551D01*
X126564895Y-65775551D02*
X126602990Y-65699360D01*
X126602990Y-65699360D02*
X126641085Y-65661265D01*
X126641085Y-65661265D02*
X126717276Y-65623170D01*
X126717276Y-65623170D02*
X126793466Y-65623170D01*
X126793466Y-65623170D02*
X126907752Y-65661265D01*
X126907752Y-65661265D02*
X127364895Y-66118408D01*
X127364895Y-66118408D02*
X127364895Y-65623170D01*
X137296323Y-58836830D02*
X137296323Y-58455877D01*
X137524895Y-58913020D02*
X136724895Y-58646353D01*
X136724895Y-58646353D02*
X137524895Y-58379687D01*
X137524895Y-58113020D02*
X136724895Y-58113020D01*
X136724895Y-58113020D02*
X136724895Y-57922544D01*
X136724895Y-57922544D02*
X136762990Y-57808258D01*
X136762990Y-57808258D02*
X136839180Y-57732068D01*
X136839180Y-57732068D02*
X136915371Y-57693973D01*
X136915371Y-57693973D02*
X137067752Y-57655877D01*
X137067752Y-57655877D02*
X137182038Y-57655877D01*
X137182038Y-57655877D02*
X137334419Y-57693973D01*
X137334419Y-57693973D02*
X137410609Y-57732068D01*
X137410609Y-57732068D02*
X137486800Y-57808258D01*
X137486800Y-57808258D02*
X137524895Y-57922544D01*
X137524895Y-57922544D02*
X137524895Y-58113020D01*
X137524895Y-56893973D02*
X137524895Y-57351116D01*
X137524895Y-57122544D02*
X136724895Y-57122544D01*
X136724895Y-57122544D02*
X136839180Y-57198735D01*
X136839180Y-57198735D02*
X136915371Y-57274925D01*
X136915371Y-57274925D02*
X136953466Y-57351116D01*
X136724895Y-56170163D02*
X136724895Y-56551115D01*
X136724895Y-56551115D02*
X137105847Y-56589211D01*
X137105847Y-56589211D02*
X137067752Y-56551115D01*
X137067752Y-56551115D02*
X137029657Y-56474925D01*
X137029657Y-56474925D02*
X137029657Y-56284449D01*
X137029657Y-56284449D02*
X137067752Y-56208258D01*
X137067752Y-56208258D02*
X137105847Y-56170163D01*
X137105847Y-56170163D02*
X137182038Y-56132068D01*
X137182038Y-56132068D02*
X137372514Y-56132068D01*
X137372514Y-56132068D02*
X137448704Y-56170163D01*
X137448704Y-56170163D02*
X137486800Y-56208258D01*
X137486800Y-56208258D02*
X137524895Y-56284449D01*
X137524895Y-56284449D02*
X137524895Y-56474925D01*
X137524895Y-56474925D02*
X137486800Y-56551115D01*
X137486800Y-56551115D02*
X137448704Y-56589211D01*
X142376323Y-68327932D02*
X142376323Y-67946979D01*
X142604895Y-68404122D02*
X141804895Y-68137455D01*
X141804895Y-68137455D02*
X142604895Y-67870789D01*
X141842990Y-67185075D02*
X141804895Y-67261265D01*
X141804895Y-67261265D02*
X141804895Y-67375551D01*
X141804895Y-67375551D02*
X141842990Y-67489837D01*
X141842990Y-67489837D02*
X141919180Y-67566027D01*
X141919180Y-67566027D02*
X141995371Y-67604122D01*
X141995371Y-67604122D02*
X142147752Y-67642218D01*
X142147752Y-67642218D02*
X142262038Y-67642218D01*
X142262038Y-67642218D02*
X142414419Y-67604122D01*
X142414419Y-67604122D02*
X142490609Y-67566027D01*
X142490609Y-67566027D02*
X142566800Y-67489837D01*
X142566800Y-67489837D02*
X142604895Y-67375551D01*
X142604895Y-67375551D02*
X142604895Y-67299360D01*
X142604895Y-67299360D02*
X142566800Y-67185075D01*
X142566800Y-67185075D02*
X142528704Y-67146979D01*
X142528704Y-67146979D02*
X142262038Y-67146979D01*
X142262038Y-67146979D02*
X142262038Y-67299360D01*
X142604895Y-66385075D02*
X142604895Y-66842218D01*
X142604895Y-66613646D02*
X141804895Y-66613646D01*
X141804895Y-66613646D02*
X141919180Y-66689837D01*
X141919180Y-66689837D02*
X141995371Y-66766027D01*
X141995371Y-66766027D02*
X142033466Y-66842218D01*
X141804895Y-66118408D02*
X141804895Y-65623170D01*
X141804895Y-65623170D02*
X142109657Y-65889836D01*
X142109657Y-65889836D02*
X142109657Y-65775551D01*
X142109657Y-65775551D02*
X142147752Y-65699360D01*
X142147752Y-65699360D02*
X142185847Y-65661265D01*
X142185847Y-65661265D02*
X142262038Y-65623170D01*
X142262038Y-65623170D02*
X142452514Y-65623170D01*
X142452514Y-65623170D02*
X142528704Y-65661265D01*
X142528704Y-65661265D02*
X142566800Y-65699360D01*
X142566800Y-65699360D02*
X142604895Y-65775551D01*
X142604895Y-65775551D02*
X142604895Y-66004122D01*
X142604895Y-66004122D02*
X142566800Y-66080313D01*
X142566800Y-66080313D02*
X142528704Y-66118408D01*
X111896323Y-58836830D02*
X111896323Y-58455877D01*
X112124895Y-58913020D02*
X111324895Y-58646353D01*
X111324895Y-58646353D02*
X112124895Y-58379687D01*
X111705847Y-58113020D02*
X111705847Y-57846354D01*
X112124895Y-57732068D02*
X112124895Y-58113020D01*
X112124895Y-58113020D02*
X111324895Y-58113020D01*
X111324895Y-58113020D02*
X111324895Y-57732068D01*
X112124895Y-56970163D02*
X112124895Y-57427306D01*
X112124895Y-57198734D02*
X111324895Y-57198734D01*
X111324895Y-57198734D02*
X111439180Y-57274925D01*
X111439180Y-57274925D02*
X111515371Y-57351115D01*
X111515371Y-57351115D02*
X111553466Y-57427306D01*
X111324895Y-56246353D02*
X111324895Y-56627305D01*
X111324895Y-56627305D02*
X111705847Y-56665401D01*
X111705847Y-56665401D02*
X111667752Y-56627305D01*
X111667752Y-56627305D02*
X111629657Y-56551115D01*
X111629657Y-56551115D02*
X111629657Y-56360639D01*
X111629657Y-56360639D02*
X111667752Y-56284448D01*
X111667752Y-56284448D02*
X111705847Y-56246353D01*
X111705847Y-56246353D02*
X111782038Y-56208258D01*
X111782038Y-56208258D02*
X111972514Y-56208258D01*
X111972514Y-56208258D02*
X112048704Y-56246353D01*
X112048704Y-56246353D02*
X112086800Y-56284448D01*
X112086800Y-56284448D02*
X112124895Y-56360639D01*
X112124895Y-56360639D02*
X112124895Y-56551115D01*
X112124895Y-56551115D02*
X112086800Y-56627305D01*
X112086800Y-56627305D02*
X112048704Y-56665401D01*
X146884895Y-58874925D02*
X147684895Y-58684449D01*
X147684895Y-58684449D02*
X147113466Y-58532068D01*
X147113466Y-58532068D02*
X147684895Y-58379687D01*
X147684895Y-58379687D02*
X146884895Y-58189211D01*
X147684895Y-57465401D02*
X147684895Y-57922544D01*
X147684895Y-57693972D02*
X146884895Y-57693972D01*
X146884895Y-57693972D02*
X146999180Y-57770163D01*
X146999180Y-57770163D02*
X147075371Y-57846353D01*
X147075371Y-57846353D02*
X147113466Y-57922544D01*
X146961085Y-57160639D02*
X146922990Y-57122543D01*
X146922990Y-57122543D02*
X146884895Y-57046353D01*
X146884895Y-57046353D02*
X146884895Y-56855877D01*
X146884895Y-56855877D02*
X146922990Y-56779686D01*
X146922990Y-56779686D02*
X146961085Y-56741591D01*
X146961085Y-56741591D02*
X147037276Y-56703496D01*
X147037276Y-56703496D02*
X147113466Y-56703496D01*
X147113466Y-56703496D02*
X147227752Y-56741591D01*
X147227752Y-56741591D02*
X147684895Y-57198734D01*
X147684895Y-57198734D02*
X147684895Y-56703496D01*
X149424895Y-58874925D02*
X150224895Y-58684449D01*
X150224895Y-58684449D02*
X149653466Y-58532068D01*
X149653466Y-58532068D02*
X150224895Y-58379687D01*
X150224895Y-58379687D02*
X149424895Y-58189211D01*
X150224895Y-57465401D02*
X150224895Y-57922544D01*
X150224895Y-57693972D02*
X149424895Y-57693972D01*
X149424895Y-57693972D02*
X149539180Y-57770163D01*
X149539180Y-57770163D02*
X149615371Y-57846353D01*
X149615371Y-57846353D02*
X149653466Y-57922544D01*
X150224895Y-56703496D02*
X150224895Y-57160639D01*
X150224895Y-56932067D02*
X149424895Y-56932067D01*
X149424895Y-56932067D02*
X149539180Y-57008258D01*
X149539180Y-57008258D02*
X149615371Y-57084448D01*
X149615371Y-57084448D02*
X149653466Y-57160639D01*
X86267027Y-94122419D02*
X86838455Y-94122419D01*
X86552741Y-95122419D02*
X86552741Y-94122419D01*
X87314646Y-95122419D02*
X87219408Y-95074800D01*
X87219408Y-95074800D02*
X87171789Y-95027180D01*
X87171789Y-95027180D02*
X87124170Y-94931942D01*
X87124170Y-94931942D02*
X87124170Y-94646228D01*
X87124170Y-94646228D02*
X87171789Y-94550990D01*
X87171789Y-94550990D02*
X87219408Y-94503371D01*
X87219408Y-94503371D02*
X87314646Y-94455752D01*
X87314646Y-94455752D02*
X87457503Y-94455752D01*
X87457503Y-94455752D02*
X87552741Y-94503371D01*
X87552741Y-94503371D02*
X87600360Y-94550990D01*
X87600360Y-94550990D02*
X87647979Y-94646228D01*
X87647979Y-94646228D02*
X87647979Y-94931942D01*
X87647979Y-94931942D02*
X87600360Y-95027180D01*
X87600360Y-95027180D02*
X87552741Y-95074800D01*
X87552741Y-95074800D02*
X87457503Y-95122419D01*
X87457503Y-95122419D02*
X87314646Y-95122419D01*
X88838456Y-95122419D02*
X88838456Y-94122419D01*
X88838456Y-94122419D02*
X89219408Y-94122419D01*
X89219408Y-94122419D02*
X89314646Y-94170038D01*
X89314646Y-94170038D02*
X89362265Y-94217657D01*
X89362265Y-94217657D02*
X89409884Y-94312895D01*
X89409884Y-94312895D02*
X89409884Y-94455752D01*
X89409884Y-94455752D02*
X89362265Y-94550990D01*
X89362265Y-94550990D02*
X89314646Y-94598609D01*
X89314646Y-94598609D02*
X89219408Y-94646228D01*
X89219408Y-94646228D02*
X88838456Y-94646228D01*
X89838456Y-95122419D02*
X89838456Y-94122419D01*
X89838456Y-94122419D02*
X90171789Y-94836704D01*
X90171789Y-94836704D02*
X90505122Y-94122419D01*
X90505122Y-94122419D02*
X90505122Y-95122419D01*
X91171789Y-94122419D02*
X91362265Y-94122419D01*
X91362265Y-94122419D02*
X91457503Y-94170038D01*
X91457503Y-94170038D02*
X91552741Y-94265276D01*
X91552741Y-94265276D02*
X91600360Y-94455752D01*
X91600360Y-94455752D02*
X91600360Y-94789085D01*
X91600360Y-94789085D02*
X91552741Y-94979561D01*
X91552741Y-94979561D02*
X91457503Y-95074800D01*
X91457503Y-95074800D02*
X91362265Y-95122419D01*
X91362265Y-95122419D02*
X91171789Y-95122419D01*
X91171789Y-95122419D02*
X91076551Y-95074800D01*
X91076551Y-95074800D02*
X90981313Y-94979561D01*
X90981313Y-94979561D02*
X90933694Y-94789085D01*
X90933694Y-94789085D02*
X90933694Y-94455752D01*
X90933694Y-94455752D02*
X90981313Y-94265276D01*
X90981313Y-94265276D02*
X91076551Y-94170038D01*
X91076551Y-94170038D02*
X91171789Y-94122419D01*
X92028932Y-95122419D02*
X92028932Y-94122419D01*
X92028932Y-94122419D02*
X92267027Y-94122419D01*
X92267027Y-94122419D02*
X92409884Y-94170038D01*
X92409884Y-94170038D02*
X92505122Y-94265276D01*
X92505122Y-94265276D02*
X92552741Y-94360514D01*
X92552741Y-94360514D02*
X92600360Y-94550990D01*
X92600360Y-94550990D02*
X92600360Y-94693847D01*
X92600360Y-94693847D02*
X92552741Y-94884323D01*
X92552741Y-94884323D02*
X92505122Y-94979561D01*
X92505122Y-94979561D02*
X92409884Y-95074800D01*
X92409884Y-95074800D02*
X92267027Y-95122419D01*
X92267027Y-95122419D02*
X92028932Y-95122419D01*
X93028932Y-94741466D02*
X93790837Y-94741466D01*
X94695598Y-94455752D02*
X94695598Y-95122419D01*
X94457503Y-94074800D02*
X94219408Y-94789085D01*
X94219408Y-94789085D02*
X94838455Y-94789085D01*
X147303942Y-67337455D02*
X147684895Y-67337455D01*
X146884895Y-67604122D02*
X147303942Y-67337455D01*
X147303942Y-67337455D02*
X146884895Y-67070789D01*
X147684895Y-66385075D02*
X147684895Y-66842218D01*
X147684895Y-66613646D02*
X146884895Y-66613646D01*
X146884895Y-66613646D02*
X146999180Y-66689837D01*
X146999180Y-66689837D02*
X147075371Y-66766027D01*
X147075371Y-66766027D02*
X147113466Y-66842218D01*
X146884895Y-66118408D02*
X146884895Y-65623170D01*
X146884895Y-65623170D02*
X147189657Y-65889836D01*
X147189657Y-65889836D02*
X147189657Y-65775551D01*
X147189657Y-65775551D02*
X147227752Y-65699360D01*
X147227752Y-65699360D02*
X147265847Y-65661265D01*
X147265847Y-65661265D02*
X147342038Y-65623170D01*
X147342038Y-65623170D02*
X147532514Y-65623170D01*
X147532514Y-65623170D02*
X147608704Y-65661265D01*
X147608704Y-65661265D02*
X147646800Y-65699360D01*
X147646800Y-65699360D02*
X147684895Y-65775551D01*
X147684895Y-65775551D02*
X147684895Y-66004122D01*
X147684895Y-66004122D02*
X147646800Y-66080313D01*
X147646800Y-66080313D02*
X147608704Y-66118408D01*
X139836323Y-58836830D02*
X139836323Y-58455877D01*
X140064895Y-58913020D02*
X139264895Y-58646353D01*
X139264895Y-58646353D02*
X140064895Y-58379687D01*
X140064895Y-58113020D02*
X139264895Y-58113020D01*
X139645847Y-58113020D02*
X139645847Y-57655877D01*
X140064895Y-57655877D02*
X139264895Y-57655877D01*
X140064895Y-56855878D02*
X140064895Y-57313021D01*
X140064895Y-57084449D02*
X139264895Y-57084449D01*
X139264895Y-57084449D02*
X139379180Y-57160640D01*
X139379180Y-57160640D02*
X139455371Y-57236830D01*
X139455371Y-57236830D02*
X139493466Y-57313021D01*
X139531561Y-56170163D02*
X140064895Y-56170163D01*
X139226800Y-56360639D02*
X139798228Y-56551116D01*
X139798228Y-56551116D02*
X139798228Y-56055877D01*
X124443942Y-67337455D02*
X124824895Y-67337455D01*
X124024895Y-67604122D02*
X124443942Y-67337455D01*
X124443942Y-67337455D02*
X124024895Y-67070789D01*
X124824895Y-66385075D02*
X124824895Y-66842218D01*
X124824895Y-66613646D02*
X124024895Y-66613646D01*
X124024895Y-66613646D02*
X124139180Y-66689837D01*
X124139180Y-66689837D02*
X124215371Y-66766027D01*
X124215371Y-66766027D02*
X124253466Y-66842218D01*
X124291561Y-65699360D02*
X124824895Y-65699360D01*
X123986800Y-65889836D02*
X124558228Y-66080313D01*
X124558228Y-66080313D02*
X124558228Y-65585074D01*
X149996323Y-68327932D02*
X149996323Y-67946979D01*
X150224895Y-68404122D02*
X149424895Y-68137455D01*
X149424895Y-68137455D02*
X150224895Y-67870789D01*
X149805847Y-67337456D02*
X149843942Y-67223170D01*
X149843942Y-67223170D02*
X149882038Y-67185075D01*
X149882038Y-67185075D02*
X149958228Y-67146979D01*
X149958228Y-67146979D02*
X150072514Y-67146979D01*
X150072514Y-67146979D02*
X150148704Y-67185075D01*
X150148704Y-67185075D02*
X150186800Y-67223170D01*
X150186800Y-67223170D02*
X150224895Y-67299360D01*
X150224895Y-67299360D02*
X150224895Y-67604122D01*
X150224895Y-67604122D02*
X149424895Y-67604122D01*
X149424895Y-67604122D02*
X149424895Y-67337456D01*
X149424895Y-67337456D02*
X149462990Y-67261265D01*
X149462990Y-67261265D02*
X149501085Y-67223170D01*
X149501085Y-67223170D02*
X149577276Y-67185075D01*
X149577276Y-67185075D02*
X149653466Y-67185075D01*
X149653466Y-67185075D02*
X149729657Y-67223170D01*
X149729657Y-67223170D02*
X149767752Y-67261265D01*
X149767752Y-67261265D02*
X149805847Y-67337456D01*
X149805847Y-67337456D02*
X149805847Y-67604122D01*
X150224895Y-66385075D02*
X150224895Y-66842218D01*
X150224895Y-66613646D02*
X149424895Y-66613646D01*
X149424895Y-66613646D02*
X149539180Y-66689837D01*
X149539180Y-66689837D02*
X149615371Y-66766027D01*
X149615371Y-66766027D02*
X149653466Y-66842218D01*
X149424895Y-65889836D02*
X149424895Y-65813646D01*
X149424895Y-65813646D02*
X149462990Y-65737455D01*
X149462990Y-65737455D02*
X149501085Y-65699360D01*
X149501085Y-65699360D02*
X149577276Y-65661265D01*
X149577276Y-65661265D02*
X149729657Y-65623170D01*
X149729657Y-65623170D02*
X149920133Y-65623170D01*
X149920133Y-65623170D02*
X150072514Y-65661265D01*
X150072514Y-65661265D02*
X150148704Y-65699360D01*
X150148704Y-65699360D02*
X150186800Y-65737455D01*
X150186800Y-65737455D02*
X150224895Y-65813646D01*
X150224895Y-65813646D02*
X150224895Y-65889836D01*
X150224895Y-65889836D02*
X150186800Y-65966027D01*
X150186800Y-65966027D02*
X150148704Y-66004122D01*
X150148704Y-66004122D02*
X150072514Y-66042217D01*
X150072514Y-66042217D02*
X149920133Y-66080313D01*
X149920133Y-66080313D02*
X149729657Y-66080313D01*
X149729657Y-66080313D02*
X149577276Y-66042217D01*
X149577276Y-66042217D02*
X149501085Y-66004122D01*
X149501085Y-66004122D02*
X149462990Y-65966027D01*
X149462990Y-65966027D02*
X149424895Y-65889836D01*
X88884286Y-55371466D02*
X89646191Y-55371466D01*
X89265238Y-55752419D02*
X89265238Y-54990514D01*
X90598571Y-54752419D02*
X90122381Y-54752419D01*
X90122381Y-54752419D02*
X90074762Y-55228609D01*
X90074762Y-55228609D02*
X90122381Y-55180990D01*
X90122381Y-55180990D02*
X90217619Y-55133371D01*
X90217619Y-55133371D02*
X90455714Y-55133371D01*
X90455714Y-55133371D02*
X90550952Y-55180990D01*
X90550952Y-55180990D02*
X90598571Y-55228609D01*
X90598571Y-55228609D02*
X90646190Y-55323847D01*
X90646190Y-55323847D02*
X90646190Y-55561942D01*
X90646190Y-55561942D02*
X90598571Y-55657180D01*
X90598571Y-55657180D02*
X90550952Y-55704800D01*
X90550952Y-55704800D02*
X90455714Y-55752419D01*
X90455714Y-55752419D02*
X90217619Y-55752419D01*
X90217619Y-55752419D02*
X90122381Y-55704800D01*
X90122381Y-55704800D02*
X90074762Y-55657180D01*
X90931905Y-54752419D02*
X91265238Y-55752419D01*
X91265238Y-55752419D02*
X91598571Y-54752419D01*
X127136323Y-58836830D02*
X127136323Y-58455877D01*
X127364895Y-58913020D02*
X126564895Y-58646353D01*
X126564895Y-58646353D02*
X127364895Y-58379687D01*
X127136323Y-58151116D02*
X127136323Y-57770163D01*
X127364895Y-58227306D02*
X126564895Y-57960639D01*
X126564895Y-57960639D02*
X127364895Y-57693973D01*
X127364895Y-57008259D02*
X127364895Y-57465402D01*
X127364895Y-57236830D02*
X126564895Y-57236830D01*
X126564895Y-57236830D02*
X126679180Y-57313021D01*
X126679180Y-57313021D02*
X126755371Y-57389211D01*
X126755371Y-57389211D02*
X126793466Y-57465402D01*
X126641085Y-56703497D02*
X126602990Y-56665401D01*
X126602990Y-56665401D02*
X126564895Y-56589211D01*
X126564895Y-56589211D02*
X126564895Y-56398735D01*
X126564895Y-56398735D02*
X126602990Y-56322544D01*
X126602990Y-56322544D02*
X126641085Y-56284449D01*
X126641085Y-56284449D02*
X126717276Y-56246354D01*
X126717276Y-56246354D02*
X126793466Y-56246354D01*
X126793466Y-56246354D02*
X126907752Y-56284449D01*
X126907752Y-56284449D02*
X127364895Y-56741592D01*
X127364895Y-56741592D02*
X127364895Y-56246354D01*
X134756323Y-58836830D02*
X134756323Y-58455877D01*
X134984895Y-58913020D02*
X134184895Y-58646353D01*
X134184895Y-58646353D02*
X134984895Y-58379687D01*
X134908704Y-57655877D02*
X134946800Y-57693973D01*
X134946800Y-57693973D02*
X134984895Y-57808258D01*
X134984895Y-57808258D02*
X134984895Y-57884449D01*
X134984895Y-57884449D02*
X134946800Y-57998735D01*
X134946800Y-57998735D02*
X134870609Y-58074925D01*
X134870609Y-58074925D02*
X134794419Y-58113020D01*
X134794419Y-58113020D02*
X134642038Y-58151116D01*
X134642038Y-58151116D02*
X134527752Y-58151116D01*
X134527752Y-58151116D02*
X134375371Y-58113020D01*
X134375371Y-58113020D02*
X134299180Y-58074925D01*
X134299180Y-58074925D02*
X134222990Y-57998735D01*
X134222990Y-57998735D02*
X134184895Y-57884449D01*
X134184895Y-57884449D02*
X134184895Y-57808258D01*
X134184895Y-57808258D02*
X134222990Y-57693973D01*
X134222990Y-57693973D02*
X134261085Y-57655877D01*
X134984895Y-56893973D02*
X134984895Y-57351116D01*
X134984895Y-57122544D02*
X134184895Y-57122544D01*
X134184895Y-57122544D02*
X134299180Y-57198735D01*
X134299180Y-57198735D02*
X134375371Y-57274925D01*
X134375371Y-57274925D02*
X134413466Y-57351116D01*
X134451561Y-56208258D02*
X134984895Y-56208258D01*
X134146800Y-56398734D02*
X134718228Y-56589211D01*
X134718228Y-56589211D02*
X134718228Y-56093972D01*
X129523942Y-66575550D02*
X129904895Y-66575550D01*
X129104895Y-66842217D02*
X129523942Y-66575550D01*
X129523942Y-66575550D02*
X129104895Y-66308884D01*
X129904895Y-66004122D02*
X129904895Y-65851741D01*
X129904895Y-65851741D02*
X129866800Y-65775551D01*
X129866800Y-65775551D02*
X129828704Y-65737455D01*
X129828704Y-65737455D02*
X129714419Y-65661265D01*
X129714419Y-65661265D02*
X129562038Y-65623170D01*
X129562038Y-65623170D02*
X129257276Y-65623170D01*
X129257276Y-65623170D02*
X129181085Y-65661265D01*
X129181085Y-65661265D02*
X129142990Y-65699360D01*
X129142990Y-65699360D02*
X129104895Y-65775551D01*
X129104895Y-65775551D02*
X129104895Y-65927932D01*
X129104895Y-65927932D02*
X129142990Y-66004122D01*
X129142990Y-66004122D02*
X129181085Y-66042217D01*
X129181085Y-66042217D02*
X129257276Y-66080313D01*
X129257276Y-66080313D02*
X129447752Y-66080313D01*
X129447752Y-66080313D02*
X129523942Y-66042217D01*
X129523942Y-66042217D02*
X129562038Y-66004122D01*
X129562038Y-66004122D02*
X129600133Y-65927932D01*
X129600133Y-65927932D02*
X129600133Y-65775551D01*
X129600133Y-65775551D02*
X129562038Y-65699360D01*
X129562038Y-65699360D02*
X129523942Y-65661265D01*
X129523942Y-65661265D02*
X129447752Y-65623170D01*
X132216323Y-68327932D02*
X132216323Y-67946979D01*
X132444895Y-68404122D02*
X131644895Y-68137455D01*
X131644895Y-68137455D02*
X132444895Y-67870789D01*
X132368704Y-67146979D02*
X132406800Y-67185075D01*
X132406800Y-67185075D02*
X132444895Y-67299360D01*
X132444895Y-67299360D02*
X132444895Y-67375551D01*
X132444895Y-67375551D02*
X132406800Y-67489837D01*
X132406800Y-67489837D02*
X132330609Y-67566027D01*
X132330609Y-67566027D02*
X132254419Y-67604122D01*
X132254419Y-67604122D02*
X132102038Y-67642218D01*
X132102038Y-67642218D02*
X131987752Y-67642218D01*
X131987752Y-67642218D02*
X131835371Y-67604122D01*
X131835371Y-67604122D02*
X131759180Y-67566027D01*
X131759180Y-67566027D02*
X131682990Y-67489837D01*
X131682990Y-67489837D02*
X131644895Y-67375551D01*
X131644895Y-67375551D02*
X131644895Y-67299360D01*
X131644895Y-67299360D02*
X131682990Y-67185075D01*
X131682990Y-67185075D02*
X131721085Y-67146979D01*
X132444895Y-66385075D02*
X132444895Y-66842218D01*
X132444895Y-66613646D02*
X131644895Y-66613646D01*
X131644895Y-66613646D02*
X131759180Y-66689837D01*
X131759180Y-66689837D02*
X131835371Y-66766027D01*
X131835371Y-66766027D02*
X131873466Y-66842218D01*
X131644895Y-66118408D02*
X131644895Y-65623170D01*
X131644895Y-65623170D02*
X131949657Y-65889836D01*
X131949657Y-65889836D02*
X131949657Y-65775551D01*
X131949657Y-65775551D02*
X131987752Y-65699360D01*
X131987752Y-65699360D02*
X132025847Y-65661265D01*
X132025847Y-65661265D02*
X132102038Y-65623170D01*
X132102038Y-65623170D02*
X132292514Y-65623170D01*
X132292514Y-65623170D02*
X132368704Y-65661265D01*
X132368704Y-65661265D02*
X132406800Y-65699360D01*
X132406800Y-65699360D02*
X132444895Y-65775551D01*
X132444895Y-65775551D02*
X132444895Y-66004122D01*
X132444895Y-66004122D02*
X132406800Y-66080313D01*
X132406800Y-66080313D02*
X132368704Y-66118408D01*
X99076095Y-58242466D02*
X99838000Y-58242466D01*
X99457047Y-58623419D02*
X99457047Y-57861514D01*
X100218952Y-57623419D02*
X100837999Y-57623419D01*
X100837999Y-57623419D02*
X100504666Y-58004371D01*
X100504666Y-58004371D02*
X100647523Y-58004371D01*
X100647523Y-58004371D02*
X100742761Y-58051990D01*
X100742761Y-58051990D02*
X100790380Y-58099609D01*
X100790380Y-58099609D02*
X100837999Y-58194847D01*
X100837999Y-58194847D02*
X100837999Y-58432942D01*
X100837999Y-58432942D02*
X100790380Y-58528180D01*
X100790380Y-58528180D02*
X100742761Y-58575800D01*
X100742761Y-58575800D02*
X100647523Y-58623419D01*
X100647523Y-58623419D02*
X100361809Y-58623419D01*
X100361809Y-58623419D02*
X100266571Y-58575800D01*
X100266571Y-58575800D02*
X100218952Y-58528180D01*
X101123714Y-57623419D02*
X101457047Y-58623419D01*
X101457047Y-58623419D02*
X101790380Y-57623419D01*
X102028476Y-57623419D02*
X102647523Y-57623419D01*
X102647523Y-57623419D02*
X102314190Y-58004371D01*
X102314190Y-58004371D02*
X102457047Y-58004371D01*
X102457047Y-58004371D02*
X102552285Y-58051990D01*
X102552285Y-58051990D02*
X102599904Y-58099609D01*
X102599904Y-58099609D02*
X102647523Y-58194847D01*
X102647523Y-58194847D02*
X102647523Y-58432942D01*
X102647523Y-58432942D02*
X102599904Y-58528180D01*
X102599904Y-58528180D02*
X102552285Y-58575800D01*
X102552285Y-58575800D02*
X102457047Y-58623419D01*
X102457047Y-58623419D02*
X102171333Y-58623419D01*
X102171333Y-58623419D02*
X102076095Y-58575800D01*
X102076095Y-58575800D02*
X102028476Y-58528180D01*
X109584895Y-58455877D02*
X109165847Y-58455877D01*
X109165847Y-58455877D02*
X109089657Y-58493972D01*
X109089657Y-58493972D02*
X109051561Y-58570163D01*
X109051561Y-58570163D02*
X109051561Y-58722544D01*
X109051561Y-58722544D02*
X109089657Y-58798734D01*
X109546800Y-58455877D02*
X109584895Y-58532068D01*
X109584895Y-58532068D02*
X109584895Y-58722544D01*
X109584895Y-58722544D02*
X109546800Y-58798734D01*
X109546800Y-58798734D02*
X109470609Y-58836830D01*
X109470609Y-58836830D02*
X109394419Y-58836830D01*
X109394419Y-58836830D02*
X109318228Y-58798734D01*
X109318228Y-58798734D02*
X109280133Y-58722544D01*
X109280133Y-58722544D02*
X109280133Y-58532068D01*
X109280133Y-58532068D02*
X109242038Y-58455877D01*
X109584895Y-57732067D02*
X109165847Y-57732067D01*
X109165847Y-57732067D02*
X109089657Y-57770162D01*
X109089657Y-57770162D02*
X109051561Y-57846353D01*
X109051561Y-57846353D02*
X109051561Y-57998734D01*
X109051561Y-57998734D02*
X109089657Y-58074924D01*
X109546800Y-57732067D02*
X109584895Y-57808258D01*
X109584895Y-57808258D02*
X109584895Y-57998734D01*
X109584895Y-57998734D02*
X109546800Y-58074924D01*
X109546800Y-58074924D02*
X109470609Y-58113020D01*
X109470609Y-58113020D02*
X109394419Y-58113020D01*
X109394419Y-58113020D02*
X109318228Y-58074924D01*
X109318228Y-58074924D02*
X109280133Y-57998734D01*
X109280133Y-57998734D02*
X109280133Y-57808258D01*
X109280133Y-57808258D02*
X109242038Y-57732067D01*
X109584895Y-56932067D02*
X109584895Y-57389210D01*
X109584895Y-57160638D02*
X108784895Y-57160638D01*
X108784895Y-57160638D02*
X108899180Y-57236829D01*
X108899180Y-57236829D02*
X108975371Y-57313019D01*
X108975371Y-57313019D02*
X109013466Y-57389210D01*
X109584895Y-56170162D02*
X109584895Y-56627305D01*
X109584895Y-56398733D02*
X108784895Y-56398733D01*
X108784895Y-56398733D02*
X108899180Y-56474924D01*
X108899180Y-56474924D02*
X108975371Y-56551114D01*
X108975371Y-56551114D02*
X109013466Y-56627305D01*
X119744895Y-67870789D02*
X119325847Y-67870789D01*
X119325847Y-67870789D02*
X119249657Y-67908884D01*
X119249657Y-67908884D02*
X119211561Y-67985075D01*
X119211561Y-67985075D02*
X119211561Y-68137456D01*
X119211561Y-68137456D02*
X119249657Y-68213646D01*
X119706800Y-67870789D02*
X119744895Y-67946980D01*
X119744895Y-67946980D02*
X119744895Y-68137456D01*
X119744895Y-68137456D02*
X119706800Y-68213646D01*
X119706800Y-68213646D02*
X119630609Y-68251742D01*
X119630609Y-68251742D02*
X119554419Y-68251742D01*
X119554419Y-68251742D02*
X119478228Y-68213646D01*
X119478228Y-68213646D02*
X119440133Y-68137456D01*
X119440133Y-68137456D02*
X119440133Y-67946980D01*
X119440133Y-67946980D02*
X119402038Y-67870789D01*
X119706800Y-67146979D02*
X119744895Y-67223170D01*
X119744895Y-67223170D02*
X119744895Y-67375551D01*
X119744895Y-67375551D02*
X119706800Y-67451741D01*
X119706800Y-67451741D02*
X119668704Y-67489836D01*
X119668704Y-67489836D02*
X119592514Y-67527932D01*
X119592514Y-67527932D02*
X119363942Y-67527932D01*
X119363942Y-67527932D02*
X119287752Y-67489836D01*
X119287752Y-67489836D02*
X119249657Y-67451741D01*
X119249657Y-67451741D02*
X119211561Y-67375551D01*
X119211561Y-67375551D02*
X119211561Y-67223170D01*
X119211561Y-67223170D02*
X119249657Y-67146979D01*
X119744895Y-66385075D02*
X119744895Y-66842218D01*
X119744895Y-66613646D02*
X118944895Y-66613646D01*
X118944895Y-66613646D02*
X119059180Y-66689837D01*
X119059180Y-66689837D02*
X119135371Y-66766027D01*
X119135371Y-66766027D02*
X119173466Y-66842218D01*
X119021085Y-66080313D02*
X118982990Y-66042217D01*
X118982990Y-66042217D02*
X118944895Y-65966027D01*
X118944895Y-65966027D02*
X118944895Y-65775551D01*
X118944895Y-65775551D02*
X118982990Y-65699360D01*
X118982990Y-65699360D02*
X119021085Y-65661265D01*
X119021085Y-65661265D02*
X119097276Y-65623170D01*
X119097276Y-65623170D02*
X119173466Y-65623170D01*
X119173466Y-65623170D02*
X119287752Y-65661265D01*
X119287752Y-65661265D02*
X119744895Y-66118408D01*
X119744895Y-66118408D02*
X119744895Y-65623170D01*
X142376323Y-58836830D02*
X142376323Y-58455877D01*
X142604895Y-58913020D02*
X141804895Y-58646353D01*
X141804895Y-58646353D02*
X142604895Y-58379687D01*
X142376323Y-58151116D02*
X142376323Y-57770163D01*
X142604895Y-58227306D02*
X141804895Y-57960639D01*
X141804895Y-57960639D02*
X142604895Y-57693973D01*
X142604895Y-57008259D02*
X142604895Y-57465402D01*
X142604895Y-57236830D02*
X141804895Y-57236830D01*
X141804895Y-57236830D02*
X141919180Y-57313021D01*
X141919180Y-57313021D02*
X141995371Y-57389211D01*
X141995371Y-57389211D02*
X142033466Y-57465402D01*
X141804895Y-56741592D02*
X141804895Y-56246354D01*
X141804895Y-56246354D02*
X142109657Y-56513020D01*
X142109657Y-56513020D02*
X142109657Y-56398735D01*
X142109657Y-56398735D02*
X142147752Y-56322544D01*
X142147752Y-56322544D02*
X142185847Y-56284449D01*
X142185847Y-56284449D02*
X142262038Y-56246354D01*
X142262038Y-56246354D02*
X142452514Y-56246354D01*
X142452514Y-56246354D02*
X142528704Y-56284449D01*
X142528704Y-56284449D02*
X142566800Y-56322544D01*
X142566800Y-56322544D02*
X142604895Y-56398735D01*
X142604895Y-56398735D02*
X142604895Y-56627306D01*
X142604895Y-56627306D02*
X142566800Y-56703497D01*
X142566800Y-56703497D02*
X142528704Y-56741592D01*
X122056323Y-58836830D02*
X122056323Y-58455877D01*
X122284895Y-58913020D02*
X121484895Y-58646353D01*
X121484895Y-58646353D02*
X122284895Y-58379687D01*
X121865847Y-57846354D02*
X121903942Y-57732068D01*
X121903942Y-57732068D02*
X121942038Y-57693973D01*
X121942038Y-57693973D02*
X122018228Y-57655877D01*
X122018228Y-57655877D02*
X122132514Y-57655877D01*
X122132514Y-57655877D02*
X122208704Y-57693973D01*
X122208704Y-57693973D02*
X122246800Y-57732068D01*
X122246800Y-57732068D02*
X122284895Y-57808258D01*
X122284895Y-57808258D02*
X122284895Y-58113020D01*
X122284895Y-58113020D02*
X121484895Y-58113020D01*
X121484895Y-58113020D02*
X121484895Y-57846354D01*
X121484895Y-57846354D02*
X121522990Y-57770163D01*
X121522990Y-57770163D02*
X121561085Y-57732068D01*
X121561085Y-57732068D02*
X121637276Y-57693973D01*
X121637276Y-57693973D02*
X121713466Y-57693973D01*
X121713466Y-57693973D02*
X121789657Y-57732068D01*
X121789657Y-57732068D02*
X121827752Y-57770163D01*
X121827752Y-57770163D02*
X121865847Y-57846354D01*
X121865847Y-57846354D02*
X121865847Y-58113020D01*
X122284895Y-56893973D02*
X122284895Y-57351116D01*
X122284895Y-57122544D02*
X121484895Y-57122544D01*
X121484895Y-57122544D02*
X121599180Y-57198735D01*
X121599180Y-57198735D02*
X121675371Y-57274925D01*
X121675371Y-57274925D02*
X121713466Y-57351116D01*
X121751561Y-56208258D02*
X122284895Y-56208258D01*
X121446800Y-56398734D02*
X122018228Y-56589211D01*
X122018228Y-56589211D02*
X122018228Y-56093972D01*
X112124895Y-67908885D02*
X111705847Y-67908885D01*
X111705847Y-67908885D02*
X111629657Y-67946980D01*
X111629657Y-67946980D02*
X111591561Y-68023171D01*
X111591561Y-68023171D02*
X111591561Y-68175552D01*
X111591561Y-68175552D02*
X111629657Y-68251742D01*
X112086800Y-67908885D02*
X112124895Y-67985076D01*
X112124895Y-67985076D02*
X112124895Y-68175552D01*
X112124895Y-68175552D02*
X112086800Y-68251742D01*
X112086800Y-68251742D02*
X112010609Y-68289838D01*
X112010609Y-68289838D02*
X111934419Y-68289838D01*
X111934419Y-68289838D02*
X111858228Y-68251742D01*
X111858228Y-68251742D02*
X111820133Y-68175552D01*
X111820133Y-68175552D02*
X111820133Y-67985076D01*
X111820133Y-67985076D02*
X111782038Y-67908885D01*
X112124895Y-67185075D02*
X111324895Y-67185075D01*
X112086800Y-67185075D02*
X112124895Y-67261266D01*
X112124895Y-67261266D02*
X112124895Y-67413647D01*
X112124895Y-67413647D02*
X112086800Y-67489837D01*
X112086800Y-67489837D02*
X112048704Y-67527932D01*
X112048704Y-67527932D02*
X111972514Y-67566028D01*
X111972514Y-67566028D02*
X111743942Y-67566028D01*
X111743942Y-67566028D02*
X111667752Y-67527932D01*
X111667752Y-67527932D02*
X111629657Y-67489837D01*
X111629657Y-67489837D02*
X111591561Y-67413647D01*
X111591561Y-67413647D02*
X111591561Y-67261266D01*
X111591561Y-67261266D02*
X111629657Y-67185075D01*
X112124895Y-66385075D02*
X112124895Y-66842218D01*
X112124895Y-66613646D02*
X111324895Y-66613646D01*
X111324895Y-66613646D02*
X111439180Y-66689837D01*
X111439180Y-66689837D02*
X111515371Y-66766027D01*
X111515371Y-66766027D02*
X111553466Y-66842218D01*
X111324895Y-65889836D02*
X111324895Y-65813646D01*
X111324895Y-65813646D02*
X111362990Y-65737455D01*
X111362990Y-65737455D02*
X111401085Y-65699360D01*
X111401085Y-65699360D02*
X111477276Y-65661265D01*
X111477276Y-65661265D02*
X111629657Y-65623170D01*
X111629657Y-65623170D02*
X111820133Y-65623170D01*
X111820133Y-65623170D02*
X111972514Y-65661265D01*
X111972514Y-65661265D02*
X112048704Y-65699360D01*
X112048704Y-65699360D02*
X112086800Y-65737455D01*
X112086800Y-65737455D02*
X112124895Y-65813646D01*
X112124895Y-65813646D02*
X112124895Y-65889836D01*
X112124895Y-65889836D02*
X112086800Y-65966027D01*
X112086800Y-65966027D02*
X112048704Y-66004122D01*
X112048704Y-66004122D02*
X111972514Y-66042217D01*
X111972514Y-66042217D02*
X111820133Y-66080313D01*
X111820133Y-66080313D02*
X111629657Y-66080313D01*
X111629657Y-66080313D02*
X111477276Y-66042217D01*
X111477276Y-66042217D02*
X111401085Y-66004122D01*
X111401085Y-66004122D02*
X111362990Y-65966027D01*
X111362990Y-65966027D02*
X111324895Y-65889836D01*
X107044895Y-58455877D02*
X106625847Y-58455877D01*
X106625847Y-58455877D02*
X106549657Y-58493972D01*
X106549657Y-58493972D02*
X106511561Y-58570163D01*
X106511561Y-58570163D02*
X106511561Y-58722544D01*
X106511561Y-58722544D02*
X106549657Y-58798734D01*
X107006800Y-58455877D02*
X107044895Y-58532068D01*
X107044895Y-58532068D02*
X107044895Y-58722544D01*
X107044895Y-58722544D02*
X107006800Y-58798734D01*
X107006800Y-58798734D02*
X106930609Y-58836830D01*
X106930609Y-58836830D02*
X106854419Y-58836830D01*
X106854419Y-58836830D02*
X106778228Y-58798734D01*
X106778228Y-58798734D02*
X106740133Y-58722544D01*
X106740133Y-58722544D02*
X106740133Y-58532068D01*
X106740133Y-58532068D02*
X106702038Y-58455877D01*
X107044895Y-57732067D02*
X106625847Y-57732067D01*
X106625847Y-57732067D02*
X106549657Y-57770162D01*
X106549657Y-57770162D02*
X106511561Y-57846353D01*
X106511561Y-57846353D02*
X106511561Y-57998734D01*
X106511561Y-57998734D02*
X106549657Y-58074924D01*
X107006800Y-57732067D02*
X107044895Y-57808258D01*
X107044895Y-57808258D02*
X107044895Y-57998734D01*
X107044895Y-57998734D02*
X107006800Y-58074924D01*
X107006800Y-58074924D02*
X106930609Y-58113020D01*
X106930609Y-58113020D02*
X106854419Y-58113020D01*
X106854419Y-58113020D02*
X106778228Y-58074924D01*
X106778228Y-58074924D02*
X106740133Y-57998734D01*
X106740133Y-57998734D02*
X106740133Y-57808258D01*
X106740133Y-57808258D02*
X106702038Y-57732067D01*
X107044895Y-56932067D02*
X107044895Y-57389210D01*
X107044895Y-57160638D02*
X106244895Y-57160638D01*
X106244895Y-57160638D02*
X106359180Y-57236829D01*
X106359180Y-57236829D02*
X106435371Y-57313019D01*
X106435371Y-57313019D02*
X106473466Y-57389210D01*
X106244895Y-56436828D02*
X106244895Y-56360638D01*
X106244895Y-56360638D02*
X106282990Y-56284447D01*
X106282990Y-56284447D02*
X106321085Y-56246352D01*
X106321085Y-56246352D02*
X106397276Y-56208257D01*
X106397276Y-56208257D02*
X106549657Y-56170162D01*
X106549657Y-56170162D02*
X106740133Y-56170162D01*
X106740133Y-56170162D02*
X106892514Y-56208257D01*
X106892514Y-56208257D02*
X106968704Y-56246352D01*
X106968704Y-56246352D02*
X107006800Y-56284447D01*
X107006800Y-56284447D02*
X107044895Y-56360638D01*
X107044895Y-56360638D02*
X107044895Y-56436828D01*
X107044895Y-56436828D02*
X107006800Y-56513019D01*
X107006800Y-56513019D02*
X106968704Y-56551114D01*
X106968704Y-56551114D02*
X106892514Y-56589209D01*
X106892514Y-56589209D02*
X106740133Y-56627305D01*
X106740133Y-56627305D02*
X106549657Y-56627305D01*
X106549657Y-56627305D02*
X106397276Y-56589209D01*
X106397276Y-56589209D02*
X106321085Y-56551114D01*
X106321085Y-56551114D02*
X106282990Y-56513019D01*
X106282990Y-56513019D02*
X106244895Y-56436828D01*
X139836323Y-68327932D02*
X139836323Y-67946979D01*
X140064895Y-68404122D02*
X139264895Y-68137455D01*
X139264895Y-68137455D02*
X140064895Y-67870789D01*
X140064895Y-67604122D02*
X139264895Y-67604122D01*
X139264895Y-67604122D02*
X139264895Y-67413646D01*
X139264895Y-67413646D02*
X139302990Y-67299360D01*
X139302990Y-67299360D02*
X139379180Y-67223170D01*
X139379180Y-67223170D02*
X139455371Y-67185075D01*
X139455371Y-67185075D02*
X139607752Y-67146979D01*
X139607752Y-67146979D02*
X139722038Y-67146979D01*
X139722038Y-67146979D02*
X139874419Y-67185075D01*
X139874419Y-67185075D02*
X139950609Y-67223170D01*
X139950609Y-67223170D02*
X140026800Y-67299360D01*
X140026800Y-67299360D02*
X140064895Y-67413646D01*
X140064895Y-67413646D02*
X140064895Y-67604122D01*
X140064895Y-66385075D02*
X140064895Y-66842218D01*
X140064895Y-66613646D02*
X139264895Y-66613646D01*
X139264895Y-66613646D02*
X139379180Y-66689837D01*
X139379180Y-66689837D02*
X139455371Y-66766027D01*
X139455371Y-66766027D02*
X139493466Y-66842218D01*
X139531561Y-65699360D02*
X140064895Y-65699360D01*
X139226800Y-65889836D02*
X139798228Y-66080313D01*
X139798228Y-66080313D02*
X139798228Y-65585074D01*
X144916323Y-68327932D02*
X144916323Y-67946979D01*
X145144895Y-68404122D02*
X144344895Y-68137455D01*
X144344895Y-68137455D02*
X145144895Y-67870789D01*
X144725847Y-67337456D02*
X144763942Y-67223170D01*
X144763942Y-67223170D02*
X144802038Y-67185075D01*
X144802038Y-67185075D02*
X144878228Y-67146979D01*
X144878228Y-67146979D02*
X144992514Y-67146979D01*
X144992514Y-67146979D02*
X145068704Y-67185075D01*
X145068704Y-67185075D02*
X145106800Y-67223170D01*
X145106800Y-67223170D02*
X145144895Y-67299360D01*
X145144895Y-67299360D02*
X145144895Y-67604122D01*
X145144895Y-67604122D02*
X144344895Y-67604122D01*
X144344895Y-67604122D02*
X144344895Y-67337456D01*
X144344895Y-67337456D02*
X144382990Y-67261265D01*
X144382990Y-67261265D02*
X144421085Y-67223170D01*
X144421085Y-67223170D02*
X144497276Y-67185075D01*
X144497276Y-67185075D02*
X144573466Y-67185075D01*
X144573466Y-67185075D02*
X144649657Y-67223170D01*
X144649657Y-67223170D02*
X144687752Y-67261265D01*
X144687752Y-67261265D02*
X144725847Y-67337456D01*
X144725847Y-67337456D02*
X144725847Y-67604122D01*
X145144895Y-66385075D02*
X145144895Y-66842218D01*
X145144895Y-66613646D02*
X144344895Y-66613646D01*
X144344895Y-66613646D02*
X144459180Y-66689837D01*
X144459180Y-66689837D02*
X144535371Y-66766027D01*
X144535371Y-66766027D02*
X144573466Y-66842218D01*
X144344895Y-66118408D02*
X144344895Y-65623170D01*
X144344895Y-65623170D02*
X144649657Y-65889836D01*
X144649657Y-65889836D02*
X144649657Y-65775551D01*
X144649657Y-65775551D02*
X144687752Y-65699360D01*
X144687752Y-65699360D02*
X144725847Y-65661265D01*
X144725847Y-65661265D02*
X144802038Y-65623170D01*
X144802038Y-65623170D02*
X144992514Y-65623170D01*
X144992514Y-65623170D02*
X145068704Y-65661265D01*
X145068704Y-65661265D02*
X145106800Y-65699360D01*
X145106800Y-65699360D02*
X145144895Y-65775551D01*
X145144895Y-65775551D02*
X145144895Y-66004122D01*
X145144895Y-66004122D02*
X145106800Y-66080313D01*
X145106800Y-66080313D02*
X145068704Y-66118408D01*
X137296323Y-68366027D02*
X137296323Y-67985074D01*
X137524895Y-68442217D02*
X136724895Y-68175550D01*
X136724895Y-68175550D02*
X137524895Y-67908884D01*
X137524895Y-67642217D02*
X136724895Y-67642217D01*
X137105847Y-67642217D02*
X137105847Y-67185074D01*
X137524895Y-67185074D02*
X136724895Y-67185074D01*
X137524895Y-66385075D02*
X137524895Y-66842218D01*
X137524895Y-66613646D02*
X136724895Y-66613646D01*
X136724895Y-66613646D02*
X136839180Y-66689837D01*
X136839180Y-66689837D02*
X136915371Y-66766027D01*
X136915371Y-66766027D02*
X136953466Y-66842218D01*
X136724895Y-66118408D02*
X136724895Y-65623170D01*
X136724895Y-65623170D02*
X137029657Y-65889836D01*
X137029657Y-65889836D02*
X137029657Y-65775551D01*
X137029657Y-65775551D02*
X137067752Y-65699360D01*
X137067752Y-65699360D02*
X137105847Y-65661265D01*
X137105847Y-65661265D02*
X137182038Y-65623170D01*
X137182038Y-65623170D02*
X137372514Y-65623170D01*
X137372514Y-65623170D02*
X137448704Y-65661265D01*
X137448704Y-65661265D02*
X137486800Y-65699360D01*
X137486800Y-65699360D02*
X137524895Y-65775551D01*
X137524895Y-65775551D02*
X137524895Y-66004122D01*
X137524895Y-66004122D02*
X137486800Y-66080313D01*
X137486800Y-66080313D02*
X137448704Y-66118408D01*
D12*
X102295833Y-54809580D02*
X102248214Y-54857200D01*
X102248214Y-54857200D02*
X102105357Y-54904819D01*
X102105357Y-54904819D02*
X102010119Y-54904819D01*
X102010119Y-54904819D02*
X101867262Y-54857200D01*
X101867262Y-54857200D02*
X101772024Y-54761961D01*
X101772024Y-54761961D02*
X101724405Y-54666723D01*
X101724405Y-54666723D02*
X101676786Y-54476247D01*
X101676786Y-54476247D02*
X101676786Y-54333390D01*
X101676786Y-54333390D02*
X101724405Y-54142914D01*
X101724405Y-54142914D02*
X101772024Y-54047676D01*
X101772024Y-54047676D02*
X101867262Y-53952438D01*
X101867262Y-53952438D02*
X102010119Y-53904819D01*
X102010119Y-53904819D02*
X102105357Y-53904819D01*
X102105357Y-53904819D02*
X102248214Y-53952438D01*
X102248214Y-53952438D02*
X102295833Y-54000057D01*
X102676786Y-54000057D02*
X102724405Y-53952438D01*
X102724405Y-53952438D02*
X102819643Y-53904819D01*
X102819643Y-53904819D02*
X103057738Y-53904819D01*
X103057738Y-53904819D02*
X103152976Y-53952438D01*
X103152976Y-53952438D02*
X103200595Y-54000057D01*
X103200595Y-54000057D02*
X103248214Y-54095295D01*
X103248214Y-54095295D02*
X103248214Y-54190533D01*
X103248214Y-54190533D02*
X103200595Y-54333390D01*
X103200595Y-54333390D02*
X102629167Y-54904819D01*
X102629167Y-54904819D02*
X103248214Y-54904819D01*
X96988333Y-56874580D02*
X96940714Y-56922200D01*
X96940714Y-56922200D02*
X96797857Y-56969819D01*
X96797857Y-56969819D02*
X96702619Y-56969819D01*
X96702619Y-56969819D02*
X96559762Y-56922200D01*
X96559762Y-56922200D02*
X96464524Y-56826961D01*
X96464524Y-56826961D02*
X96416905Y-56731723D01*
X96416905Y-56731723D02*
X96369286Y-56541247D01*
X96369286Y-56541247D02*
X96369286Y-56398390D01*
X96369286Y-56398390D02*
X96416905Y-56207914D01*
X96416905Y-56207914D02*
X96464524Y-56112676D01*
X96464524Y-56112676D02*
X96559762Y-56017438D01*
X96559762Y-56017438D02*
X96702619Y-55969819D01*
X96702619Y-55969819D02*
X96797857Y-55969819D01*
X96797857Y-55969819D02*
X96940714Y-56017438D01*
X96940714Y-56017438D02*
X96988333Y-56065057D01*
X97940714Y-56969819D02*
X97369286Y-56969819D01*
X97655000Y-56969819D02*
X97655000Y-55969819D01*
X97655000Y-55969819D02*
X97559762Y-56112676D01*
X97559762Y-56112676D02*
X97464524Y-56207914D01*
X97464524Y-56207914D02*
X97369286Y-56255533D01*
X93011666Y-59144819D02*
X93011666Y-59859104D01*
X93011666Y-59859104D02*
X92964047Y-60001961D01*
X92964047Y-60001961D02*
X92868809Y-60097200D01*
X92868809Y-60097200D02*
X92725952Y-60144819D01*
X92725952Y-60144819D02*
X92630714Y-60144819D01*
X93916428Y-59478152D02*
X93916428Y-60144819D01*
X93678333Y-59097200D02*
X93440238Y-59811485D01*
X93440238Y-59811485D02*
X94059285Y-59811485D01*
X101266666Y-67399819D02*
X101266666Y-68114104D01*
X101266666Y-68114104D02*
X101219047Y-68256961D01*
X101219047Y-68256961D02*
X101123809Y-68352200D01*
X101123809Y-68352200D02*
X100980952Y-68399819D01*
X100980952Y-68399819D02*
X100885714Y-68399819D01*
X101695238Y-67495057D02*
X101742857Y-67447438D01*
X101742857Y-67447438D02*
X101838095Y-67399819D01*
X101838095Y-67399819D02*
X102076190Y-67399819D01*
X102076190Y-67399819D02*
X102171428Y-67447438D01*
X102171428Y-67447438D02*
X102219047Y-67495057D01*
X102219047Y-67495057D02*
X102266666Y-67590295D01*
X102266666Y-67590295D02*
X102266666Y-67685533D01*
X102266666Y-67685533D02*
X102219047Y-67828390D01*
X102219047Y-67828390D02*
X101647619Y-68399819D01*
X101647619Y-68399819D02*
X102266666Y-68399819D01*
X89836666Y-91529819D02*
X89836666Y-92244104D01*
X89836666Y-92244104D02*
X89789047Y-92386961D01*
X89789047Y-92386961D02*
X89693809Y-92482200D01*
X89693809Y-92482200D02*
X89550952Y-92529819D01*
X89550952Y-92529819D02*
X89455714Y-92529819D01*
X90217619Y-91529819D02*
X90836666Y-91529819D01*
X90836666Y-91529819D02*
X90503333Y-91910771D01*
X90503333Y-91910771D02*
X90646190Y-91910771D01*
X90646190Y-91910771D02*
X90741428Y-91958390D01*
X90741428Y-91958390D02*
X90789047Y-92006009D01*
X90789047Y-92006009D02*
X90836666Y-92101247D01*
X90836666Y-92101247D02*
X90836666Y-92339342D01*
X90836666Y-92339342D02*
X90789047Y-92434580D01*
X90789047Y-92434580D02*
X90741428Y-92482200D01*
X90741428Y-92482200D02*
X90646190Y-92529819D01*
X90646190Y-92529819D02*
X90360476Y-92529819D01*
X90360476Y-92529819D02*
X90265238Y-92482200D01*
X90265238Y-92482200D02*
X90217619Y-92434580D01*
D13*
X102316233Y-55370000D02*
X102608767Y-55370000D01*
X102316233Y-56390000D02*
X102608767Y-56390000D01*
X97665000Y-59136233D02*
X97665000Y-59428767D01*
X96645000Y-59136233D02*
X96645000Y-59428767D01*
X91500000Y-62285000D02*
X90170000Y-62285000D01*
X91500000Y-60955000D02*
X91500000Y-62285000D01*
X91500000Y-59685000D02*
X91500000Y-57085000D01*
X91500000Y-59685000D02*
X88840000Y-59685000D01*
X91500000Y-57085000D02*
X88840000Y-57085000D01*
X88840000Y-59685000D02*
X88840000Y-57085000D01*
X100270000Y-64830000D02*
X100270000Y-63500000D01*
X101600000Y-64830000D02*
X100270000Y-64830000D01*
X102870000Y-64830000D02*
X151190000Y-64830000D01*
X102870000Y-64830000D02*
X102870000Y-62230000D01*
X151190000Y-64830000D02*
X151190000Y-59630000D01*
X100270000Y-62230000D02*
X100270000Y-59630000D01*
X102870000Y-62230000D02*
X100270000Y-62230000D01*
X100270000Y-59630000D02*
X151190000Y-59630000D01*
X96120000Y-85590000D02*
X96120000Y-84590000D01*
X96120000Y-84590000D02*
X95120000Y-85090000D01*
X95120000Y-85090000D02*
X96120000Y-85590000D01*
X94730000Y-90300000D02*
X85610000Y-90300000D01*
X94730000Y-80790000D02*
X93420000Y-80790000D01*
X94730000Y-67180000D02*
X94730000Y-90300000D01*
X93420000Y-89000000D02*
X86920000Y-89000000D01*
X93420000Y-80790000D02*
X93420000Y-89000000D01*
X93420000Y-76690000D02*
X94730000Y-76690000D01*
X93420000Y-76690000D02*
X93420000Y-76690000D01*
X93420000Y-68480000D02*
X93420000Y-76690000D01*
X86920000Y-89000000D02*
X86920000Y-68480000D01*
X86920000Y-68480000D02*
X93420000Y-68480000D01*
X85610000Y-90300000D02*
X85610000Y-67180000D01*
X85610000Y-67180000D02*
X94730000Y-67180000D01*
%LPC*%
D14*
X101600000Y-55880000D03*
X103325000Y-55880000D03*
D15*
X154940000Y-49530000D03*
X104140000Y-111760000D03*
X96520000Y-49530000D03*
D16*
X97155000Y-58420000D03*
X97155000Y-60145000D03*
D17*
X90170000Y-60955000D03*
D18*
X90170000Y-58415000D03*
D15*
X147320000Y-111760000D03*
D17*
X101600000Y-63500000D03*
D18*
X101600000Y-60960000D03*
X104140000Y-63500000D03*
X104140000Y-60960000D03*
X106680000Y-63500000D03*
X106680000Y-60960000D03*
X109220000Y-63500000D03*
X109220000Y-60960000D03*
X111760000Y-63500000D03*
X111760000Y-60960000D03*
X114300000Y-63500000D03*
X114300000Y-60960000D03*
X116840000Y-63500000D03*
X116840000Y-60960000D03*
X119380000Y-63500000D03*
X119380000Y-60960000D03*
X121920000Y-63500000D03*
X121920000Y-60960000D03*
X124460000Y-63500000D03*
X124460000Y-60960000D03*
X127000000Y-63500000D03*
X127000000Y-60960000D03*
X129540000Y-63500000D03*
X129540000Y-60960000D03*
X132080000Y-63500000D03*
X132080000Y-60960000D03*
X134620000Y-63500000D03*
X134620000Y-60960000D03*
X137160000Y-63500000D03*
X137160000Y-60960000D03*
X139700000Y-63500000D03*
X139700000Y-60960000D03*
X142240000Y-63500000D03*
X142240000Y-60960000D03*
X144780000Y-63500000D03*
X144780000Y-60960000D03*
X147320000Y-63500000D03*
X147320000Y-60960000D03*
X149860000Y-63500000D03*
X149860000Y-60960000D03*
D15*
X129540000Y-107315000D03*
D19*
X91440000Y-85090000D03*
D20*
X88900000Y-85090000D03*
X91440000Y-82550000D03*
X88900000Y-82550000D03*
X91440000Y-80010000D03*
X88900000Y-80010000D03*
X91440000Y-77470000D03*
X88900000Y-77470000D03*
X91440000Y-74930000D03*
X88900000Y-74930000D03*
X91440000Y-72390000D03*
X88900000Y-72390000D03*
D17*
X101600000Y-50800000D03*
D18*
X101600000Y-48260000D03*
X104140000Y-50800000D03*
X104140000Y-48260000D03*
X106680000Y-50800000D03*
X106680000Y-48260000D03*
X109220000Y-50800000D03*
X109220000Y-48260000D03*
X111760000Y-50800000D03*
X111760000Y-48260000D03*
X114300000Y-50800000D03*
X114300000Y-48260000D03*
X116840000Y-50800000D03*
X116840000Y-48260000D03*
X119380000Y-50800000D03*
X119380000Y-48260000D03*
X121920000Y-50800000D03*
X121920000Y-48260000D03*
X124460000Y-50800000D03*
X124460000Y-48260000D03*
X127000000Y-50800000D03*
X127000000Y-48260000D03*
X129540000Y-50800000D03*
X129540000Y-48260000D03*
X132080000Y-50800000D03*
X132080000Y-48260000D03*
X134620000Y-50800000D03*
X134620000Y-48260000D03*
X137160000Y-50800000D03*
X137160000Y-48260000D03*
X139700000Y-50800000D03*
X139700000Y-48260000D03*
X142240000Y-50800000D03*
X142240000Y-48260000D03*
X144780000Y-50800000D03*
X144780000Y-48260000D03*
X147320000Y-50800000D03*
X147320000Y-48260000D03*
X149860000Y-50800000D03*
X149860000Y-48260000D03*
%LPD*%
M02*
