M48
; DRILL file {KiCad 7.0.11-7.0.11~ubuntu20.04.1} date sob 17 avg 2024 18:13:54
; FORMAT={-:-/ absolute / metric / decimal}
; #@! TF.CreationDate,2024-08-17T18:13:54+02:00
; #@! TF.GenerationSoftware,Kicad,Pcbnew,7.0.11-7.0.11~ubuntu20.04.1
; #@! TF.FileFunction,Plated,1,2,PTH
FMAT,2
METRIC
; #@! TA.AperFunction,Plated,PTH,ViaDrill
T1C0.400
; #@! TA.AperFunction,Plated,PTH,ComponentDrill
T2C1.000
%
G90
G05
T1
X97.155Y-61.595
X107.95Y-57.15
T2
X88.9Y-72.39
X88.9Y-74.93
X88.9Y-77.47
X88.9Y-80.01
X88.9Y-82.55
X88.9Y-85.09
X90.17Y-58.415
X90.17Y-60.955
X91.44Y-72.39
X91.44Y-74.93
X91.44Y-77.47
X91.44Y-80.01
X91.44Y-82.55
X91.44Y-85.09
X101.6Y-48.26
X101.6Y-50.8
X101.6Y-60.96
X101.6Y-63.5
X104.14Y-48.26
X104.14Y-50.8
X104.14Y-60.96
X104.14Y-63.5
X106.68Y-48.26
X106.68Y-50.8
X106.68Y-60.96
X106.68Y-63.5
X109.22Y-48.26
X109.22Y-50.8
X109.22Y-60.96
X109.22Y-63.5
X111.76Y-48.26
X111.76Y-50.8
X111.76Y-60.96
X111.76Y-63.5
X114.3Y-48.26
X114.3Y-50.8
X114.3Y-60.96
X114.3Y-63.5
X116.84Y-48.26
X116.84Y-50.8
X116.84Y-60.96
X116.84Y-63.5
X119.38Y-48.26
X119.38Y-50.8
X119.38Y-60.96
X119.38Y-63.5
X121.92Y-48.26
X121.92Y-50.8
X121.92Y-60.96
X121.92Y-63.5
X124.46Y-48.26
X124.46Y-50.8
X124.46Y-60.96
X124.46Y-63.5
X127.0Y-48.26
X127.0Y-50.8
X127.0Y-60.96
X127.0Y-63.5
X129.54Y-48.26
X129.54Y-50.8
X129.54Y-60.96
X129.54Y-63.5
X132.08Y-48.26
X132.08Y-50.8
X132.08Y-60.96
X132.08Y-63.5
X134.62Y-48.26
X134.62Y-50.8
X134.62Y-60.96
X134.62Y-63.5
X137.16Y-48.26
X137.16Y-50.8
X137.16Y-60.96
X137.16Y-63.5
X139.7Y-48.26
X139.7Y-50.8
X139.7Y-60.96
X139.7Y-63.5
X142.24Y-48.26
X142.24Y-50.8
X142.24Y-60.96
X142.24Y-63.5
X144.78Y-48.26
X144.78Y-50.8
X144.78Y-60.96
X144.78Y-63.5
X147.32Y-48.26
X147.32Y-50.8
X147.32Y-60.96
X147.32Y-63.5
X149.86Y-48.26
X149.86Y-50.8
X149.86Y-60.96
X149.86Y-63.5
M30
