G04 #@! TF.GenerationSoftware,KiCad,Pcbnew,7.0.11-7.0.11~ubuntu20.04.1*
G04 #@! TF.CreationDate,2024-08-17T18:13:06+02:00*
G04 #@! TF.ProjectId,kicad-kria-pi4-ext,6b696361-642d-46b7-9269-612d7069342d,1.0*
G04 #@! TF.SameCoordinates,Original*
G04 #@! TF.FileFunction,Copper,L2,Bot*
G04 #@! TF.FilePolarity,Positive*
%FSLAX46Y46*%
G04 Gerber Fmt 4.6, Leading zero omitted, Abs format (unit mm)*
G04 Created by KiCad (PCBNEW 7.0.11-7.0.11~ubuntu20.04.1) date 2024-08-17 18:13:06*
%MOMM*%
%LPD*%
G01*
G04 APERTURE LIST*
G04 Aperture macros list*
%AMRoundRect*
0 Rectangle with rounded corners*
0 $1 Rounding radius*
0 $2 $3 $4 $5 $6 $7 $8 $9 X,Y pos of 4 corners*
0 Add a 4 corners polygon primitive as box body*
4,1,4,$2,$3,$4,$5,$6,$7,$8,$9,$2,$3,0*
0 Add four circle primitives for the rounded corners*
1,1,$1+$1,$2,$3*
1,1,$1+$1,$4,$5*
1,1,$1+$1,$6,$7*
1,1,$1+$1,$8,$9*
0 Add four rect primitives between the rounded corners*
20,1,$1+$1,$2,$3,$4,$5,0*
20,1,$1+$1,$4,$5,$6,$7,0*
20,1,$1+$1,$6,$7,$8,$9,0*
20,1,$1+$1,$8,$9,$2,$3,0*%
G04 Aperture macros list end*
G04 #@! TA.AperFunction,ComponentPad*
%ADD10R,1.700000X1.700000*%
G04 #@! TD*
G04 #@! TA.AperFunction,ComponentPad*
%ADD11O,1.700000X1.700000*%
G04 #@! TD*
G04 #@! TA.AperFunction,ComponentPad*
%ADD12RoundRect,0.250000X0.600000X0.600000X-0.600000X0.600000X-0.600000X-0.600000X0.600000X-0.600000X0*%
G04 #@! TD*
G04 #@! TA.AperFunction,ComponentPad*
%ADD13C,1.700000*%
G04 #@! TD*
G04 #@! TA.AperFunction,ViaPad*
%ADD14C,0.800000*%
G04 #@! TD*
G04 #@! TA.AperFunction,Conductor*
%ADD15C,0.250000*%
G04 #@! TD*
G04 #@! TA.AperFunction,Conductor*
%ADD16C,0.750000*%
G04 #@! TD*
G04 APERTURE END LIST*
D10*
X90170000Y-60955000D03*
D11*
X90170000Y-58415000D03*
D10*
X101600000Y-63500000D03*
D11*
X101600000Y-60960000D03*
X104140000Y-63500000D03*
X104140000Y-60960000D03*
X106680000Y-63500000D03*
X106680000Y-60960000D03*
X109220000Y-63500000D03*
X109220000Y-60960000D03*
X111760000Y-63500000D03*
X111760000Y-60960000D03*
X114300000Y-63500000D03*
X114300000Y-60960000D03*
X116840000Y-63500000D03*
X116840000Y-60960000D03*
X119380000Y-63500000D03*
X119380000Y-60960000D03*
X121920000Y-63500000D03*
X121920000Y-60960000D03*
X124460000Y-63500000D03*
X124460000Y-60960000D03*
X127000000Y-63500000D03*
X127000000Y-60960000D03*
X129540000Y-63500000D03*
X129540000Y-60960000D03*
X132080000Y-63500000D03*
X132080000Y-60960000D03*
X134620000Y-63500000D03*
X134620000Y-60960000D03*
X137160000Y-63500000D03*
X137160000Y-60960000D03*
X139700000Y-63500000D03*
X139700000Y-60960000D03*
X142240000Y-63500000D03*
X142240000Y-60960000D03*
X144780000Y-63500000D03*
X144780000Y-60960000D03*
X147320000Y-63500000D03*
X147320000Y-60960000D03*
X149860000Y-63500000D03*
X149860000Y-60960000D03*
D12*
X91440000Y-85090000D03*
D13*
X88900000Y-85090000D03*
X91440000Y-82550000D03*
X88900000Y-82550000D03*
X91440000Y-80010000D03*
X88900000Y-80010000D03*
X91440000Y-77470000D03*
X88900000Y-77470000D03*
X91440000Y-74930000D03*
X88900000Y-74930000D03*
X91440000Y-72390000D03*
X88900000Y-72390000D03*
D10*
X101600000Y-50800000D03*
D11*
X101600000Y-48260000D03*
X104140000Y-50800000D03*
X104140000Y-48260000D03*
X106680000Y-50800000D03*
X106680000Y-48260000D03*
X109220000Y-50800000D03*
X109220000Y-48260000D03*
X111760000Y-50800000D03*
X111760000Y-48260000D03*
X114300000Y-50800000D03*
X114300000Y-48260000D03*
X116840000Y-50800000D03*
X116840000Y-48260000D03*
X119380000Y-50800000D03*
X119380000Y-48260000D03*
X121920000Y-50800000D03*
X121920000Y-48260000D03*
X124460000Y-50800000D03*
X124460000Y-48260000D03*
X127000000Y-50800000D03*
X127000000Y-48260000D03*
X129540000Y-50800000D03*
X129540000Y-48260000D03*
X132080000Y-50800000D03*
X132080000Y-48260000D03*
X134620000Y-50800000D03*
X134620000Y-48260000D03*
X137160000Y-50800000D03*
X137160000Y-48260000D03*
X139700000Y-50800000D03*
X139700000Y-48260000D03*
X142240000Y-50800000D03*
X142240000Y-48260000D03*
X144780000Y-50800000D03*
X144780000Y-48260000D03*
X147320000Y-50800000D03*
X147320000Y-48260000D03*
X149860000Y-50800000D03*
X149860000Y-48260000D03*
D14*
X97155000Y-61595000D03*
X107950000Y-57150000D03*
D15*
X119380000Y-63500000D02*
X119380000Y-64135000D01*
X115570000Y-67945000D02*
X111443198Y-67945000D01*
X119380000Y-64135000D02*
X115570000Y-67945000D01*
X111443198Y-67945000D02*
X94298198Y-85090000D01*
X94298198Y-85090000D02*
X91440000Y-85090000D01*
X116840000Y-60960000D02*
X115570000Y-62230000D01*
X115570000Y-62230000D02*
X115570000Y-64135000D01*
X115570000Y-64135000D02*
X114300000Y-65405000D01*
X114300000Y-65405000D02*
X111125000Y-65405000D01*
X111125000Y-65405000D02*
X93980000Y-82550000D01*
X93980000Y-82550000D02*
X91440000Y-82550000D01*
X116840000Y-63500000D02*
X116840000Y-64770000D01*
X90170000Y-83820000D02*
X88900000Y-85090000D01*
X116840000Y-64770000D02*
X114935000Y-66675000D01*
X114935000Y-66675000D02*
X111125000Y-66675000D01*
X111125000Y-66675000D02*
X93980000Y-83820000D01*
X93980000Y-83820000D02*
X90170000Y-83820000D01*
X111760000Y-63500000D02*
X93980000Y-81280000D01*
X93980000Y-81280000D02*
X90170000Y-81280000D01*
X90170000Y-81280000D02*
X88900000Y-82550000D01*
X109220000Y-48260000D02*
X110490000Y-49530000D01*
X110490000Y-49530000D02*
X110490000Y-52070000D01*
X110490000Y-52070000D02*
X111125000Y-52705000D01*
X111125000Y-52705000D02*
X112395000Y-52705000D01*
X112395000Y-52705000D02*
X119380000Y-59690000D01*
X119380000Y-59690000D02*
X119380000Y-60960000D01*
X109855000Y-52705000D02*
X109220000Y-52070000D01*
X114300000Y-60960000D02*
X114300000Y-57150000D01*
X114300000Y-57150000D02*
X109855000Y-52705000D01*
X114300000Y-63500000D02*
X112935000Y-62135000D01*
X112935000Y-62135000D02*
X112935000Y-57055000D01*
X112935000Y-57055000D02*
X106680000Y-50800000D01*
X104140000Y-50800000D02*
X104140000Y-52070000D01*
X104140000Y-52070000D02*
X104775000Y-52705000D01*
X104775000Y-52705000D02*
X107315000Y-52705000D01*
X107315000Y-52705000D02*
X111760000Y-57150000D01*
X111760000Y-57150000D02*
X111760000Y-60960000D01*
D16*
X101600000Y-48260000D02*
X104140000Y-48260000D01*
X106045000Y-57150000D02*
X101600000Y-52705000D01*
X101600000Y-52705000D02*
X101600000Y-50800000D01*
X107950000Y-57150000D02*
X106045000Y-57150000D01*
D15*
X109220000Y-52070000D02*
X109220000Y-50800000D01*
X120650000Y-62230000D02*
X120650000Y-59055000D01*
X113030000Y-52071396D02*
X113030000Y-49530000D01*
X121920000Y-63500000D02*
X120650000Y-62230000D01*
X116203604Y-55245000D02*
X113030000Y-52071396D01*
X120650000Y-59055000D02*
X116840000Y-55245000D01*
X113030000Y-49530000D02*
X111760000Y-48260000D01*
X116840000Y-55245000D02*
X116203604Y-55245000D01*
X114300000Y-50800000D02*
X114300000Y-52070000D01*
X114300000Y-52070000D02*
X116840000Y-54610000D01*
X121920000Y-59055000D02*
X121920000Y-60960000D01*
X116840000Y-54610000D02*
X117475000Y-54610000D01*
X117475000Y-54610000D02*
X121920000Y-59055000D01*
X123190000Y-62230000D02*
X123190000Y-59055000D01*
X123190000Y-59055000D02*
X118110000Y-53975000D01*
X117475000Y-53975000D02*
X115570000Y-52070000D01*
X115570000Y-49530000D02*
X114300000Y-48260000D01*
X118110000Y-53975000D02*
X117475000Y-53975000D01*
X115570000Y-52070000D02*
X115570000Y-49530000D01*
X124460000Y-63500000D02*
X123190000Y-62230000D01*
X117475000Y-52705000D02*
X118110000Y-52705000D01*
X124460000Y-59055000D02*
X124460000Y-60960000D01*
X116840000Y-52070000D02*
X117475000Y-52705000D01*
X118110000Y-52705000D02*
X124460000Y-59055000D01*
X116840000Y-50800000D02*
X116840000Y-52070000D01*
X125730000Y-59055000D02*
X119380000Y-52705000D01*
X127000000Y-63500000D02*
X125730000Y-62230000D01*
X125730000Y-62230000D02*
X125730000Y-59055000D01*
X119380000Y-52705000D02*
X119380000Y-50800000D01*
X127000000Y-59055000D02*
X127000000Y-60960000D01*
X120650000Y-49530000D02*
X120650000Y-52705000D01*
X120650000Y-52705000D02*
X127000000Y-59055000D01*
X119380000Y-48260000D02*
X120650000Y-49530000D01*
X128270000Y-62230000D02*
X129540000Y-63500000D01*
X128270000Y-58420000D02*
X128270000Y-62230000D01*
X123190000Y-49530000D02*
X123190000Y-53340000D01*
X123190000Y-53340000D02*
X128270000Y-58420000D01*
X121920000Y-48260000D02*
X123190000Y-49530000D01*
X129540000Y-57785000D02*
X124460000Y-52705000D01*
X124460000Y-52705000D02*
X124460000Y-50800000D01*
X129540000Y-60960000D02*
X129540000Y-57785000D01*
X132080000Y-63500000D02*
X130810000Y-62230000D01*
X130810000Y-57785000D02*
X127000000Y-53975000D01*
X127000000Y-53975000D02*
X127000000Y-50800000D01*
X130810000Y-62230000D02*
X130810000Y-57785000D01*
X128270000Y-53975000D02*
X132080000Y-57785000D01*
X128270000Y-49530000D02*
X128270000Y-53975000D01*
X132080000Y-57785000D02*
X132080000Y-60960000D01*
X127000000Y-48260000D02*
X128270000Y-49530000D01*
X134620000Y-63500000D02*
X133350000Y-62230000D01*
X129540000Y-53975000D02*
X129540000Y-50800000D01*
X133350000Y-57785000D02*
X129540000Y-53975000D01*
X133350000Y-62230000D02*
X133350000Y-57785000D01*
X129540000Y-48260000D02*
X130810000Y-49530000D01*
X130810000Y-49530000D02*
X130810000Y-53975000D01*
X130810000Y-53975000D02*
X134620000Y-57785000D01*
X134620000Y-57785000D02*
X134620000Y-60960000D01*
X135890000Y-57150000D02*
X133350000Y-54610000D01*
X137160000Y-63500000D02*
X135890000Y-62230000D01*
X133350000Y-49530000D02*
X132080000Y-48260000D01*
X135890000Y-62230000D02*
X135890000Y-57150000D01*
X133350000Y-54610000D02*
X133350000Y-49530000D01*
X137160000Y-57150000D02*
X137160000Y-60960000D01*
X134620000Y-50800000D02*
X134620000Y-54610000D01*
X134620000Y-54610000D02*
X137160000Y-57150000D01*
X138430000Y-62230000D02*
X138430000Y-57150000D01*
X139700000Y-63500000D02*
X138430000Y-62230000D01*
X135890000Y-54610000D02*
X135890000Y-49530000D01*
X138430000Y-57150000D02*
X135890000Y-54610000D01*
X135890000Y-49530000D02*
X134620000Y-48260000D01*
X139700000Y-56642000D02*
X139700000Y-60960000D01*
X137160000Y-50800000D02*
X137160000Y-54102000D01*
X137160000Y-54102000D02*
X139700000Y-56642000D01*
X140970000Y-62230000D02*
X140970000Y-55880000D01*
X139700000Y-54610000D02*
X139700000Y-50800000D01*
X140970000Y-55880000D02*
X139700000Y-54610000D01*
X142240000Y-63500000D02*
X140970000Y-62230000D01*
X140970000Y-54610000D02*
X142240000Y-55880000D01*
X140970000Y-49530000D02*
X140970000Y-54610000D01*
X139700000Y-48260000D02*
X140970000Y-49530000D01*
X142240000Y-55880000D02*
X142240000Y-60960000D01*
X143510000Y-62230000D02*
X143510000Y-55880000D01*
X142240000Y-54610000D02*
X142240000Y-50800000D01*
X144780000Y-63500000D02*
X143510000Y-62230000D01*
X143510000Y-55880000D02*
X142240000Y-54610000D01*
X144780000Y-54610000D02*
X144780000Y-50800000D01*
X146050000Y-55880000D02*
X144780000Y-54610000D01*
X147320000Y-63500000D02*
X146050000Y-62230000D01*
X146050000Y-62230000D02*
X146050000Y-55880000D01*
X143510000Y-49530000D02*
X143510000Y-54610000D01*
X144780000Y-55880000D02*
X144780000Y-60960000D01*
X143510000Y-54610000D02*
X144780000Y-55880000D01*
X144780000Y-48260000D02*
X143510000Y-49530000D01*
X147320000Y-54610000D02*
X147320000Y-50800000D01*
X148590000Y-62230000D02*
X148590000Y-55880000D01*
X149860000Y-63500000D02*
X148590000Y-62230000D01*
X148590000Y-55880000D02*
X147320000Y-54610000D01*
X147320000Y-48260000D02*
X146050000Y-49530000D01*
X147320000Y-55880000D02*
X147320000Y-60960000D01*
X146050000Y-54610000D02*
X147320000Y-55880000D01*
X146050000Y-49530000D02*
X146050000Y-54610000D01*
X149860000Y-55880000D02*
X149860000Y-60960000D01*
X148590000Y-54610000D02*
X149860000Y-55880000D01*
X149860000Y-48260000D02*
X148590000Y-49530000D01*
X148590000Y-49530000D02*
X148590000Y-54610000D01*
X106680000Y-64770000D02*
X93980000Y-77470000D01*
X93980000Y-77470000D02*
X91440000Y-77470000D01*
X106680000Y-63500000D02*
X106680000Y-64770000D01*
X105410000Y-64770000D02*
X93980000Y-76200000D01*
X105410000Y-62230000D02*
X105410000Y-64770000D01*
X106680000Y-60960000D02*
X105410000Y-62230000D01*
X93980000Y-76200000D02*
X90170000Y-76200000D01*
X90170000Y-76200000D02*
X88900000Y-77470000D01*
X109220000Y-64770000D02*
X109220000Y-63500000D01*
X93980000Y-80010000D02*
X109220000Y-64770000D01*
X91440000Y-80010000D02*
X93980000Y-80010000D01*
X90170000Y-78740000D02*
X93980000Y-78740000D01*
X93980000Y-78740000D02*
X107950000Y-64770000D01*
X107950000Y-64770000D02*
X107950000Y-62230000D01*
X107950000Y-62230000D02*
X109220000Y-60960000D01*
X88900000Y-80010000D02*
X90170000Y-78740000D01*
G04 #@! TA.AperFunction,Conductor*
G36*
X90254855Y-73056546D02*
G01*
X90271575Y-73075842D01*
X90401500Y-73261395D01*
X90401505Y-73261401D01*
X90568599Y-73428495D01*
X90754594Y-73558730D01*
X90798218Y-73613307D01*
X90805411Y-73682806D01*
X90773889Y-73745160D01*
X90754593Y-73761880D01*
X90678626Y-73815072D01*
X90678625Y-73815072D01*
X91307466Y-74443913D01*
X91297685Y-74445320D01*
X91166900Y-74505048D01*
X91058239Y-74599202D01*
X90980507Y-74720156D01*
X90956923Y-74800476D01*
X90325072Y-74168625D01*
X90325072Y-74168626D01*
X90271574Y-74245030D01*
X90216998Y-74288655D01*
X90147499Y-74295849D01*
X90085144Y-74264326D01*
X90068424Y-74245030D01*
X90014925Y-74168626D01*
X90014925Y-74168625D01*
X89383076Y-74800475D01*
X89359493Y-74720156D01*
X89281761Y-74599202D01*
X89173100Y-74505048D01*
X89042315Y-74445320D01*
X89032533Y-74443913D01*
X89661373Y-73815073D01*
X89661373Y-73815072D01*
X89585405Y-73761880D01*
X89541780Y-73707304D01*
X89534586Y-73637805D01*
X89566108Y-73575451D01*
X89585399Y-73558734D01*
X89771401Y-73428495D01*
X89938495Y-73261401D01*
X90068425Y-73075842D01*
X90123002Y-73032217D01*
X90192500Y-73025023D01*
X90254855Y-73056546D01*
G37*
G04 #@! TD.AperFunction*
G04 #@! TA.AperFunction,Conductor*
G36*
X104390000Y-63064498D02*
G01*
X104282315Y-63015320D01*
X104175763Y-63000000D01*
X104104237Y-63000000D01*
X103997685Y-63015320D01*
X103890000Y-63064498D01*
X103890000Y-61395501D01*
X103997685Y-61444680D01*
X104104237Y-61460000D01*
X104175763Y-61460000D01*
X104282315Y-61444680D01*
X104390000Y-61395501D01*
X104390000Y-63064498D01*
G37*
G04 #@! TD.AperFunction*
G04 #@! TA.AperFunction,Conductor*
G36*
X132330000Y-52130633D02*
G01*
X132543483Y-52073433D01*
X132543486Y-52073432D01*
X132548086Y-52071287D01*
X132617163Y-52060790D01*
X132680949Y-52089304D01*
X132719193Y-52147778D01*
X132724500Y-52183665D01*
X132724500Y-54527255D01*
X132722775Y-54542872D01*
X132723061Y-54542899D01*
X132722326Y-54550665D01*
X132724439Y-54617872D01*
X132724500Y-54621767D01*
X132724500Y-54649357D01*
X132725003Y-54653335D01*
X132725918Y-54664967D01*
X132727157Y-54704368D01*
X132709589Y-54771993D01*
X132658249Y-54819385D01*
X132589437Y-54831497D01*
X132525001Y-54804484D01*
X132515537Y-54795946D01*
X131471819Y-53752228D01*
X131438334Y-53690905D01*
X131435500Y-53664547D01*
X131435500Y-52183665D01*
X131455185Y-52116626D01*
X131507989Y-52070871D01*
X131577147Y-52060927D01*
X131611914Y-52071287D01*
X131616513Y-52073432D01*
X131616516Y-52073433D01*
X131830000Y-52130634D01*
X131830000Y-51235501D01*
X131937685Y-51284680D01*
X132044237Y-51300000D01*
X132115763Y-51300000D01*
X132222315Y-51284680D01*
X132330000Y-51235501D01*
X132330000Y-52130633D01*
G37*
G04 #@! TD.AperFunction*
G04 #@! TA.AperFunction,Conductor*
G36*
X161931912Y-44451278D02*
G01*
X161950299Y-44453350D01*
X161952404Y-44453607D01*
X162063499Y-44468233D01*
X162088249Y-44474126D01*
X162130803Y-44489017D01*
X162137255Y-44491480D01*
X162210533Y-44521833D01*
X162229028Y-44531387D01*
X162271975Y-44558372D01*
X162281481Y-44564985D01*
X162340274Y-44610098D01*
X162352469Y-44620793D01*
X162389205Y-44657529D01*
X162399900Y-44669724D01*
X162445013Y-44728517D01*
X162451630Y-44738029D01*
X162478607Y-44780962D01*
X162488172Y-44799478D01*
X162518510Y-44872722D01*
X162520990Y-44879219D01*
X162535869Y-44921740D01*
X162541767Y-44946510D01*
X162556381Y-45057517D01*
X162556661Y-45059801D01*
X162558720Y-45078085D01*
X162559500Y-45091959D01*
X162559500Y-116198039D01*
X162558721Y-116211915D01*
X162557239Y-116225065D01*
X162556662Y-116230186D01*
X162556381Y-116232481D01*
X162541767Y-116343488D01*
X162535869Y-116368258D01*
X162520990Y-116410779D01*
X162518510Y-116417276D01*
X162488172Y-116490520D01*
X162478604Y-116509042D01*
X162451630Y-116551969D01*
X162445013Y-116561481D01*
X162399900Y-116620274D01*
X162389205Y-116632469D01*
X162352469Y-116669205D01*
X162340274Y-116679900D01*
X162281481Y-116725013D01*
X162271969Y-116731630D01*
X162229042Y-116758604D01*
X162210520Y-116768172D01*
X162137276Y-116798510D01*
X162130779Y-116800990D01*
X162088258Y-116815869D01*
X162063488Y-116821767D01*
X161952481Y-116836381D01*
X161950187Y-116836662D01*
X161947503Y-116836964D01*
X161931914Y-116838720D01*
X161918040Y-116839500D01*
X85731960Y-116839500D01*
X85718083Y-116838720D01*
X85703203Y-116837044D01*
X85699813Y-116836662D01*
X85697517Y-116836381D01*
X85586510Y-116821767D01*
X85561740Y-116815869D01*
X85519219Y-116800990D01*
X85512722Y-116798510D01*
X85462748Y-116777810D01*
X85439475Y-116768170D01*
X85420962Y-116758607D01*
X85378029Y-116731630D01*
X85368517Y-116725013D01*
X85309724Y-116679900D01*
X85297529Y-116669205D01*
X85260793Y-116632469D01*
X85250098Y-116620274D01*
X85204985Y-116561481D01*
X85198368Y-116551969D01*
X85171387Y-116509028D01*
X85161833Y-116490533D01*
X85131480Y-116417255D01*
X85129017Y-116410803D01*
X85114126Y-116368249D01*
X85108233Y-116343499D01*
X85093607Y-116232404D01*
X85093350Y-116230299D01*
X85091278Y-116211912D01*
X85090500Y-116198037D01*
X85090500Y-111884334D01*
X102639500Y-111884334D01*
X102680429Y-112129616D01*
X102761169Y-112364802D01*
X102761172Y-112364811D01*
X102879524Y-112583506D01*
X102879526Y-112583509D01*
X103032262Y-112779744D01*
X103191744Y-112926557D01*
X103215217Y-112948166D01*
X103423393Y-113084173D01*
X103651118Y-113184063D01*
X103892175Y-113245107D01*
X103892179Y-113245108D01*
X103892181Y-113245108D01*
X103892186Y-113245109D01*
X104045589Y-113257819D01*
X104077933Y-113260500D01*
X104077937Y-113260500D01*
X104202063Y-113260500D01*
X104202067Y-113260500D01*
X104264677Y-113255311D01*
X104387813Y-113245109D01*
X104387816Y-113245108D01*
X104387821Y-113245108D01*
X104628881Y-113184063D01*
X104856607Y-113084173D01*
X105064785Y-112948164D01*
X105247738Y-112779744D01*
X105400474Y-112583509D01*
X105518828Y-112364810D01*
X105599571Y-112129614D01*
X105640500Y-111884335D01*
X105640500Y-111884334D01*
X145819500Y-111884334D01*
X145860429Y-112129616D01*
X145941169Y-112364802D01*
X145941172Y-112364811D01*
X146059524Y-112583506D01*
X146059526Y-112583509D01*
X146212262Y-112779744D01*
X146371744Y-112926557D01*
X146395217Y-112948166D01*
X146603393Y-113084173D01*
X146831118Y-113184063D01*
X147072175Y-113245107D01*
X147072179Y-113245108D01*
X147072181Y-113245108D01*
X147072186Y-113245109D01*
X147225589Y-113257819D01*
X147257933Y-113260500D01*
X147257937Y-113260500D01*
X147382063Y-113260500D01*
X147382067Y-113260500D01*
X147444677Y-113255311D01*
X147567813Y-113245109D01*
X147567816Y-113245108D01*
X147567821Y-113245108D01*
X147808881Y-113184063D01*
X148036607Y-113084173D01*
X148244785Y-112948164D01*
X148427738Y-112779744D01*
X148580474Y-112583509D01*
X148698828Y-112364810D01*
X148779571Y-112129614D01*
X148820500Y-111884335D01*
X148820500Y-111635665D01*
X148779571Y-111390386D01*
X148698828Y-111155190D01*
X148580474Y-110936491D01*
X148427738Y-110740256D01*
X148244785Y-110571836D01*
X148244782Y-110571833D01*
X148036606Y-110435826D01*
X147808881Y-110335936D01*
X147567824Y-110274892D01*
X147567813Y-110274890D01*
X147382077Y-110259500D01*
X147382067Y-110259500D01*
X147257933Y-110259500D01*
X147257922Y-110259500D01*
X147072186Y-110274890D01*
X147072175Y-110274892D01*
X146831118Y-110335936D01*
X146603393Y-110435826D01*
X146395217Y-110571833D01*
X146212261Y-110740257D01*
X146059524Y-110936493D01*
X145941172Y-111155188D01*
X145941169Y-111155197D01*
X145860429Y-111390383D01*
X145819500Y-111635665D01*
X145819500Y-111884334D01*
X105640500Y-111884334D01*
X105640500Y-111635665D01*
X105599571Y-111390386D01*
X105518828Y-111155190D01*
X105400474Y-110936491D01*
X105247738Y-110740256D01*
X105064785Y-110571836D01*
X105064782Y-110571833D01*
X104856606Y-110435826D01*
X104628881Y-110335936D01*
X104387824Y-110274892D01*
X104387813Y-110274890D01*
X104202077Y-110259500D01*
X104202067Y-110259500D01*
X104077933Y-110259500D01*
X104077922Y-110259500D01*
X103892186Y-110274890D01*
X103892175Y-110274892D01*
X103651118Y-110335936D01*
X103423393Y-110435826D01*
X103215217Y-110571833D01*
X103032261Y-110740257D01*
X102879524Y-110936493D01*
X102761172Y-111155188D01*
X102761169Y-111155197D01*
X102680429Y-111390383D01*
X102639500Y-111635665D01*
X102639500Y-111884334D01*
X85090500Y-111884334D01*
X85090500Y-107439334D01*
X128039500Y-107439334D01*
X128080429Y-107684616D01*
X128161169Y-107919802D01*
X128161172Y-107919811D01*
X128279524Y-108138506D01*
X128279526Y-108138509D01*
X128432262Y-108334744D01*
X128591744Y-108481557D01*
X128615217Y-108503166D01*
X128823393Y-108639173D01*
X129051118Y-108739063D01*
X129292175Y-108800107D01*
X129292179Y-108800108D01*
X129292181Y-108800108D01*
X129292186Y-108800109D01*
X129445589Y-108812819D01*
X129477933Y-108815500D01*
X129477937Y-108815500D01*
X129602063Y-108815500D01*
X129602067Y-108815500D01*
X129664677Y-108810311D01*
X129787813Y-108800109D01*
X129787816Y-108800108D01*
X129787821Y-108800108D01*
X130028881Y-108739063D01*
X130256607Y-108639173D01*
X130464785Y-108503164D01*
X130647738Y-108334744D01*
X130800474Y-108138509D01*
X130918828Y-107919810D01*
X130999571Y-107684614D01*
X131040500Y-107439335D01*
X131040500Y-107190665D01*
X130999571Y-106945386D01*
X130918828Y-106710190D01*
X130800474Y-106491491D01*
X130647738Y-106295256D01*
X130464785Y-106126836D01*
X130464782Y-106126833D01*
X130256606Y-105990826D01*
X130028881Y-105890936D01*
X129787824Y-105829892D01*
X129787813Y-105829890D01*
X129602077Y-105814500D01*
X129602067Y-105814500D01*
X129477933Y-105814500D01*
X129477922Y-105814500D01*
X129292186Y-105829890D01*
X129292175Y-105829892D01*
X129051118Y-105890936D01*
X128823393Y-105990826D01*
X128615217Y-106126833D01*
X128432261Y-106295257D01*
X128279524Y-106491493D01*
X128161172Y-106710188D01*
X128161169Y-106710197D01*
X128080429Y-106945383D01*
X128039500Y-107190665D01*
X128039500Y-107439334D01*
X85090500Y-107439334D01*
X85090500Y-85090000D01*
X87544341Y-85090000D01*
X87564936Y-85325403D01*
X87564938Y-85325413D01*
X87626094Y-85553655D01*
X87626096Y-85553659D01*
X87626097Y-85553663D01*
X87702234Y-85716939D01*
X87725965Y-85767830D01*
X87725967Y-85767834D01*
X87832670Y-85920220D01*
X87861505Y-85961401D01*
X88028599Y-86128495D01*
X88071675Y-86158657D01*
X88222165Y-86264032D01*
X88222167Y-86264033D01*
X88222170Y-86264035D01*
X88436337Y-86363903D01*
X88664592Y-86425063D01*
X88841034Y-86440500D01*
X88899999Y-86445659D01*
X88900000Y-86445659D01*
X88900001Y-86445659D01*
X88958966Y-86440500D01*
X89135408Y-86425063D01*
X89363663Y-86363903D01*
X89577830Y-86264035D01*
X89771401Y-86128495D01*
X89938495Y-85961401D01*
X89938504Y-85961388D01*
X89939636Y-85960040D01*
X89940293Y-85959602D01*
X89942323Y-85957573D01*
X89942730Y-85957980D01*
X89997805Y-85921334D01*
X90067666Y-85920220D01*
X90127038Y-85957053D01*
X90152335Y-86000733D01*
X90155186Y-86009334D01*
X90247288Y-86158656D01*
X90371344Y-86282712D01*
X90520666Y-86374814D01*
X90687203Y-86429999D01*
X90789991Y-86440500D01*
X92090008Y-86440499D01*
X92192797Y-86429999D01*
X92359334Y-86374814D01*
X92508656Y-86282712D01*
X92632712Y-86158656D01*
X92724814Y-86009334D01*
X92779999Y-85842797D01*
X92781623Y-85826898D01*
X92808018Y-85762207D01*
X92865198Y-85722055D01*
X92904981Y-85715500D01*
X94215455Y-85715500D01*
X94231075Y-85717224D01*
X94231102Y-85716939D01*
X94238858Y-85717671D01*
X94238865Y-85717673D01*
X94306071Y-85715561D01*
X94309966Y-85715500D01*
X94337544Y-85715500D01*
X94337548Y-85715500D01*
X94341522Y-85714997D01*
X94353161Y-85714080D01*
X94396825Y-85712709D01*
X94416067Y-85707117D01*
X94435110Y-85703174D01*
X94454990Y-85700664D01*
X94495599Y-85684585D01*
X94506642Y-85680803D01*
X94548588Y-85668618D01*
X94565827Y-85658422D01*
X94583301Y-85649862D01*
X94601925Y-85642488D01*
X94601925Y-85642487D01*
X94601930Y-85642486D01*
X94637281Y-85616800D01*
X94647012Y-85610408D01*
X94684618Y-85588170D01*
X94698787Y-85573999D01*
X94713577Y-85561368D01*
X94729785Y-85549594D01*
X94757636Y-85515926D01*
X94765477Y-85507309D01*
X111665969Y-68606819D01*
X111727292Y-68573334D01*
X111753650Y-68570500D01*
X115487257Y-68570500D01*
X115502877Y-68572224D01*
X115502904Y-68571939D01*
X115510660Y-68572671D01*
X115510667Y-68572673D01*
X115577873Y-68570561D01*
X115581768Y-68570500D01*
X115609346Y-68570500D01*
X115609350Y-68570500D01*
X115613324Y-68569997D01*
X115624963Y-68569080D01*
X115668627Y-68567709D01*
X115687869Y-68562117D01*
X115706912Y-68558174D01*
X115726792Y-68555664D01*
X115767401Y-68539585D01*
X115778444Y-68535803D01*
X115820390Y-68523618D01*
X115837629Y-68513422D01*
X115855103Y-68504862D01*
X115873727Y-68497488D01*
X115873727Y-68497487D01*
X115873732Y-68497486D01*
X115909083Y-68471800D01*
X115918814Y-68465408D01*
X115956420Y-68443170D01*
X115970589Y-68428999D01*
X115985379Y-68416368D01*
X116001587Y-68404594D01*
X116029438Y-68370926D01*
X116037279Y-68362309D01*
X119527736Y-64871852D01*
X119589057Y-64838369D01*
X119604591Y-64836009D01*
X119615408Y-64835063D01*
X119843663Y-64773903D01*
X120057830Y-64674035D01*
X120251401Y-64538495D01*
X120418495Y-64371401D01*
X120548426Y-64185841D01*
X120603002Y-64142217D01*
X120672500Y-64135023D01*
X120734855Y-64166546D01*
X120751575Y-64185842D01*
X120881500Y-64371395D01*
X120881505Y-64371401D01*
X121048599Y-64538495D01*
X121145384Y-64606265D01*
X121242165Y-64674032D01*
X121242167Y-64674033D01*
X121242170Y-64674035D01*
X121456337Y-64773903D01*
X121456343Y-64773904D01*
X121456344Y-64773905D01*
X121511285Y-64788626D01*
X121684592Y-64835063D01*
X121861034Y-64850500D01*
X121919999Y-64855659D01*
X121920000Y-64855659D01*
X121920001Y-64855659D01*
X121959234Y-64852226D01*
X122155408Y-64835063D01*
X122383663Y-64773903D01*
X122597830Y-64674035D01*
X122791401Y-64538495D01*
X122958495Y-64371401D01*
X123088426Y-64185841D01*
X123143002Y-64142217D01*
X123212500Y-64135023D01*
X123274855Y-64166546D01*
X123291575Y-64185842D01*
X123421500Y-64371395D01*
X123421505Y-64371401D01*
X123588599Y-64538495D01*
X123685384Y-64606265D01*
X123782165Y-64674032D01*
X123782167Y-64674033D01*
X123782170Y-64674035D01*
X123996337Y-64773903D01*
X123996343Y-64773904D01*
X123996344Y-64773905D01*
X124051285Y-64788626D01*
X124224592Y-64835063D01*
X124401034Y-64850500D01*
X124459999Y-64855659D01*
X124460000Y-64855659D01*
X124460001Y-64855659D01*
X124499234Y-64852226D01*
X124695408Y-64835063D01*
X124923663Y-64773903D01*
X125137830Y-64674035D01*
X125331401Y-64538495D01*
X125498495Y-64371401D01*
X125628426Y-64185841D01*
X125683002Y-64142217D01*
X125752500Y-64135023D01*
X125814855Y-64166546D01*
X125831575Y-64185842D01*
X125961500Y-64371395D01*
X125961505Y-64371401D01*
X126128599Y-64538495D01*
X126225384Y-64606265D01*
X126322165Y-64674032D01*
X126322167Y-64674033D01*
X126322170Y-64674035D01*
X126536337Y-64773903D01*
X126536343Y-64773904D01*
X126536344Y-64773905D01*
X126591285Y-64788626D01*
X126764592Y-64835063D01*
X126941034Y-64850500D01*
X126999999Y-64855659D01*
X127000000Y-64855659D01*
X127000001Y-64855659D01*
X127039234Y-64852226D01*
X127235408Y-64835063D01*
X127463663Y-64773903D01*
X127677830Y-64674035D01*
X127871401Y-64538495D01*
X128038495Y-64371401D01*
X128168426Y-64185841D01*
X128223002Y-64142217D01*
X128292500Y-64135023D01*
X128354855Y-64166546D01*
X128371575Y-64185842D01*
X128501500Y-64371395D01*
X128501505Y-64371401D01*
X128668599Y-64538495D01*
X128765384Y-64606265D01*
X128862165Y-64674032D01*
X128862167Y-64674033D01*
X128862170Y-64674035D01*
X129076337Y-64773903D01*
X129076343Y-64773904D01*
X129076344Y-64773905D01*
X129131285Y-64788626D01*
X129304592Y-64835063D01*
X129481034Y-64850500D01*
X129539999Y-64855659D01*
X129540000Y-64855659D01*
X129540001Y-64855659D01*
X129579234Y-64852226D01*
X129775408Y-64835063D01*
X130003663Y-64773903D01*
X130217830Y-64674035D01*
X130411401Y-64538495D01*
X130578495Y-64371401D01*
X130708426Y-64185841D01*
X130763002Y-64142217D01*
X130832500Y-64135023D01*
X130894855Y-64166546D01*
X130911575Y-64185842D01*
X131041500Y-64371395D01*
X131041505Y-64371401D01*
X131208599Y-64538495D01*
X131305384Y-64606265D01*
X131402165Y-64674032D01*
X131402167Y-64674033D01*
X131402170Y-64674035D01*
X131616337Y-64773903D01*
X131616343Y-64773904D01*
X131616344Y-64773905D01*
X131671285Y-64788626D01*
X131844592Y-64835063D01*
X132021034Y-64850500D01*
X132079999Y-64855659D01*
X132080000Y-64855659D01*
X132080001Y-64855659D01*
X132119234Y-64852226D01*
X132315408Y-64835063D01*
X132543663Y-64773903D01*
X132757830Y-64674035D01*
X132951401Y-64538495D01*
X133118495Y-64371401D01*
X133248426Y-64185841D01*
X133303002Y-64142217D01*
X133372500Y-64135023D01*
X133434855Y-64166546D01*
X133451575Y-64185842D01*
X133581500Y-64371395D01*
X133581505Y-64371401D01*
X133748599Y-64538495D01*
X133845384Y-64606265D01*
X133942165Y-64674032D01*
X133942167Y-64674033D01*
X133942170Y-64674035D01*
X134156337Y-64773903D01*
X134156343Y-64773904D01*
X134156344Y-64773905D01*
X134211285Y-64788626D01*
X134384592Y-64835063D01*
X134561034Y-64850500D01*
X134619999Y-64855659D01*
X134620000Y-64855659D01*
X134620001Y-64855659D01*
X134659234Y-64852226D01*
X134855408Y-64835063D01*
X135083663Y-64773903D01*
X135297830Y-64674035D01*
X135491401Y-64538495D01*
X135658495Y-64371401D01*
X135788426Y-64185841D01*
X135843002Y-64142217D01*
X135912500Y-64135023D01*
X135974855Y-64166546D01*
X135991575Y-64185842D01*
X136121500Y-64371395D01*
X136121505Y-64371401D01*
X136288599Y-64538495D01*
X136385384Y-64606265D01*
X136482165Y-64674032D01*
X136482167Y-64674033D01*
X136482170Y-64674035D01*
X136696337Y-64773903D01*
X136696343Y-64773904D01*
X136696344Y-64773905D01*
X136751285Y-64788626D01*
X136924592Y-64835063D01*
X137101034Y-64850500D01*
X137159999Y-64855659D01*
X137160000Y-64855659D01*
X137160001Y-64855659D01*
X137199234Y-64852226D01*
X137395408Y-64835063D01*
X137623663Y-64773903D01*
X137837830Y-64674035D01*
X138031401Y-64538495D01*
X138198495Y-64371401D01*
X138328426Y-64185841D01*
X138383002Y-64142217D01*
X138452500Y-64135023D01*
X138514855Y-64166546D01*
X138531575Y-64185842D01*
X138661500Y-64371395D01*
X138661505Y-64371401D01*
X138828599Y-64538495D01*
X138925384Y-64606265D01*
X139022165Y-64674032D01*
X139022167Y-64674033D01*
X139022170Y-64674035D01*
X139236337Y-64773903D01*
X139236343Y-64773904D01*
X139236344Y-64773905D01*
X139291285Y-64788626D01*
X139464592Y-64835063D01*
X139641034Y-64850500D01*
X139699999Y-64855659D01*
X139700000Y-64855659D01*
X139700001Y-64855659D01*
X139739234Y-64852226D01*
X139935408Y-64835063D01*
X140163663Y-64773903D01*
X140377830Y-64674035D01*
X140571401Y-64538495D01*
X140738495Y-64371401D01*
X140868426Y-64185841D01*
X140923002Y-64142217D01*
X140992500Y-64135023D01*
X141054855Y-64166546D01*
X141071575Y-64185842D01*
X141201500Y-64371395D01*
X141201505Y-64371401D01*
X141368599Y-64538495D01*
X141465384Y-64606265D01*
X141562165Y-64674032D01*
X141562167Y-64674033D01*
X141562170Y-64674035D01*
X141776337Y-64773903D01*
X141776343Y-64773904D01*
X141776344Y-64773905D01*
X141831285Y-64788626D01*
X142004592Y-64835063D01*
X142181034Y-64850500D01*
X142239999Y-64855659D01*
X142240000Y-64855659D01*
X142240001Y-64855659D01*
X142279234Y-64852226D01*
X142475408Y-64835063D01*
X142703663Y-64773903D01*
X142917830Y-64674035D01*
X143111401Y-64538495D01*
X143278495Y-64371401D01*
X143408426Y-64185841D01*
X143463002Y-64142217D01*
X143532500Y-64135023D01*
X143594855Y-64166546D01*
X143611575Y-64185842D01*
X143741500Y-64371395D01*
X143741505Y-64371401D01*
X143908599Y-64538495D01*
X144005384Y-64606265D01*
X144102165Y-64674032D01*
X144102167Y-64674033D01*
X144102170Y-64674035D01*
X144316337Y-64773903D01*
X144316343Y-64773904D01*
X144316344Y-64773905D01*
X144371285Y-64788626D01*
X144544592Y-64835063D01*
X144721034Y-64850500D01*
X144779999Y-64855659D01*
X144780000Y-64855659D01*
X144780001Y-64855659D01*
X144819234Y-64852226D01*
X145015408Y-64835063D01*
X145243663Y-64773903D01*
X145457830Y-64674035D01*
X145651401Y-64538495D01*
X145818495Y-64371401D01*
X145948426Y-64185841D01*
X146003002Y-64142217D01*
X146072500Y-64135023D01*
X146134855Y-64166546D01*
X146151575Y-64185842D01*
X146281500Y-64371395D01*
X146281505Y-64371401D01*
X146448599Y-64538495D01*
X146545384Y-64606265D01*
X146642165Y-64674032D01*
X146642167Y-64674033D01*
X146642170Y-64674035D01*
X146856337Y-64773903D01*
X146856343Y-64773904D01*
X146856344Y-64773905D01*
X146911285Y-64788626D01*
X147084592Y-64835063D01*
X147261034Y-64850500D01*
X147319999Y-64855659D01*
X147320000Y-64855659D01*
X147320001Y-64855659D01*
X147359234Y-64852226D01*
X147555408Y-64835063D01*
X147783663Y-64773903D01*
X147997830Y-64674035D01*
X148191401Y-64538495D01*
X148358495Y-64371401D01*
X148488426Y-64185841D01*
X148543002Y-64142217D01*
X148612500Y-64135023D01*
X148674855Y-64166546D01*
X148691575Y-64185842D01*
X148821500Y-64371395D01*
X148821505Y-64371401D01*
X148988599Y-64538495D01*
X149085384Y-64606265D01*
X149182165Y-64674032D01*
X149182167Y-64674033D01*
X149182170Y-64674035D01*
X149396337Y-64773903D01*
X149396343Y-64773904D01*
X149396344Y-64773905D01*
X149451285Y-64788626D01*
X149624592Y-64835063D01*
X149801034Y-64850500D01*
X149859999Y-64855659D01*
X149860000Y-64855659D01*
X149860001Y-64855659D01*
X149899234Y-64852226D01*
X150095408Y-64835063D01*
X150323663Y-64773903D01*
X150537830Y-64674035D01*
X150731401Y-64538495D01*
X150898495Y-64371401D01*
X151034035Y-64177830D01*
X151133903Y-63963663D01*
X151195063Y-63735408D01*
X151215659Y-63500000D01*
X151195063Y-63264592D01*
X151133903Y-63036337D01*
X151034035Y-62822171D01*
X151028425Y-62814158D01*
X150898494Y-62628597D01*
X150731402Y-62461506D01*
X150731396Y-62461501D01*
X150545842Y-62331575D01*
X150502217Y-62276998D01*
X150495023Y-62207500D01*
X150526546Y-62145145D01*
X150545842Y-62128425D01*
X150662006Y-62047086D01*
X150731401Y-61998495D01*
X150898495Y-61831401D01*
X151034035Y-61637830D01*
X151133903Y-61423663D01*
X151195063Y-61195408D01*
X151215659Y-60960000D01*
X151195063Y-60724592D01*
X151133903Y-60496337D01*
X151034035Y-60282171D01*
X151028731Y-60274595D01*
X150898494Y-60088597D01*
X150731402Y-59921506D01*
X150731401Y-59921505D01*
X150598093Y-59828161D01*
X150538376Y-59786347D01*
X150494751Y-59731770D01*
X150485500Y-59684772D01*
X150485500Y-55962737D01*
X150487224Y-55947123D01*
X150486938Y-55947096D01*
X150487672Y-55939333D01*
X150485561Y-55872144D01*
X150485500Y-55868250D01*
X150485500Y-55840651D01*
X150485500Y-55840650D01*
X150484997Y-55836670D01*
X150484080Y-55825021D01*
X150482709Y-55781373D01*
X150477122Y-55762144D01*
X150473174Y-55743084D01*
X150470664Y-55723208D01*
X150454585Y-55682597D01*
X150450804Y-55671552D01*
X150438619Y-55629612D01*
X150428418Y-55612363D01*
X150419860Y-55594894D01*
X150412486Y-55576268D01*
X150412483Y-55576264D01*
X150412483Y-55576263D01*
X150386816Y-55540935D01*
X150380403Y-55531172D01*
X150358172Y-55493583D01*
X150358170Y-55493579D01*
X150358166Y-55493575D01*
X150358163Y-55493571D01*
X150344005Y-55479413D01*
X150331370Y-55464620D01*
X150319593Y-55448412D01*
X150285945Y-55420576D01*
X150277304Y-55412713D01*
X149251819Y-54387228D01*
X149218334Y-54325905D01*
X149215500Y-54299547D01*
X149215500Y-52183665D01*
X149235185Y-52116626D01*
X149287989Y-52070871D01*
X149357147Y-52060927D01*
X149391914Y-52071287D01*
X149396513Y-52073432D01*
X149396516Y-52073433D01*
X149610000Y-52130634D01*
X149610000Y-51235501D01*
X149717685Y-51284680D01*
X149824237Y-51300000D01*
X149895763Y-51300000D01*
X150002315Y-51284680D01*
X150110000Y-51235501D01*
X150110000Y-52130633D01*
X150323483Y-52073433D01*
X150323492Y-52073429D01*
X150537578Y-51973600D01*
X150731082Y-51838105D01*
X150898105Y-51671082D01*
X151033600Y-51477578D01*
X151133429Y-51263492D01*
X151133432Y-51263486D01*
X151190636Y-51050000D01*
X150293686Y-51050000D01*
X150319493Y-51009844D01*
X150360000Y-50871889D01*
X150360000Y-50728111D01*
X150319493Y-50590156D01*
X150293686Y-50550000D01*
X151190636Y-50550000D01*
X151190635Y-50549999D01*
X151133432Y-50336513D01*
X151133429Y-50336507D01*
X151033600Y-50122422D01*
X151033599Y-50122420D01*
X150898113Y-49928926D01*
X150898108Y-49928920D01*
X150731078Y-49761890D01*
X150577474Y-49654334D01*
X153439500Y-49654334D01*
X153480429Y-49899616D01*
X153561169Y-50134802D01*
X153561172Y-50134811D01*
X153650568Y-50300000D01*
X153679526Y-50353509D01*
X153832262Y-50549744D01*
X153967240Y-50674000D01*
X154015217Y-50718166D01*
X154223393Y-50854173D01*
X154451118Y-50954063D01*
X154671392Y-51009844D01*
X154692179Y-51015108D01*
X154692181Y-51015108D01*
X154692186Y-51015109D01*
X154845589Y-51027819D01*
X154877933Y-51030500D01*
X154877937Y-51030500D01*
X155002063Y-51030500D01*
X155002067Y-51030500D01*
X155064677Y-51025311D01*
X155187813Y-51015109D01*
X155187816Y-51015108D01*
X155187821Y-51015108D01*
X155428881Y-50954063D01*
X155656607Y-50854173D01*
X155864785Y-50718164D01*
X156047738Y-50549744D01*
X156200474Y-50353509D01*
X156318828Y-50134810D01*
X156399571Y-49899614D01*
X156440500Y-49654335D01*
X156440500Y-49405665D01*
X156399571Y-49160386D01*
X156397785Y-49155185D01*
X156386568Y-49122511D01*
X156318828Y-48925190D01*
X156302266Y-48894587D01*
X156221141Y-48744680D01*
X156200474Y-48706491D01*
X156047738Y-48510256D01*
X155864785Y-48341836D01*
X155864782Y-48341833D01*
X155656606Y-48205826D01*
X155428881Y-48105936D01*
X155187824Y-48044892D01*
X155187813Y-48044890D01*
X155002077Y-48029500D01*
X155002067Y-48029500D01*
X154877933Y-48029500D01*
X154877922Y-48029500D01*
X154692186Y-48044890D01*
X154692175Y-48044892D01*
X154451118Y-48105936D01*
X154223393Y-48205826D01*
X154015217Y-48341833D01*
X153832261Y-48510257D01*
X153679524Y-48706493D01*
X153561172Y-48925188D01*
X153561169Y-48925197D01*
X153480429Y-49160383D01*
X153439500Y-49405665D01*
X153439500Y-49654334D01*
X150577474Y-49654334D01*
X150545405Y-49631879D01*
X150501780Y-49577302D01*
X150494588Y-49507804D01*
X150526110Y-49445449D01*
X150545406Y-49428730D01*
X150546279Y-49428119D01*
X150731401Y-49298495D01*
X150898495Y-49131401D01*
X151034035Y-48937830D01*
X151133903Y-48723663D01*
X151195063Y-48495408D01*
X151215659Y-48260000D01*
X151195063Y-48024592D01*
X151133903Y-47796337D01*
X151034035Y-47582171D01*
X151028731Y-47574595D01*
X150898494Y-47388597D01*
X150731402Y-47221506D01*
X150731395Y-47221501D01*
X150537834Y-47085967D01*
X150537830Y-47085965D01*
X150537828Y-47085964D01*
X150323663Y-46986097D01*
X150323659Y-46986096D01*
X150323655Y-46986094D01*
X150095413Y-46924938D01*
X150095403Y-46924936D01*
X149860001Y-46904341D01*
X149859999Y-46904341D01*
X149624596Y-46924936D01*
X149624586Y-46924938D01*
X149396344Y-46986094D01*
X149396335Y-46986098D01*
X149182171Y-47085964D01*
X149182169Y-47085965D01*
X148988597Y-47221505D01*
X148821505Y-47388597D01*
X148691575Y-47574158D01*
X148636998Y-47617783D01*
X148567500Y-47624977D01*
X148505145Y-47593454D01*
X148488425Y-47574158D01*
X148358494Y-47388597D01*
X148191402Y-47221506D01*
X148191395Y-47221501D01*
X147997834Y-47085967D01*
X147997830Y-47085965D01*
X147997828Y-47085964D01*
X147783663Y-46986097D01*
X147783659Y-46986096D01*
X147783655Y-46986094D01*
X147555413Y-46924938D01*
X147555403Y-46924936D01*
X147320001Y-46904341D01*
X147319999Y-46904341D01*
X147084596Y-46924936D01*
X147084586Y-46924938D01*
X146856344Y-46986094D01*
X146856335Y-46986098D01*
X146642171Y-47085964D01*
X146642169Y-47085965D01*
X146448597Y-47221505D01*
X146281505Y-47388597D01*
X146151575Y-47574158D01*
X146096998Y-47617783D01*
X146027500Y-47624977D01*
X145965145Y-47593454D01*
X145948425Y-47574158D01*
X145818494Y-47388597D01*
X145651402Y-47221506D01*
X145651395Y-47221501D01*
X145457834Y-47085967D01*
X145457830Y-47085965D01*
X145457828Y-47085964D01*
X145243663Y-46986097D01*
X145243659Y-46986096D01*
X145243655Y-46986094D01*
X145015413Y-46924938D01*
X145015403Y-46924936D01*
X144780001Y-46904341D01*
X144779999Y-46904341D01*
X144544596Y-46924936D01*
X144544586Y-46924938D01*
X144316344Y-46986094D01*
X144316335Y-46986098D01*
X144102171Y-47085964D01*
X144102169Y-47085965D01*
X143908597Y-47221505D01*
X143741508Y-47388594D01*
X143611269Y-47574595D01*
X143556692Y-47618219D01*
X143487193Y-47625412D01*
X143424839Y-47593890D01*
X143408119Y-47574594D01*
X143278113Y-47388926D01*
X143278108Y-47388920D01*
X143111082Y-47221894D01*
X142917578Y-47086399D01*
X142703492Y-46986570D01*
X142703486Y-46986567D01*
X142490000Y-46929364D01*
X142490000Y-47824498D01*
X142382315Y-47775320D01*
X142275763Y-47760000D01*
X142204237Y-47760000D01*
X142097685Y-47775320D01*
X141990000Y-47824498D01*
X141990000Y-46929364D01*
X141989999Y-46929364D01*
X141776513Y-46986567D01*
X141776507Y-46986570D01*
X141562422Y-47086399D01*
X141562420Y-47086400D01*
X141368926Y-47221886D01*
X141368920Y-47221891D01*
X141201891Y-47388920D01*
X141201890Y-47388922D01*
X141071880Y-47574595D01*
X141017303Y-47618219D01*
X140947804Y-47625412D01*
X140885450Y-47593890D01*
X140868730Y-47574594D01*
X140738494Y-47388597D01*
X140571402Y-47221506D01*
X140571395Y-47221501D01*
X140377834Y-47085967D01*
X140377830Y-47085965D01*
X140377828Y-47085964D01*
X140163663Y-46986097D01*
X140163659Y-46986096D01*
X140163655Y-46986094D01*
X139935413Y-46924938D01*
X139935403Y-46924936D01*
X139700001Y-46904341D01*
X139699999Y-46904341D01*
X139464596Y-46924936D01*
X139464586Y-46924938D01*
X139236344Y-46986094D01*
X139236335Y-46986098D01*
X139022171Y-47085964D01*
X139022169Y-47085965D01*
X138828597Y-47221505D01*
X138661508Y-47388594D01*
X138531269Y-47574595D01*
X138476692Y-47618219D01*
X138407193Y-47625412D01*
X138344839Y-47593890D01*
X138328119Y-47574594D01*
X138198113Y-47388926D01*
X138198108Y-47388920D01*
X138031082Y-47221894D01*
X137837578Y-47086399D01*
X137623492Y-46986570D01*
X137623486Y-46986567D01*
X137410000Y-46929364D01*
X137410000Y-47824498D01*
X137302315Y-47775320D01*
X137195763Y-47760000D01*
X137124237Y-47760000D01*
X137017685Y-47775320D01*
X136910000Y-47824498D01*
X136910000Y-46929364D01*
X136909999Y-46929364D01*
X136696513Y-46986567D01*
X136696507Y-46986570D01*
X136482422Y-47086399D01*
X136482420Y-47086400D01*
X136288926Y-47221886D01*
X136288920Y-47221891D01*
X136121891Y-47388920D01*
X136121890Y-47388922D01*
X135991880Y-47574595D01*
X135937303Y-47618219D01*
X135867804Y-47625412D01*
X135805450Y-47593890D01*
X135788730Y-47574594D01*
X135658494Y-47388597D01*
X135491402Y-47221506D01*
X135491395Y-47221501D01*
X135297834Y-47085967D01*
X135297830Y-47085965D01*
X135297828Y-47085964D01*
X135083663Y-46986097D01*
X135083659Y-46986096D01*
X135083655Y-46986094D01*
X134855413Y-46924938D01*
X134855403Y-46924936D01*
X134620001Y-46904341D01*
X134619999Y-46904341D01*
X134384596Y-46924936D01*
X134384586Y-46924938D01*
X134156344Y-46986094D01*
X134156335Y-46986098D01*
X133942171Y-47085964D01*
X133942169Y-47085965D01*
X133748597Y-47221505D01*
X133581505Y-47388597D01*
X133451575Y-47574158D01*
X133396998Y-47617783D01*
X133327500Y-47624977D01*
X133265145Y-47593454D01*
X133248425Y-47574158D01*
X133118494Y-47388597D01*
X132951402Y-47221506D01*
X132951395Y-47221501D01*
X132757834Y-47085967D01*
X132757830Y-47085965D01*
X132757828Y-47085964D01*
X132543663Y-46986097D01*
X132543659Y-46986096D01*
X132543655Y-46986094D01*
X132315413Y-46924938D01*
X132315403Y-46924936D01*
X132080001Y-46904341D01*
X132079999Y-46904341D01*
X131844596Y-46924936D01*
X131844586Y-46924938D01*
X131616344Y-46986094D01*
X131616335Y-46986098D01*
X131402171Y-47085964D01*
X131402169Y-47085965D01*
X131208597Y-47221505D01*
X131041505Y-47388597D01*
X130911575Y-47574158D01*
X130856998Y-47617783D01*
X130787500Y-47624977D01*
X130725145Y-47593454D01*
X130708425Y-47574158D01*
X130578494Y-47388597D01*
X130411402Y-47221506D01*
X130411395Y-47221501D01*
X130217834Y-47085967D01*
X130217830Y-47085965D01*
X130217828Y-47085964D01*
X130003663Y-46986097D01*
X130003659Y-46986096D01*
X130003655Y-46986094D01*
X129775413Y-46924938D01*
X129775403Y-46924936D01*
X129540001Y-46904341D01*
X129539999Y-46904341D01*
X129304596Y-46924936D01*
X129304586Y-46924938D01*
X129076344Y-46986094D01*
X129076335Y-46986098D01*
X128862171Y-47085964D01*
X128862169Y-47085965D01*
X128668597Y-47221505D01*
X128501505Y-47388597D01*
X128371575Y-47574158D01*
X128316998Y-47617783D01*
X128247500Y-47624977D01*
X128185145Y-47593454D01*
X128168425Y-47574158D01*
X128038494Y-47388597D01*
X127871402Y-47221506D01*
X127871395Y-47221501D01*
X127677834Y-47085967D01*
X127677830Y-47085965D01*
X127677828Y-47085964D01*
X127463663Y-46986097D01*
X127463659Y-46986096D01*
X127463655Y-46986094D01*
X127235413Y-46924938D01*
X127235403Y-46924936D01*
X127000001Y-46904341D01*
X126999999Y-46904341D01*
X126764596Y-46924936D01*
X126764586Y-46924938D01*
X126536344Y-46986094D01*
X126536335Y-46986098D01*
X126322171Y-47085964D01*
X126322169Y-47085965D01*
X126128597Y-47221505D01*
X125961508Y-47388594D01*
X125831269Y-47574595D01*
X125776692Y-47618219D01*
X125707193Y-47625412D01*
X125644839Y-47593890D01*
X125628119Y-47574594D01*
X125498113Y-47388926D01*
X125498108Y-47388920D01*
X125331082Y-47221894D01*
X125137578Y-47086399D01*
X124923492Y-46986570D01*
X124923486Y-46986567D01*
X124710000Y-46929364D01*
X124710000Y-47824498D01*
X124602315Y-47775320D01*
X124495763Y-47760000D01*
X124424237Y-47760000D01*
X124317685Y-47775320D01*
X124210000Y-47824498D01*
X124210000Y-46929364D01*
X124209999Y-46929364D01*
X123996513Y-46986567D01*
X123996507Y-46986570D01*
X123782422Y-47086399D01*
X123782420Y-47086400D01*
X123588926Y-47221886D01*
X123588920Y-47221891D01*
X123421891Y-47388920D01*
X123421890Y-47388922D01*
X123291880Y-47574595D01*
X123237303Y-47618219D01*
X123167804Y-47625412D01*
X123105450Y-47593890D01*
X123088730Y-47574594D01*
X122958494Y-47388597D01*
X122791402Y-47221506D01*
X122791395Y-47221501D01*
X122597834Y-47085967D01*
X122597830Y-47085965D01*
X122597828Y-47085964D01*
X122383663Y-46986097D01*
X122383659Y-46986096D01*
X122383655Y-46986094D01*
X122155413Y-46924938D01*
X122155403Y-46924936D01*
X121920001Y-46904341D01*
X121919999Y-46904341D01*
X121684596Y-46924936D01*
X121684586Y-46924938D01*
X121456344Y-46986094D01*
X121456335Y-46986098D01*
X121242171Y-47085964D01*
X121242169Y-47085965D01*
X121048597Y-47221505D01*
X120881505Y-47388597D01*
X120751575Y-47574158D01*
X120696998Y-47617783D01*
X120627500Y-47624977D01*
X120565145Y-47593454D01*
X120548425Y-47574158D01*
X120418494Y-47388597D01*
X120251402Y-47221506D01*
X120251395Y-47221501D01*
X120057834Y-47085967D01*
X120057830Y-47085965D01*
X120057828Y-47085964D01*
X119843663Y-46986097D01*
X119843659Y-46986096D01*
X119843655Y-46986094D01*
X119615413Y-46924938D01*
X119615403Y-46924936D01*
X119380001Y-46904341D01*
X119379999Y-46904341D01*
X119144596Y-46924936D01*
X119144586Y-46924938D01*
X118916344Y-46986094D01*
X118916335Y-46986098D01*
X118702171Y-47085964D01*
X118702169Y-47085965D01*
X118508597Y-47221505D01*
X118341508Y-47388594D01*
X118211269Y-47574595D01*
X118156692Y-47618219D01*
X118087193Y-47625412D01*
X118024839Y-47593890D01*
X118008119Y-47574594D01*
X117878113Y-47388926D01*
X117878108Y-47388920D01*
X117711082Y-47221894D01*
X117517578Y-47086399D01*
X117303492Y-46986570D01*
X117303486Y-46986567D01*
X117090000Y-46929364D01*
X117090000Y-47824498D01*
X116982315Y-47775320D01*
X116875763Y-47760000D01*
X116804237Y-47760000D01*
X116697685Y-47775320D01*
X116590000Y-47824498D01*
X116590000Y-46929364D01*
X116589999Y-46929364D01*
X116376513Y-46986567D01*
X116376507Y-46986570D01*
X116162422Y-47086399D01*
X116162420Y-47086400D01*
X115968926Y-47221886D01*
X115968920Y-47221891D01*
X115801891Y-47388920D01*
X115801890Y-47388922D01*
X115671880Y-47574595D01*
X115617303Y-47618219D01*
X115547804Y-47625412D01*
X115485450Y-47593890D01*
X115468730Y-47574594D01*
X115338494Y-47388597D01*
X115171402Y-47221506D01*
X115171395Y-47221501D01*
X114977834Y-47085967D01*
X114977830Y-47085965D01*
X114977828Y-47085964D01*
X114763663Y-46986097D01*
X114763659Y-46986096D01*
X114763655Y-46986094D01*
X114535413Y-46924938D01*
X114535403Y-46924936D01*
X114300001Y-46904341D01*
X114299999Y-46904341D01*
X114064596Y-46924936D01*
X114064586Y-46924938D01*
X113836344Y-46986094D01*
X113836335Y-46986098D01*
X113622171Y-47085964D01*
X113622169Y-47085965D01*
X113428597Y-47221505D01*
X113261505Y-47388597D01*
X113131575Y-47574158D01*
X113076998Y-47617783D01*
X113007500Y-47624977D01*
X112945145Y-47593454D01*
X112928425Y-47574158D01*
X112798494Y-47388597D01*
X112631402Y-47221506D01*
X112631395Y-47221501D01*
X112437834Y-47085967D01*
X112437830Y-47085965D01*
X112437828Y-47085964D01*
X112223663Y-46986097D01*
X112223659Y-46986096D01*
X112223655Y-46986094D01*
X111995413Y-46924938D01*
X111995403Y-46924936D01*
X111760001Y-46904341D01*
X111759999Y-46904341D01*
X111524596Y-46924936D01*
X111524586Y-46924938D01*
X111296344Y-46986094D01*
X111296335Y-46986098D01*
X111082171Y-47085964D01*
X111082169Y-47085965D01*
X110888597Y-47221505D01*
X110721505Y-47388597D01*
X110591575Y-47574158D01*
X110536998Y-47617783D01*
X110467500Y-47624977D01*
X110405145Y-47593454D01*
X110388425Y-47574158D01*
X110258494Y-47388597D01*
X110091402Y-47221506D01*
X110091395Y-47221501D01*
X109897834Y-47085967D01*
X109897830Y-47085965D01*
X109897828Y-47085964D01*
X109683663Y-46986097D01*
X109683659Y-46986096D01*
X109683655Y-46986094D01*
X109455413Y-46924938D01*
X109455403Y-46924936D01*
X109220001Y-46904341D01*
X109219999Y-46904341D01*
X108984596Y-46924936D01*
X108984586Y-46924938D01*
X108756344Y-46986094D01*
X108756335Y-46986098D01*
X108542171Y-47085964D01*
X108542169Y-47085965D01*
X108348597Y-47221505D01*
X108181508Y-47388594D01*
X108051269Y-47574595D01*
X107996692Y-47618219D01*
X107927193Y-47625412D01*
X107864839Y-47593890D01*
X107848119Y-47574594D01*
X107718113Y-47388926D01*
X107718108Y-47388920D01*
X107551082Y-47221894D01*
X107357578Y-47086399D01*
X107143492Y-46986570D01*
X107143486Y-46986567D01*
X106930000Y-46929364D01*
X106930000Y-47824498D01*
X106822315Y-47775320D01*
X106715763Y-47760000D01*
X106644237Y-47760000D01*
X106537685Y-47775320D01*
X106430000Y-47824498D01*
X106430000Y-46929364D01*
X106429999Y-46929364D01*
X106216513Y-46986567D01*
X106216507Y-46986570D01*
X106002422Y-47086399D01*
X106002420Y-47086400D01*
X105808926Y-47221886D01*
X105808920Y-47221891D01*
X105641891Y-47388920D01*
X105641890Y-47388922D01*
X105511880Y-47574595D01*
X105457303Y-47618219D01*
X105387804Y-47625412D01*
X105325450Y-47593890D01*
X105308730Y-47574594D01*
X105178494Y-47388597D01*
X105011402Y-47221506D01*
X105011395Y-47221501D01*
X104817834Y-47085967D01*
X104817830Y-47085965D01*
X104817828Y-47085964D01*
X104603663Y-46986097D01*
X104603659Y-46986096D01*
X104603655Y-46986094D01*
X104375413Y-46924938D01*
X104375403Y-46924936D01*
X104140001Y-46904341D01*
X104139999Y-46904341D01*
X103904596Y-46924936D01*
X103904586Y-46924938D01*
X103676344Y-46986094D01*
X103676335Y-46986098D01*
X103462171Y-47085964D01*
X103462169Y-47085965D01*
X103268600Y-47221503D01*
X103205262Y-47284842D01*
X103141921Y-47348182D01*
X103080601Y-47381666D01*
X103054242Y-47384500D01*
X102685758Y-47384500D01*
X102618719Y-47364815D01*
X102598077Y-47348181D01*
X102471402Y-47221506D01*
X102471395Y-47221501D01*
X102277834Y-47085967D01*
X102277830Y-47085965D01*
X102277828Y-47085964D01*
X102063663Y-46986097D01*
X102063659Y-46986096D01*
X102063655Y-46986094D01*
X101835413Y-46924938D01*
X101835403Y-46924936D01*
X101600001Y-46904341D01*
X101599999Y-46904341D01*
X101364596Y-46924936D01*
X101364586Y-46924938D01*
X101136344Y-46986094D01*
X101136335Y-46986098D01*
X100922171Y-47085964D01*
X100922169Y-47085965D01*
X100728597Y-47221505D01*
X100561505Y-47388597D01*
X100425965Y-47582169D01*
X100425964Y-47582171D01*
X100326098Y-47796335D01*
X100326094Y-47796344D01*
X100264938Y-48024586D01*
X100264936Y-48024596D01*
X100244341Y-48259999D01*
X100244341Y-48260000D01*
X100264936Y-48495403D01*
X100264938Y-48495413D01*
X100326094Y-48723655D01*
X100326096Y-48723659D01*
X100326097Y-48723663D01*
X100405801Y-48894588D01*
X100425965Y-48937830D01*
X100425967Y-48937834D01*
X100534281Y-49092521D01*
X100561504Y-49131400D01*
X100561506Y-49131402D01*
X100683430Y-49253326D01*
X100716915Y-49314649D01*
X100711931Y-49384341D01*
X100670059Y-49440274D01*
X100639083Y-49457189D01*
X100507669Y-49506203D01*
X100507664Y-49506206D01*
X100392455Y-49592452D01*
X100392452Y-49592455D01*
X100306206Y-49707664D01*
X100306202Y-49707671D01*
X100255908Y-49842517D01*
X100249501Y-49902116D01*
X100249500Y-49902135D01*
X100249500Y-51697870D01*
X100249501Y-51697876D01*
X100255908Y-51757483D01*
X100306202Y-51892328D01*
X100306206Y-51892335D01*
X100392452Y-52007544D01*
X100392455Y-52007547D01*
X100507664Y-52093793D01*
X100507671Y-52093797D01*
X100643833Y-52144582D01*
X100699767Y-52186453D01*
X100724184Y-52251917D01*
X100724500Y-52260764D01*
X100724500Y-52664378D01*
X100724091Y-52674442D01*
X100719660Y-52728845D01*
X100730688Y-52809790D01*
X100731096Y-52813120D01*
X100739927Y-52894316D01*
X100739929Y-52894327D01*
X100739990Y-52894506D01*
X100745340Y-52917331D01*
X100745366Y-52917525D01*
X100745369Y-52917537D01*
X100773540Y-52994219D01*
X100774655Y-52997385D01*
X100800731Y-53074776D01*
X100800734Y-53074782D01*
X100800832Y-53074945D01*
X100810969Y-53096099D01*
X100811036Y-53096283D01*
X100811040Y-53096290D01*
X100855046Y-53165139D01*
X100856809Y-53167981D01*
X100885138Y-53215064D01*
X100898912Y-53237955D01*
X100899042Y-53238092D01*
X100913492Y-53256575D01*
X100913600Y-53256744D01*
X100971395Y-53314539D01*
X100973702Y-53316910D01*
X101029866Y-53376203D01*
X101029868Y-53376204D01*
X101029871Y-53376207D01*
X101030028Y-53376314D01*
X101048121Y-53391265D01*
X105397199Y-57740343D01*
X105404026Y-57747749D01*
X105439361Y-57789350D01*
X105439368Y-57789355D01*
X105439369Y-57789357D01*
X105504428Y-57838813D01*
X105507012Y-57840832D01*
X105523460Y-57854054D01*
X105570702Y-57892030D01*
X105570872Y-57892114D01*
X105590814Y-57904483D01*
X105590971Y-57904602D01*
X105665143Y-57938917D01*
X105668120Y-57940344D01*
X105741307Y-57976641D01*
X105741483Y-57976684D01*
X105763626Y-57984480D01*
X105763803Y-57984562D01*
X105763806Y-57984563D01*
X105817112Y-57996296D01*
X105843573Y-58002120D01*
X105846822Y-58002881D01*
X105926110Y-58022600D01*
X105926283Y-58022604D01*
X105949602Y-58025460D01*
X105949784Y-58025500D01*
X106031462Y-58025500D01*
X106034820Y-58025545D01*
X106116473Y-58027757D01*
X106116655Y-58027721D01*
X106140023Y-58025500D01*
X107724706Y-58025500D01*
X107750486Y-58028209D01*
X107855354Y-58050500D01*
X107855355Y-58050500D01*
X108044644Y-58050500D01*
X108044646Y-58050500D01*
X108229803Y-58011144D01*
X108402730Y-57934151D01*
X108555871Y-57822888D01*
X108682533Y-57682216D01*
X108777179Y-57518284D01*
X108835674Y-57338256D01*
X108855460Y-57150000D01*
X108835674Y-56961744D01*
X108777179Y-56781716D01*
X108682533Y-56617784D01*
X108555871Y-56477112D01*
X108555870Y-56477111D01*
X108402734Y-56365851D01*
X108402729Y-56365848D01*
X108229807Y-56288857D01*
X108229802Y-56288855D01*
X108084001Y-56257865D01*
X108044646Y-56249500D01*
X107855354Y-56249500D01*
X107750487Y-56271790D01*
X107724706Y-56274500D01*
X106459006Y-56274500D01*
X106391967Y-56254815D01*
X106371325Y-56238181D01*
X102511819Y-52378675D01*
X102478334Y-52317352D01*
X102475500Y-52290994D01*
X102475500Y-52260764D01*
X102495185Y-52193725D01*
X102547989Y-52147970D01*
X102556167Y-52144582D01*
X102650610Y-52109357D01*
X102692331Y-52093796D01*
X102807546Y-52007546D01*
X102893796Y-51892331D01*
X102942810Y-51760916D01*
X102984681Y-51704984D01*
X103050145Y-51680566D01*
X103118418Y-51695417D01*
X103146673Y-51716569D01*
X103268599Y-51838495D01*
X103458658Y-51971576D01*
X103461412Y-51973504D01*
X103505037Y-52028081D01*
X103514227Y-52071169D01*
X103514438Y-52077857D01*
X103514500Y-52081767D01*
X103514500Y-52109357D01*
X103515003Y-52113335D01*
X103515918Y-52124967D01*
X103517290Y-52168624D01*
X103517291Y-52168627D01*
X103522880Y-52187867D01*
X103526824Y-52206911D01*
X103529088Y-52224830D01*
X103529336Y-52226792D01*
X103545414Y-52267403D01*
X103549197Y-52278452D01*
X103561381Y-52320388D01*
X103571580Y-52337634D01*
X103580138Y-52355103D01*
X103587514Y-52373732D01*
X103613181Y-52409060D01*
X103619593Y-52418821D01*
X103641828Y-52456417D01*
X103641833Y-52456424D01*
X103655990Y-52470580D01*
X103668628Y-52485376D01*
X103680405Y-52501586D01*
X103680406Y-52501587D01*
X103714057Y-52529425D01*
X103722698Y-52537288D01*
X104274194Y-53088784D01*
X104284019Y-53101048D01*
X104284240Y-53100866D01*
X104289210Y-53106874D01*
X104338239Y-53152915D01*
X104341036Y-53155626D01*
X104360530Y-53175120D01*
X104363695Y-53177575D01*
X104372571Y-53185156D01*
X104404418Y-53215062D01*
X104404422Y-53215064D01*
X104421973Y-53224713D01*
X104438231Y-53235392D01*
X104454064Y-53247674D01*
X104476206Y-53257255D01*
X104494155Y-53265022D01*
X104504635Y-53270155D01*
X104542908Y-53291197D01*
X104562312Y-53296179D01*
X104580710Y-53302478D01*
X104599105Y-53310438D01*
X104642254Y-53317271D01*
X104653680Y-53319638D01*
X104695981Y-53330500D01*
X104716016Y-53330500D01*
X104735413Y-53332026D01*
X104755196Y-53335160D01*
X104798675Y-53331050D01*
X104810344Y-53330500D01*
X107004548Y-53330500D01*
X107071587Y-53350185D01*
X107092229Y-53366819D01*
X111098181Y-57372771D01*
X111131666Y-57434094D01*
X111134500Y-57460452D01*
X111134500Y-59684773D01*
X111114815Y-59751812D01*
X111081623Y-59786348D01*
X110888597Y-59921505D01*
X110721505Y-60088597D01*
X110591575Y-60274158D01*
X110536998Y-60317783D01*
X110467500Y-60324977D01*
X110405145Y-60293454D01*
X110388425Y-60274158D01*
X110258494Y-60088597D01*
X110091402Y-59921506D01*
X110091395Y-59921501D01*
X109897834Y-59785967D01*
X109897830Y-59785965D01*
X109840119Y-59759054D01*
X109683663Y-59686097D01*
X109683659Y-59686096D01*
X109683655Y-59686094D01*
X109455413Y-59624938D01*
X109455403Y-59624936D01*
X109220001Y-59604341D01*
X109219999Y-59604341D01*
X108984596Y-59624936D01*
X108984586Y-59624938D01*
X108756344Y-59686094D01*
X108756335Y-59686098D01*
X108542171Y-59785964D01*
X108542169Y-59785965D01*
X108348597Y-59921505D01*
X108181505Y-60088597D01*
X108051575Y-60274158D01*
X107996998Y-60317783D01*
X107927500Y-60324977D01*
X107865145Y-60293454D01*
X107848425Y-60274158D01*
X107718494Y-60088597D01*
X107551402Y-59921506D01*
X107551395Y-59921501D01*
X107357834Y-59785967D01*
X107357830Y-59785965D01*
X107300119Y-59759054D01*
X107143663Y-59686097D01*
X107143659Y-59686096D01*
X107143655Y-59686094D01*
X106915413Y-59624938D01*
X106915403Y-59624936D01*
X106680001Y-59604341D01*
X106679999Y-59604341D01*
X106444596Y-59624936D01*
X106444586Y-59624938D01*
X106216344Y-59686094D01*
X106216335Y-59686098D01*
X106002171Y-59785964D01*
X106002169Y-59785965D01*
X105808597Y-59921505D01*
X105641508Y-60088594D01*
X105511269Y-60274595D01*
X105456692Y-60318219D01*
X105387193Y-60325412D01*
X105324839Y-60293890D01*
X105308119Y-60274594D01*
X105178113Y-60088926D01*
X105178108Y-60088920D01*
X105011082Y-59921894D01*
X104817578Y-59786399D01*
X104603492Y-59686570D01*
X104603486Y-59686567D01*
X104390000Y-59629364D01*
X104390000Y-60524498D01*
X104282315Y-60475320D01*
X104175763Y-60460000D01*
X104104237Y-60460000D01*
X103997685Y-60475320D01*
X103890000Y-60524498D01*
X103890000Y-59629364D01*
X103889999Y-59629364D01*
X103676513Y-59686567D01*
X103676507Y-59686570D01*
X103462422Y-59786399D01*
X103462420Y-59786400D01*
X103268926Y-59921886D01*
X103268920Y-59921891D01*
X103101891Y-60088920D01*
X103101890Y-60088922D01*
X102971880Y-60274595D01*
X102917303Y-60318219D01*
X102847804Y-60325412D01*
X102785450Y-60293890D01*
X102768730Y-60274594D01*
X102638494Y-60088597D01*
X102471402Y-59921506D01*
X102471395Y-59921501D01*
X102277834Y-59785967D01*
X102277830Y-59785965D01*
X102220119Y-59759054D01*
X102063663Y-59686097D01*
X102063659Y-59686096D01*
X102063655Y-59686094D01*
X101835413Y-59624938D01*
X101835403Y-59624936D01*
X101600001Y-59604341D01*
X101599999Y-59604341D01*
X101364596Y-59624936D01*
X101364586Y-59624938D01*
X101136344Y-59686094D01*
X101136335Y-59686098D01*
X100922171Y-59785964D01*
X100922169Y-59785965D01*
X100728597Y-59921505D01*
X100561505Y-60088597D01*
X100425965Y-60282169D01*
X100425964Y-60282171D01*
X100326098Y-60496335D01*
X100326094Y-60496344D01*
X100264938Y-60724586D01*
X100264936Y-60724596D01*
X100244341Y-60959999D01*
X100244341Y-60960000D01*
X100264936Y-61195403D01*
X100264938Y-61195413D01*
X100326094Y-61423655D01*
X100326096Y-61423659D01*
X100326097Y-61423663D01*
X100406004Y-61595023D01*
X100425965Y-61637830D01*
X100425967Y-61637834D01*
X100500456Y-61744214D01*
X100561501Y-61831396D01*
X100561506Y-61831402D01*
X100683430Y-61953326D01*
X100716915Y-62014649D01*
X100711931Y-62084341D01*
X100670059Y-62140274D01*
X100639083Y-62157189D01*
X100507669Y-62206203D01*
X100507664Y-62206206D01*
X100392455Y-62292452D01*
X100392452Y-62292455D01*
X100306206Y-62407664D01*
X100306202Y-62407671D01*
X100255908Y-62542517D01*
X100249501Y-62602116D01*
X100249500Y-62602135D01*
X100249500Y-64397870D01*
X100249501Y-64397876D01*
X100255908Y-64457483D01*
X100306202Y-64592328D01*
X100306206Y-64592335D01*
X100392452Y-64707544D01*
X100392455Y-64707547D01*
X100507664Y-64793793D01*
X100507671Y-64793797D01*
X100642517Y-64844091D01*
X100642516Y-64844091D01*
X100649444Y-64844835D01*
X100702127Y-64850500D01*
X102497872Y-64850499D01*
X102557483Y-64844091D01*
X102692331Y-64793796D01*
X102807546Y-64707546D01*
X102893796Y-64592331D01*
X102908121Y-64553925D01*
X102913874Y-64538498D01*
X102943002Y-64460401D01*
X102984872Y-64404468D01*
X103050337Y-64380050D01*
X103118610Y-64394901D01*
X103146865Y-64416053D01*
X103268917Y-64538105D01*
X103462421Y-64673600D01*
X103676507Y-64773429D01*
X103676516Y-64773433D01*
X103890000Y-64830634D01*
X103890000Y-63935501D01*
X103997685Y-63984680D01*
X104104237Y-64000000D01*
X104175763Y-64000000D01*
X104282315Y-63984680D01*
X104390000Y-63935501D01*
X104390000Y-64854046D01*
X104370315Y-64921085D01*
X104353681Y-64941727D01*
X93757228Y-75538181D01*
X93695905Y-75571666D01*
X93669547Y-75574500D01*
X92823666Y-75574500D01*
X92756627Y-75554815D01*
X92710872Y-75502011D01*
X92700928Y-75432853D01*
X92711284Y-75398096D01*
X92713428Y-75393497D01*
X92713433Y-75393483D01*
X92774567Y-75165326D01*
X92774569Y-75165315D01*
X92795157Y-74930001D01*
X92795157Y-74929998D01*
X92774569Y-74694684D01*
X92774567Y-74694673D01*
X92713433Y-74466516D01*
X92713429Y-74466507D01*
X92613600Y-74252423D01*
X92613599Y-74252421D01*
X92554925Y-74168626D01*
X92554925Y-74168625D01*
X91923076Y-74800474D01*
X91899493Y-74720156D01*
X91821761Y-74599202D01*
X91713100Y-74505048D01*
X91582315Y-74445320D01*
X91572533Y-74443913D01*
X92201373Y-73815073D01*
X92201373Y-73815072D01*
X92125405Y-73761880D01*
X92081780Y-73707304D01*
X92074586Y-73637805D01*
X92106108Y-73575451D01*
X92125399Y-73558734D01*
X92311401Y-73428495D01*
X92478495Y-73261401D01*
X92614035Y-73067830D01*
X92713903Y-72853663D01*
X92775063Y-72625408D01*
X92795659Y-72390000D01*
X92775063Y-72154592D01*
X92713903Y-71926337D01*
X92614035Y-71712171D01*
X92608425Y-71704158D01*
X92478494Y-71518597D01*
X92311402Y-71351506D01*
X92311395Y-71351501D01*
X92117834Y-71215967D01*
X92117830Y-71215965D01*
X92117828Y-71215964D01*
X91903663Y-71116097D01*
X91903659Y-71116096D01*
X91903655Y-71116094D01*
X91675413Y-71054938D01*
X91675403Y-71054936D01*
X91440001Y-71034341D01*
X91439999Y-71034341D01*
X91204596Y-71054936D01*
X91204586Y-71054938D01*
X90976344Y-71116094D01*
X90976335Y-71116098D01*
X90762171Y-71215964D01*
X90762169Y-71215965D01*
X90568597Y-71351505D01*
X90401505Y-71518597D01*
X90271575Y-71704158D01*
X90216998Y-71747783D01*
X90147500Y-71754977D01*
X90085145Y-71723454D01*
X90068425Y-71704158D01*
X89938494Y-71518597D01*
X89771402Y-71351506D01*
X89771395Y-71351501D01*
X89577834Y-71215967D01*
X89577830Y-71215965D01*
X89577828Y-71215964D01*
X89363663Y-71116097D01*
X89363659Y-71116096D01*
X89363655Y-71116094D01*
X89135413Y-71054938D01*
X89135403Y-71054936D01*
X88900001Y-71034341D01*
X88899999Y-71034341D01*
X88664596Y-71054936D01*
X88664586Y-71054938D01*
X88436344Y-71116094D01*
X88436335Y-71116098D01*
X88222171Y-71215964D01*
X88222169Y-71215965D01*
X88028597Y-71351505D01*
X87861505Y-71518597D01*
X87725965Y-71712169D01*
X87725964Y-71712171D01*
X87626098Y-71926335D01*
X87626094Y-71926344D01*
X87564938Y-72154586D01*
X87564936Y-72154596D01*
X87544341Y-72389999D01*
X87544341Y-72390000D01*
X87564936Y-72625403D01*
X87564938Y-72625413D01*
X87626094Y-72853655D01*
X87626096Y-72853659D01*
X87626097Y-72853663D01*
X87630000Y-72862032D01*
X87725965Y-73067830D01*
X87725967Y-73067834D01*
X87834281Y-73222521D01*
X87861505Y-73261401D01*
X88028599Y-73428495D01*
X88214594Y-73558730D01*
X88258218Y-73613307D01*
X88265411Y-73682806D01*
X88233889Y-73745160D01*
X88214593Y-73761880D01*
X88138626Y-73815072D01*
X88138625Y-73815072D01*
X88767466Y-74443913D01*
X88757685Y-74445320D01*
X88626900Y-74505048D01*
X88518239Y-74599202D01*
X88440507Y-74720156D01*
X88416923Y-74800476D01*
X87785072Y-74168625D01*
X87726401Y-74252419D01*
X87626570Y-74466507D01*
X87626566Y-74466516D01*
X87565432Y-74694673D01*
X87565430Y-74694684D01*
X87544843Y-74929998D01*
X87544843Y-74930001D01*
X87565430Y-75165315D01*
X87565432Y-75165326D01*
X87626566Y-75393483D01*
X87626570Y-75393492D01*
X87726400Y-75607579D01*
X87726402Y-75607583D01*
X87785072Y-75691373D01*
X87785073Y-75691373D01*
X88416923Y-75059523D01*
X88440507Y-75139844D01*
X88518239Y-75260798D01*
X88626900Y-75354952D01*
X88757685Y-75414680D01*
X88767466Y-75416086D01*
X88138625Y-76044925D01*
X88214594Y-76098119D01*
X88258219Y-76152696D01*
X88265413Y-76222194D01*
X88233890Y-76284549D01*
X88214595Y-76301269D01*
X88028594Y-76431508D01*
X87861505Y-76598597D01*
X87725965Y-76792169D01*
X87725964Y-76792171D01*
X87626098Y-77006335D01*
X87626094Y-77006344D01*
X87564938Y-77234586D01*
X87564936Y-77234596D01*
X87544341Y-77469999D01*
X87544341Y-77470000D01*
X87564936Y-77705403D01*
X87564938Y-77705413D01*
X87626094Y-77933655D01*
X87626096Y-77933659D01*
X87626097Y-77933663D01*
X87630000Y-77942032D01*
X87725965Y-78147830D01*
X87725967Y-78147834D01*
X87861501Y-78341395D01*
X87861506Y-78341402D01*
X88028597Y-78508493D01*
X88028603Y-78508498D01*
X88214158Y-78638425D01*
X88257783Y-78693002D01*
X88264977Y-78762500D01*
X88233454Y-78824855D01*
X88214158Y-78841575D01*
X88028597Y-78971505D01*
X87861505Y-79138597D01*
X87725965Y-79332169D01*
X87725964Y-79332171D01*
X87626098Y-79546335D01*
X87626094Y-79546344D01*
X87564938Y-79774586D01*
X87564936Y-79774596D01*
X87544341Y-80009999D01*
X87544341Y-80010000D01*
X87564936Y-80245403D01*
X87564938Y-80245413D01*
X87626094Y-80473655D01*
X87626096Y-80473659D01*
X87626097Y-80473663D01*
X87630000Y-80482032D01*
X87725965Y-80687830D01*
X87725967Y-80687834D01*
X87861501Y-80881395D01*
X87861506Y-80881402D01*
X88028597Y-81048493D01*
X88028603Y-81048498D01*
X88214158Y-81178425D01*
X88257783Y-81233002D01*
X88264977Y-81302500D01*
X88233454Y-81364855D01*
X88214158Y-81381575D01*
X88028597Y-81511505D01*
X87861505Y-81678597D01*
X87725965Y-81872169D01*
X87725964Y-81872171D01*
X87626098Y-82086335D01*
X87626094Y-82086344D01*
X87564938Y-82314586D01*
X87564936Y-82314596D01*
X87544341Y-82549999D01*
X87544341Y-82550000D01*
X87564936Y-82785403D01*
X87564938Y-82785413D01*
X87626094Y-83013655D01*
X87626096Y-83013659D01*
X87626097Y-83013663D01*
X87630000Y-83022032D01*
X87725965Y-83227830D01*
X87725967Y-83227834D01*
X87861501Y-83421395D01*
X87861506Y-83421402D01*
X88028597Y-83588493D01*
X88028603Y-83588498D01*
X88214158Y-83718425D01*
X88257783Y-83773002D01*
X88264977Y-83842500D01*
X88233454Y-83904855D01*
X88214158Y-83921575D01*
X88028597Y-84051505D01*
X87861505Y-84218597D01*
X87725965Y-84412169D01*
X87725964Y-84412171D01*
X87626098Y-84626335D01*
X87626094Y-84626344D01*
X87564938Y-84854586D01*
X87564936Y-84854596D01*
X87544341Y-85089999D01*
X87544341Y-85090000D01*
X85090500Y-85090000D01*
X85090500Y-58415000D01*
X88814341Y-58415000D01*
X88834936Y-58650403D01*
X88834938Y-58650413D01*
X88896094Y-58878655D01*
X88896096Y-58878659D01*
X88896097Y-58878663D01*
X88932334Y-58956373D01*
X88995965Y-59092830D01*
X88995967Y-59092834D01*
X89089805Y-59226847D01*
X89131501Y-59286396D01*
X89131506Y-59286402D01*
X89253818Y-59408714D01*
X89287303Y-59470037D01*
X89282319Y-59539729D01*
X89240447Y-59595662D01*
X89209471Y-59612577D01*
X89077912Y-59661646D01*
X89077906Y-59661649D01*
X88962812Y-59747809D01*
X88962809Y-59747812D01*
X88876649Y-59862906D01*
X88876645Y-59862913D01*
X88826403Y-59997620D01*
X88826401Y-59997627D01*
X88820000Y-60057155D01*
X88820000Y-60705000D01*
X89736314Y-60705000D01*
X89710507Y-60745156D01*
X89670000Y-60883111D01*
X89670000Y-61026889D01*
X89710507Y-61164844D01*
X89736314Y-61205000D01*
X88820000Y-61205000D01*
X88820000Y-61852844D01*
X88826401Y-61912372D01*
X88826403Y-61912379D01*
X88876645Y-62047086D01*
X88876649Y-62047093D01*
X88962809Y-62162187D01*
X88962812Y-62162190D01*
X89077906Y-62248350D01*
X89077913Y-62248354D01*
X89212620Y-62298596D01*
X89212627Y-62298598D01*
X89272155Y-62304999D01*
X89272172Y-62305000D01*
X89920000Y-62305000D01*
X89920000Y-61390501D01*
X90027685Y-61439680D01*
X90134237Y-61455000D01*
X90205763Y-61455000D01*
X90312315Y-61439680D01*
X90420000Y-61390501D01*
X90420000Y-62305000D01*
X91067828Y-62305000D01*
X91067844Y-62304999D01*
X91127372Y-62298598D01*
X91127379Y-62298596D01*
X91262086Y-62248354D01*
X91262093Y-62248350D01*
X91377187Y-62162190D01*
X91377190Y-62162187D01*
X91463350Y-62047093D01*
X91463354Y-62047086D01*
X91513596Y-61912379D01*
X91513598Y-61912372D01*
X91519999Y-61852844D01*
X91520000Y-61852827D01*
X91520000Y-61205000D01*
X90603686Y-61205000D01*
X90629493Y-61164844D01*
X90670000Y-61026889D01*
X90670000Y-60883111D01*
X90629493Y-60745156D01*
X90603686Y-60705000D01*
X91520000Y-60705000D01*
X91520000Y-60057172D01*
X91519999Y-60057155D01*
X91513598Y-59997627D01*
X91513596Y-59997620D01*
X91463354Y-59862913D01*
X91463350Y-59862906D01*
X91377190Y-59747812D01*
X91377187Y-59747809D01*
X91262093Y-59661649D01*
X91262088Y-59661646D01*
X91130528Y-59612577D01*
X91074595Y-59570705D01*
X91050178Y-59505241D01*
X91065030Y-59436968D01*
X91086175Y-59408720D01*
X91208495Y-59286401D01*
X91344035Y-59092830D01*
X91443903Y-58878663D01*
X91505063Y-58650408D01*
X91525659Y-58415000D01*
X91505063Y-58179592D01*
X91452784Y-57984480D01*
X91443905Y-57951344D01*
X91443904Y-57951343D01*
X91443903Y-57951337D01*
X91344035Y-57737171D01*
X91343129Y-57735876D01*
X91208494Y-57543597D01*
X91041402Y-57376506D01*
X91041395Y-57376501D01*
X90847834Y-57240967D01*
X90847830Y-57240965D01*
X90779993Y-57209332D01*
X90633663Y-57141097D01*
X90633659Y-57141096D01*
X90633655Y-57141094D01*
X90405413Y-57079938D01*
X90405403Y-57079936D01*
X90170001Y-57059341D01*
X90169999Y-57059341D01*
X89934596Y-57079936D01*
X89934586Y-57079938D01*
X89706344Y-57141094D01*
X89706335Y-57141098D01*
X89492171Y-57240964D01*
X89492169Y-57240965D01*
X89298597Y-57376505D01*
X89131505Y-57543597D01*
X88995965Y-57737169D01*
X88995964Y-57737171D01*
X88896098Y-57951335D01*
X88896094Y-57951344D01*
X88834938Y-58179586D01*
X88834936Y-58179596D01*
X88814341Y-58414999D01*
X88814341Y-58415000D01*
X85090500Y-58415000D01*
X85090500Y-49654334D01*
X95019500Y-49654334D01*
X95060429Y-49899616D01*
X95141169Y-50134802D01*
X95141172Y-50134811D01*
X95230568Y-50300000D01*
X95259526Y-50353509D01*
X95412262Y-50549744D01*
X95547240Y-50674000D01*
X95595217Y-50718166D01*
X95803393Y-50854173D01*
X96031118Y-50954063D01*
X96251392Y-51009844D01*
X96272179Y-51015108D01*
X96272181Y-51015108D01*
X96272186Y-51015109D01*
X96425589Y-51027819D01*
X96457933Y-51030500D01*
X96457937Y-51030500D01*
X96582063Y-51030500D01*
X96582067Y-51030500D01*
X96644677Y-51025311D01*
X96767813Y-51015109D01*
X96767816Y-51015108D01*
X96767821Y-51015108D01*
X97008881Y-50954063D01*
X97236607Y-50854173D01*
X97444785Y-50718164D01*
X97627738Y-50549744D01*
X97780474Y-50353509D01*
X97898828Y-50134810D01*
X97979571Y-49899614D01*
X98020500Y-49654335D01*
X98020500Y-49405665D01*
X97979571Y-49160386D01*
X97977785Y-49155185D01*
X97966568Y-49122511D01*
X97898828Y-48925190D01*
X97882266Y-48894587D01*
X97801141Y-48744680D01*
X97780474Y-48706491D01*
X97627738Y-48510256D01*
X97444785Y-48341836D01*
X97444782Y-48341833D01*
X97236606Y-48205826D01*
X97008881Y-48105936D01*
X96767824Y-48044892D01*
X96767813Y-48044890D01*
X96582077Y-48029500D01*
X96582067Y-48029500D01*
X96457933Y-48029500D01*
X96457922Y-48029500D01*
X96272186Y-48044890D01*
X96272175Y-48044892D01*
X96031118Y-48105936D01*
X95803393Y-48205826D01*
X95595217Y-48341833D01*
X95412261Y-48510257D01*
X95259524Y-48706493D01*
X95141172Y-48925188D01*
X95141169Y-48925197D01*
X95060429Y-49160383D01*
X95019500Y-49405665D01*
X95019500Y-49654334D01*
X85090500Y-49654334D01*
X85090500Y-45091961D01*
X85091279Y-45078086D01*
X85091281Y-45078069D01*
X85093353Y-45059670D01*
X85093599Y-45057659D01*
X85108234Y-44946496D01*
X85114125Y-44921754D01*
X85129025Y-44879172D01*
X85131470Y-44872767D01*
X85161837Y-44799456D01*
X85171381Y-44780980D01*
X85198385Y-44738003D01*
X85204969Y-44728538D01*
X85250112Y-44669707D01*
X85260778Y-44657545D01*
X85297545Y-44620778D01*
X85309707Y-44610112D01*
X85368538Y-44564969D01*
X85378003Y-44558385D01*
X85420980Y-44531381D01*
X85439456Y-44521837D01*
X85512767Y-44491470D01*
X85519172Y-44489025D01*
X85561754Y-44474125D01*
X85586496Y-44468234D01*
X85697659Y-44453599D01*
X85699670Y-44453353D01*
X85716591Y-44451447D01*
X85718087Y-44451279D01*
X85731962Y-44450500D01*
X161918037Y-44450500D01*
X161931912Y-44451278D01*
G37*
G04 #@! TD.AperFunction*
M02*
