%TF.GenerationSoftware,KiCad,Pcbnew,7.0.11-7.0.11~ubuntu20.04.1*%
%TF.CreationDate,2024-08-17T18:13:59+02:00*%
%TF.ProjectId,kicad-kria-pi4-ext,6b696361-642d-46b7-9269-612d7069342d,1.0*%
%TF.SameCoordinates,Original*%
%TF.FileFunction,Drillmap*%
%TF.FilePolarity,Positive*%
%FSLAX45Y45*%
G04 Gerber Fmt 4.5, Leading zero omitted, Abs format (unit mm)*
G04 Created by KiCad (PCBNEW 7.0.11-7.0.11~ubuntu20.04.1) date 2024-08-17 18:13:59*
%MOMM*%
%LPD*%
G01*
G04 APERTURE LIST*
%ADD10C,0.050000*%
%ADD11C,0.200000*%
%ADD12C,0.250000*%
G04 APERTURE END LIST*
D10*
X16192500Y-11684000D02*
G75*
G03*
X16256000Y-11620500I0J63500D01*
G01*
X16192500Y-11684000D02*
X8572500Y-11684000D01*
X8572500Y-4445000D02*
G75*
G03*
X8509000Y-4508500I0J-63500D01*
G01*
X8509000Y-11620500D02*
G75*
G03*
X8572500Y-11684000I63500J0D01*
G01*
X8572500Y-4445000D02*
X16192500Y-4445000D01*
X16256000Y-4508500D02*
G75*
G03*
X16192500Y-4445000I-63500J0D01*
G01*
X8509000Y-11620500D02*
X8509000Y-4508500D01*
X16256000Y-4508500D02*
X16256000Y-11620500D01*
D11*
D12*
X9527000Y-4828000D02*
X9777000Y-5078000D01*
X9777000Y-4828000D02*
X9527000Y-5078000D01*
X10289000Y-11051000D02*
X10539000Y-11301000D01*
X10539000Y-11051000D02*
X10289000Y-11301000D01*
X12829000Y-10606500D02*
X13079000Y-10856500D01*
X13079000Y-10606500D02*
X12829000Y-10856500D01*
X14607000Y-11051000D02*
X14857000Y-11301000D01*
X14857000Y-11051000D02*
X14607000Y-11301000D01*
X15369000Y-4828000D02*
X15619000Y-5078000D01*
X15619000Y-4828000D02*
X15369000Y-5078000D01*
D11*
X8767277Y-11997984D02*
X8767277Y-11797984D01*
X8767277Y-11797984D02*
X8814896Y-11797984D01*
X8814896Y-11797984D02*
X8843467Y-11807508D01*
X8843467Y-11807508D02*
X8862515Y-11826555D01*
X8862515Y-11826555D02*
X8872039Y-11845603D01*
X8872039Y-11845603D02*
X8881563Y-11883698D01*
X8881563Y-11883698D02*
X8881563Y-11912269D01*
X8881563Y-11912269D02*
X8872039Y-11950365D01*
X8872039Y-11950365D02*
X8862515Y-11969412D01*
X8862515Y-11969412D02*
X8843467Y-11988460D01*
X8843467Y-11988460D02*
X8814896Y-11997984D01*
X8814896Y-11997984D02*
X8767277Y-11997984D01*
X8967277Y-11997984D02*
X8967277Y-11864650D01*
X8967277Y-11902746D02*
X8976801Y-11883698D01*
X8976801Y-11883698D02*
X8986324Y-11874174D01*
X8986324Y-11874174D02*
X9005372Y-11864650D01*
X9005372Y-11864650D02*
X9024420Y-11864650D01*
X9091086Y-11997984D02*
X9091086Y-11864650D01*
X9091086Y-11797984D02*
X9081563Y-11807508D01*
X9081563Y-11807508D02*
X9091086Y-11817031D01*
X9091086Y-11817031D02*
X9100610Y-11807508D01*
X9100610Y-11807508D02*
X9091086Y-11797984D01*
X9091086Y-11797984D02*
X9091086Y-11817031D01*
X9214896Y-11997984D02*
X9195848Y-11988460D01*
X9195848Y-11988460D02*
X9186324Y-11969412D01*
X9186324Y-11969412D02*
X9186324Y-11797984D01*
X9319658Y-11997984D02*
X9300610Y-11988460D01*
X9300610Y-11988460D02*
X9291086Y-11969412D01*
X9291086Y-11969412D02*
X9291086Y-11797984D01*
X9548229Y-11997984D02*
X9548229Y-11797984D01*
X9548229Y-11797984D02*
X9614896Y-11940841D01*
X9614896Y-11940841D02*
X9681563Y-11797984D01*
X9681563Y-11797984D02*
X9681563Y-11997984D01*
X9862515Y-11997984D02*
X9862515Y-11893222D01*
X9862515Y-11893222D02*
X9852991Y-11874174D01*
X9852991Y-11874174D02*
X9833944Y-11864650D01*
X9833944Y-11864650D02*
X9795848Y-11864650D01*
X9795848Y-11864650D02*
X9776801Y-11874174D01*
X9862515Y-11988460D02*
X9843467Y-11997984D01*
X9843467Y-11997984D02*
X9795848Y-11997984D01*
X9795848Y-11997984D02*
X9776801Y-11988460D01*
X9776801Y-11988460D02*
X9767277Y-11969412D01*
X9767277Y-11969412D02*
X9767277Y-11950365D01*
X9767277Y-11950365D02*
X9776801Y-11931317D01*
X9776801Y-11931317D02*
X9795848Y-11921793D01*
X9795848Y-11921793D02*
X9843467Y-11921793D01*
X9843467Y-11921793D02*
X9862515Y-11912269D01*
X9957753Y-11864650D02*
X9957753Y-12064650D01*
X9957753Y-11874174D02*
X9976801Y-11864650D01*
X9976801Y-11864650D02*
X10014896Y-11864650D01*
X10014896Y-11864650D02*
X10033944Y-11874174D01*
X10033944Y-11874174D02*
X10043467Y-11883698D01*
X10043467Y-11883698D02*
X10052991Y-11902746D01*
X10052991Y-11902746D02*
X10052991Y-11959888D01*
X10052991Y-11959888D02*
X10043467Y-11978936D01*
X10043467Y-11978936D02*
X10033944Y-11988460D01*
X10033944Y-11988460D02*
X10014896Y-11997984D01*
X10014896Y-11997984D02*
X9976801Y-11997984D01*
X9976801Y-11997984D02*
X9957753Y-11988460D01*
X10138705Y-11978936D02*
X10148229Y-11988460D01*
X10148229Y-11988460D02*
X10138705Y-11997984D01*
X10138705Y-11997984D02*
X10129182Y-11988460D01*
X10129182Y-11988460D02*
X10138705Y-11978936D01*
X10138705Y-11978936D02*
X10138705Y-11997984D01*
X10138705Y-11874174D02*
X10148229Y-11883698D01*
X10148229Y-11883698D02*
X10138705Y-11893222D01*
X10138705Y-11893222D02*
X10129182Y-11883698D01*
X10129182Y-11883698D02*
X10138705Y-11874174D01*
X10138705Y-11874174D02*
X10138705Y-11893222D01*
X8306500Y-12226500D02*
X8506500Y-12426500D01*
X8506500Y-12226500D02*
X8306500Y-12426500D01*
X8757753Y-12237031D02*
X8767277Y-12227508D01*
X8767277Y-12227508D02*
X8786324Y-12217984D01*
X8786324Y-12217984D02*
X8833944Y-12217984D01*
X8833944Y-12217984D02*
X8852991Y-12227508D01*
X8852991Y-12227508D02*
X8862515Y-12237031D01*
X8862515Y-12237031D02*
X8872039Y-12256079D01*
X8872039Y-12256079D02*
X8872039Y-12275127D01*
X8872039Y-12275127D02*
X8862515Y-12303698D01*
X8862515Y-12303698D02*
X8748229Y-12417984D01*
X8748229Y-12417984D02*
X8872039Y-12417984D01*
X8957753Y-12398936D02*
X8967277Y-12408460D01*
X8967277Y-12408460D02*
X8957753Y-12417984D01*
X8957753Y-12417984D02*
X8948229Y-12408460D01*
X8948229Y-12408460D02*
X8957753Y-12398936D01*
X8957753Y-12398936D02*
X8957753Y-12417984D01*
X9148229Y-12217984D02*
X9052991Y-12217984D01*
X9052991Y-12217984D02*
X9043467Y-12313222D01*
X9043467Y-12313222D02*
X9052991Y-12303698D01*
X9052991Y-12303698D02*
X9072039Y-12294174D01*
X9072039Y-12294174D02*
X9119658Y-12294174D01*
X9119658Y-12294174D02*
X9138705Y-12303698D01*
X9138705Y-12303698D02*
X9148229Y-12313222D01*
X9148229Y-12313222D02*
X9157753Y-12332269D01*
X9157753Y-12332269D02*
X9157753Y-12379888D01*
X9157753Y-12379888D02*
X9148229Y-12398936D01*
X9148229Y-12398936D02*
X9138705Y-12408460D01*
X9138705Y-12408460D02*
X9119658Y-12417984D01*
X9119658Y-12417984D02*
X9072039Y-12417984D01*
X9072039Y-12417984D02*
X9052991Y-12408460D01*
X9052991Y-12408460D02*
X9043467Y-12398936D01*
X9281563Y-12217984D02*
X9300610Y-12217984D01*
X9300610Y-12217984D02*
X9319658Y-12227508D01*
X9319658Y-12227508D02*
X9329182Y-12237031D01*
X9329182Y-12237031D02*
X9338705Y-12256079D01*
X9338705Y-12256079D02*
X9348229Y-12294174D01*
X9348229Y-12294174D02*
X9348229Y-12341793D01*
X9348229Y-12341793D02*
X9338705Y-12379888D01*
X9338705Y-12379888D02*
X9329182Y-12398936D01*
X9329182Y-12398936D02*
X9319658Y-12408460D01*
X9319658Y-12408460D02*
X9300610Y-12417984D01*
X9300610Y-12417984D02*
X9281563Y-12417984D01*
X9281563Y-12417984D02*
X9262515Y-12408460D01*
X9262515Y-12408460D02*
X9252991Y-12398936D01*
X9252991Y-12398936D02*
X9243467Y-12379888D01*
X9243467Y-12379888D02*
X9233944Y-12341793D01*
X9233944Y-12341793D02*
X9233944Y-12294174D01*
X9233944Y-12294174D02*
X9243467Y-12256079D01*
X9243467Y-12256079D02*
X9252991Y-12237031D01*
X9252991Y-12237031D02*
X9262515Y-12227508D01*
X9262515Y-12227508D02*
X9281563Y-12217984D01*
X9472039Y-12217984D02*
X9491086Y-12217984D01*
X9491086Y-12217984D02*
X9510134Y-12227508D01*
X9510134Y-12227508D02*
X9519658Y-12237031D01*
X9519658Y-12237031D02*
X9529182Y-12256079D01*
X9529182Y-12256079D02*
X9538705Y-12294174D01*
X9538705Y-12294174D02*
X9538705Y-12341793D01*
X9538705Y-12341793D02*
X9529182Y-12379888D01*
X9529182Y-12379888D02*
X9519658Y-12398936D01*
X9519658Y-12398936D02*
X9510134Y-12408460D01*
X9510134Y-12408460D02*
X9491086Y-12417984D01*
X9491086Y-12417984D02*
X9472039Y-12417984D01*
X9472039Y-12417984D02*
X9452991Y-12408460D01*
X9452991Y-12408460D02*
X9443467Y-12398936D01*
X9443467Y-12398936D02*
X9433944Y-12379888D01*
X9433944Y-12379888D02*
X9424420Y-12341793D01*
X9424420Y-12341793D02*
X9424420Y-12294174D01*
X9424420Y-12294174D02*
X9433944Y-12256079D01*
X9433944Y-12256079D02*
X9443467Y-12237031D01*
X9443467Y-12237031D02*
X9452991Y-12227508D01*
X9452991Y-12227508D02*
X9472039Y-12217984D01*
X9624420Y-12417984D02*
X9624420Y-12284650D01*
X9624420Y-12303698D02*
X9633944Y-12294174D01*
X9633944Y-12294174D02*
X9652991Y-12284650D01*
X9652991Y-12284650D02*
X9681563Y-12284650D01*
X9681563Y-12284650D02*
X9700610Y-12294174D01*
X9700610Y-12294174D02*
X9710134Y-12313222D01*
X9710134Y-12313222D02*
X9710134Y-12417984D01*
X9710134Y-12313222D02*
X9719658Y-12294174D01*
X9719658Y-12294174D02*
X9738705Y-12284650D01*
X9738705Y-12284650D02*
X9767277Y-12284650D01*
X9767277Y-12284650D02*
X9786325Y-12294174D01*
X9786325Y-12294174D02*
X9795848Y-12313222D01*
X9795848Y-12313222D02*
X9795848Y-12417984D01*
X9891086Y-12417984D02*
X9891086Y-12284650D01*
X9891086Y-12303698D02*
X9900610Y-12294174D01*
X9900610Y-12294174D02*
X9919658Y-12284650D01*
X9919658Y-12284650D02*
X9948229Y-12284650D01*
X9948229Y-12284650D02*
X9967277Y-12294174D01*
X9967277Y-12294174D02*
X9976801Y-12313222D01*
X9976801Y-12313222D02*
X9976801Y-12417984D01*
X9976801Y-12313222D02*
X9986325Y-12294174D01*
X9986325Y-12294174D02*
X10005372Y-12284650D01*
X10005372Y-12284650D02*
X10033944Y-12284650D01*
X10033944Y-12284650D02*
X10052991Y-12294174D01*
X10052991Y-12294174D02*
X10062515Y-12313222D01*
X10062515Y-12313222D02*
X10062515Y-12417984D01*
X10452991Y-12208460D02*
X10281563Y-12465603D01*
X10710134Y-12217984D02*
X10729182Y-12217984D01*
X10729182Y-12217984D02*
X10748229Y-12227508D01*
X10748229Y-12227508D02*
X10757753Y-12237031D01*
X10757753Y-12237031D02*
X10767277Y-12256079D01*
X10767277Y-12256079D02*
X10776801Y-12294174D01*
X10776801Y-12294174D02*
X10776801Y-12341793D01*
X10776801Y-12341793D02*
X10767277Y-12379888D01*
X10767277Y-12379888D02*
X10757753Y-12398936D01*
X10757753Y-12398936D02*
X10748229Y-12408460D01*
X10748229Y-12408460D02*
X10729182Y-12417984D01*
X10729182Y-12417984D02*
X10710134Y-12417984D01*
X10710134Y-12417984D02*
X10691087Y-12408460D01*
X10691087Y-12408460D02*
X10681563Y-12398936D01*
X10681563Y-12398936D02*
X10672039Y-12379888D01*
X10672039Y-12379888D02*
X10662515Y-12341793D01*
X10662515Y-12341793D02*
X10662515Y-12294174D01*
X10662515Y-12294174D02*
X10672039Y-12256079D01*
X10672039Y-12256079D02*
X10681563Y-12237031D01*
X10681563Y-12237031D02*
X10691087Y-12227508D01*
X10691087Y-12227508D02*
X10710134Y-12217984D01*
X10862515Y-12398936D02*
X10872039Y-12408460D01*
X10872039Y-12408460D02*
X10862515Y-12417984D01*
X10862515Y-12417984D02*
X10852991Y-12408460D01*
X10852991Y-12408460D02*
X10862515Y-12398936D01*
X10862515Y-12398936D02*
X10862515Y-12417984D01*
X10995848Y-12217984D02*
X11014896Y-12217984D01*
X11014896Y-12217984D02*
X11033944Y-12227508D01*
X11033944Y-12227508D02*
X11043468Y-12237031D01*
X11043468Y-12237031D02*
X11052991Y-12256079D01*
X11052991Y-12256079D02*
X11062515Y-12294174D01*
X11062515Y-12294174D02*
X11062515Y-12341793D01*
X11062515Y-12341793D02*
X11052991Y-12379888D01*
X11052991Y-12379888D02*
X11043468Y-12398936D01*
X11043468Y-12398936D02*
X11033944Y-12408460D01*
X11033944Y-12408460D02*
X11014896Y-12417984D01*
X11014896Y-12417984D02*
X10995848Y-12417984D01*
X10995848Y-12417984D02*
X10976801Y-12408460D01*
X10976801Y-12408460D02*
X10967277Y-12398936D01*
X10967277Y-12398936D02*
X10957753Y-12379888D01*
X10957753Y-12379888D02*
X10948229Y-12341793D01*
X10948229Y-12341793D02*
X10948229Y-12294174D01*
X10948229Y-12294174D02*
X10957753Y-12256079D01*
X10957753Y-12256079D02*
X10967277Y-12237031D01*
X10967277Y-12237031D02*
X10976801Y-12227508D01*
X10976801Y-12227508D02*
X10995848Y-12217984D01*
X11157753Y-12417984D02*
X11195848Y-12417984D01*
X11195848Y-12417984D02*
X11214896Y-12408460D01*
X11214896Y-12408460D02*
X11224420Y-12398936D01*
X11224420Y-12398936D02*
X11243467Y-12370365D01*
X11243467Y-12370365D02*
X11252991Y-12332269D01*
X11252991Y-12332269D02*
X11252991Y-12256079D01*
X11252991Y-12256079D02*
X11243467Y-12237031D01*
X11243467Y-12237031D02*
X11233944Y-12227508D01*
X11233944Y-12227508D02*
X11214896Y-12217984D01*
X11214896Y-12217984D02*
X11176801Y-12217984D01*
X11176801Y-12217984D02*
X11157753Y-12227508D01*
X11157753Y-12227508D02*
X11148229Y-12237031D01*
X11148229Y-12237031D02*
X11138706Y-12256079D01*
X11138706Y-12256079D02*
X11138706Y-12303698D01*
X11138706Y-12303698D02*
X11148229Y-12322746D01*
X11148229Y-12322746D02*
X11157753Y-12332269D01*
X11157753Y-12332269D02*
X11176801Y-12341793D01*
X11176801Y-12341793D02*
X11214896Y-12341793D01*
X11214896Y-12341793D02*
X11233944Y-12332269D01*
X11233944Y-12332269D02*
X11243467Y-12322746D01*
X11243467Y-12322746D02*
X11252991Y-12303698D01*
X11367277Y-12303698D02*
X11348229Y-12294174D01*
X11348229Y-12294174D02*
X11338706Y-12284650D01*
X11338706Y-12284650D02*
X11329182Y-12265603D01*
X11329182Y-12265603D02*
X11329182Y-12256079D01*
X11329182Y-12256079D02*
X11338706Y-12237031D01*
X11338706Y-12237031D02*
X11348229Y-12227508D01*
X11348229Y-12227508D02*
X11367277Y-12217984D01*
X11367277Y-12217984D02*
X11405372Y-12217984D01*
X11405372Y-12217984D02*
X11424420Y-12227508D01*
X11424420Y-12227508D02*
X11433944Y-12237031D01*
X11433944Y-12237031D02*
X11443467Y-12256079D01*
X11443467Y-12256079D02*
X11443467Y-12265603D01*
X11443467Y-12265603D02*
X11433944Y-12284650D01*
X11433944Y-12284650D02*
X11424420Y-12294174D01*
X11424420Y-12294174D02*
X11405372Y-12303698D01*
X11405372Y-12303698D02*
X11367277Y-12303698D01*
X11367277Y-12303698D02*
X11348229Y-12313222D01*
X11348229Y-12313222D02*
X11338706Y-12322746D01*
X11338706Y-12322746D02*
X11329182Y-12341793D01*
X11329182Y-12341793D02*
X11329182Y-12379888D01*
X11329182Y-12379888D02*
X11338706Y-12398936D01*
X11338706Y-12398936D02*
X11348229Y-12408460D01*
X11348229Y-12408460D02*
X11367277Y-12417984D01*
X11367277Y-12417984D02*
X11405372Y-12417984D01*
X11405372Y-12417984D02*
X11424420Y-12408460D01*
X11424420Y-12408460D02*
X11433944Y-12398936D01*
X11433944Y-12398936D02*
X11443467Y-12379888D01*
X11443467Y-12379888D02*
X11443467Y-12341793D01*
X11443467Y-12341793D02*
X11433944Y-12322746D01*
X11433944Y-12322746D02*
X11424420Y-12313222D01*
X11424420Y-12313222D02*
X11405372Y-12303698D01*
X11614896Y-12284650D02*
X11614896Y-12417984D01*
X11567277Y-12208460D02*
X11519658Y-12351317D01*
X11519658Y-12351317D02*
X11643467Y-12351317D01*
X11710134Y-12217984D02*
X11710134Y-12256079D01*
X11786325Y-12217984D02*
X11786325Y-12256079D01*
X12081563Y-12494174D02*
X12072039Y-12484650D01*
X12072039Y-12484650D02*
X12052991Y-12456079D01*
X12052991Y-12456079D02*
X12043468Y-12437031D01*
X12043468Y-12437031D02*
X12033944Y-12408460D01*
X12033944Y-12408460D02*
X12024420Y-12360841D01*
X12024420Y-12360841D02*
X12024420Y-12322746D01*
X12024420Y-12322746D02*
X12033944Y-12275127D01*
X12033944Y-12275127D02*
X12043468Y-12246555D01*
X12043468Y-12246555D02*
X12052991Y-12227508D01*
X12052991Y-12227508D02*
X12072039Y-12198936D01*
X12072039Y-12198936D02*
X12081563Y-12189412D01*
X12252991Y-12217984D02*
X12157753Y-12217984D01*
X12157753Y-12217984D02*
X12148229Y-12313222D01*
X12148229Y-12313222D02*
X12157753Y-12303698D01*
X12157753Y-12303698D02*
X12176801Y-12294174D01*
X12176801Y-12294174D02*
X12224420Y-12294174D01*
X12224420Y-12294174D02*
X12243468Y-12303698D01*
X12243468Y-12303698D02*
X12252991Y-12313222D01*
X12252991Y-12313222D02*
X12262515Y-12332269D01*
X12262515Y-12332269D02*
X12262515Y-12379888D01*
X12262515Y-12379888D02*
X12252991Y-12398936D01*
X12252991Y-12398936D02*
X12243468Y-12408460D01*
X12243468Y-12408460D02*
X12224420Y-12417984D01*
X12224420Y-12417984D02*
X12176801Y-12417984D01*
X12176801Y-12417984D02*
X12157753Y-12408460D01*
X12157753Y-12408460D02*
X12148229Y-12398936D01*
X12500610Y-12417984D02*
X12500610Y-12217984D01*
X12586325Y-12417984D02*
X12586325Y-12313222D01*
X12586325Y-12313222D02*
X12576801Y-12294174D01*
X12576801Y-12294174D02*
X12557753Y-12284650D01*
X12557753Y-12284650D02*
X12529182Y-12284650D01*
X12529182Y-12284650D02*
X12510134Y-12294174D01*
X12510134Y-12294174D02*
X12500610Y-12303698D01*
X12710134Y-12417984D02*
X12691087Y-12408460D01*
X12691087Y-12408460D02*
X12681563Y-12398936D01*
X12681563Y-12398936D02*
X12672039Y-12379888D01*
X12672039Y-12379888D02*
X12672039Y-12322746D01*
X12672039Y-12322746D02*
X12681563Y-12303698D01*
X12681563Y-12303698D02*
X12691087Y-12294174D01*
X12691087Y-12294174D02*
X12710134Y-12284650D01*
X12710134Y-12284650D02*
X12738706Y-12284650D01*
X12738706Y-12284650D02*
X12757753Y-12294174D01*
X12757753Y-12294174D02*
X12767277Y-12303698D01*
X12767277Y-12303698D02*
X12776801Y-12322746D01*
X12776801Y-12322746D02*
X12776801Y-12379888D01*
X12776801Y-12379888D02*
X12767277Y-12398936D01*
X12767277Y-12398936D02*
X12757753Y-12408460D01*
X12757753Y-12408460D02*
X12738706Y-12417984D01*
X12738706Y-12417984D02*
X12710134Y-12417984D01*
X12891087Y-12417984D02*
X12872039Y-12408460D01*
X12872039Y-12408460D02*
X12862515Y-12389412D01*
X12862515Y-12389412D02*
X12862515Y-12217984D01*
X13043468Y-12408460D02*
X13024420Y-12417984D01*
X13024420Y-12417984D02*
X12986325Y-12417984D01*
X12986325Y-12417984D02*
X12967277Y-12408460D01*
X12967277Y-12408460D02*
X12957753Y-12389412D01*
X12957753Y-12389412D02*
X12957753Y-12313222D01*
X12957753Y-12313222D02*
X12967277Y-12294174D01*
X12967277Y-12294174D02*
X12986325Y-12284650D01*
X12986325Y-12284650D02*
X13024420Y-12284650D01*
X13024420Y-12284650D02*
X13043468Y-12294174D01*
X13043468Y-12294174D02*
X13052991Y-12313222D01*
X13052991Y-12313222D02*
X13052991Y-12332269D01*
X13052991Y-12332269D02*
X12957753Y-12351317D01*
X13129182Y-12408460D02*
X13148230Y-12417984D01*
X13148230Y-12417984D02*
X13186325Y-12417984D01*
X13186325Y-12417984D02*
X13205372Y-12408460D01*
X13205372Y-12408460D02*
X13214896Y-12389412D01*
X13214896Y-12389412D02*
X13214896Y-12379888D01*
X13214896Y-12379888D02*
X13205372Y-12360841D01*
X13205372Y-12360841D02*
X13186325Y-12351317D01*
X13186325Y-12351317D02*
X13157753Y-12351317D01*
X13157753Y-12351317D02*
X13138706Y-12341793D01*
X13138706Y-12341793D02*
X13129182Y-12322746D01*
X13129182Y-12322746D02*
X13129182Y-12313222D01*
X13129182Y-12313222D02*
X13138706Y-12294174D01*
X13138706Y-12294174D02*
X13157753Y-12284650D01*
X13157753Y-12284650D02*
X13186325Y-12284650D01*
X13186325Y-12284650D02*
X13205372Y-12294174D01*
X13281563Y-12494174D02*
X13291087Y-12484650D01*
X13291087Y-12484650D02*
X13310134Y-12456079D01*
X13310134Y-12456079D02*
X13319658Y-12437031D01*
X13319658Y-12437031D02*
X13329182Y-12408460D01*
X13329182Y-12408460D02*
X13338706Y-12360841D01*
X13338706Y-12360841D02*
X13338706Y-12322746D01*
X13338706Y-12322746D02*
X13329182Y-12275127D01*
X13329182Y-12275127D02*
X13319658Y-12246555D01*
X13319658Y-12246555D02*
X13310134Y-12227508D01*
X13310134Y-12227508D02*
X13291087Y-12198936D01*
X13291087Y-12198936D02*
X13281563Y-12189412D01*
X13643468Y-12494174D02*
X13633944Y-12484650D01*
X13633944Y-12484650D02*
X13614896Y-12456079D01*
X13614896Y-12456079D02*
X13605372Y-12437031D01*
X13605372Y-12437031D02*
X13595849Y-12408460D01*
X13595849Y-12408460D02*
X13586325Y-12360841D01*
X13586325Y-12360841D02*
X13586325Y-12322746D01*
X13586325Y-12322746D02*
X13595849Y-12275127D01*
X13595849Y-12275127D02*
X13605372Y-12246555D01*
X13605372Y-12246555D02*
X13614896Y-12227508D01*
X13614896Y-12227508D02*
X13633944Y-12198936D01*
X13633944Y-12198936D02*
X13643468Y-12189412D01*
X13719658Y-12284650D02*
X13719658Y-12417984D01*
X13719658Y-12303698D02*
X13729182Y-12294174D01*
X13729182Y-12294174D02*
X13748230Y-12284650D01*
X13748230Y-12284650D02*
X13776801Y-12284650D01*
X13776801Y-12284650D02*
X13795849Y-12294174D01*
X13795849Y-12294174D02*
X13805372Y-12313222D01*
X13805372Y-12313222D02*
X13805372Y-12417984D01*
X13929182Y-12417984D02*
X13910134Y-12408460D01*
X13910134Y-12408460D02*
X13900611Y-12398936D01*
X13900611Y-12398936D02*
X13891087Y-12379888D01*
X13891087Y-12379888D02*
X13891087Y-12322746D01*
X13891087Y-12322746D02*
X13900611Y-12303698D01*
X13900611Y-12303698D02*
X13910134Y-12294174D01*
X13910134Y-12294174D02*
X13929182Y-12284650D01*
X13929182Y-12284650D02*
X13957753Y-12284650D01*
X13957753Y-12284650D02*
X13976801Y-12294174D01*
X13976801Y-12294174D02*
X13986325Y-12303698D01*
X13986325Y-12303698D02*
X13995849Y-12322746D01*
X13995849Y-12322746D02*
X13995849Y-12379888D01*
X13995849Y-12379888D02*
X13986325Y-12398936D01*
X13986325Y-12398936D02*
X13976801Y-12408460D01*
X13976801Y-12408460D02*
X13957753Y-12417984D01*
X13957753Y-12417984D02*
X13929182Y-12417984D01*
X14052992Y-12284650D02*
X14129182Y-12284650D01*
X14081563Y-12217984D02*
X14081563Y-12389412D01*
X14081563Y-12389412D02*
X14091087Y-12408460D01*
X14091087Y-12408460D02*
X14110134Y-12417984D01*
X14110134Y-12417984D02*
X14129182Y-12417984D01*
X14348230Y-12284650D02*
X14348230Y-12484650D01*
X14348230Y-12294174D02*
X14367277Y-12284650D01*
X14367277Y-12284650D02*
X14405373Y-12284650D01*
X14405373Y-12284650D02*
X14424420Y-12294174D01*
X14424420Y-12294174D02*
X14433944Y-12303698D01*
X14433944Y-12303698D02*
X14443468Y-12322746D01*
X14443468Y-12322746D02*
X14443468Y-12379888D01*
X14443468Y-12379888D02*
X14433944Y-12398936D01*
X14433944Y-12398936D02*
X14424420Y-12408460D01*
X14424420Y-12408460D02*
X14405373Y-12417984D01*
X14405373Y-12417984D02*
X14367277Y-12417984D01*
X14367277Y-12417984D02*
X14348230Y-12408460D01*
X14557753Y-12417984D02*
X14538706Y-12408460D01*
X14538706Y-12408460D02*
X14529182Y-12389412D01*
X14529182Y-12389412D02*
X14529182Y-12217984D01*
X14719658Y-12417984D02*
X14719658Y-12313222D01*
X14719658Y-12313222D02*
X14710134Y-12294174D01*
X14710134Y-12294174D02*
X14691087Y-12284650D01*
X14691087Y-12284650D02*
X14652992Y-12284650D01*
X14652992Y-12284650D02*
X14633944Y-12294174D01*
X14719658Y-12408460D02*
X14700611Y-12417984D01*
X14700611Y-12417984D02*
X14652992Y-12417984D01*
X14652992Y-12417984D02*
X14633944Y-12408460D01*
X14633944Y-12408460D02*
X14624420Y-12389412D01*
X14624420Y-12389412D02*
X14624420Y-12370365D01*
X14624420Y-12370365D02*
X14633944Y-12351317D01*
X14633944Y-12351317D02*
X14652992Y-12341793D01*
X14652992Y-12341793D02*
X14700611Y-12341793D01*
X14700611Y-12341793D02*
X14719658Y-12332269D01*
X14786325Y-12284650D02*
X14862515Y-12284650D01*
X14814896Y-12217984D02*
X14814896Y-12389412D01*
X14814896Y-12389412D02*
X14824420Y-12408460D01*
X14824420Y-12408460D02*
X14843468Y-12417984D01*
X14843468Y-12417984D02*
X14862515Y-12417984D01*
X15005373Y-12408460D02*
X14986325Y-12417984D01*
X14986325Y-12417984D02*
X14948230Y-12417984D01*
X14948230Y-12417984D02*
X14929182Y-12408460D01*
X14929182Y-12408460D02*
X14919658Y-12389412D01*
X14919658Y-12389412D02*
X14919658Y-12313222D01*
X14919658Y-12313222D02*
X14929182Y-12294174D01*
X14929182Y-12294174D02*
X14948230Y-12284650D01*
X14948230Y-12284650D02*
X14986325Y-12284650D01*
X14986325Y-12284650D02*
X15005373Y-12294174D01*
X15005373Y-12294174D02*
X15014896Y-12313222D01*
X15014896Y-12313222D02*
X15014896Y-12332269D01*
X15014896Y-12332269D02*
X14919658Y-12351317D01*
X15186325Y-12417984D02*
X15186325Y-12217984D01*
X15186325Y-12408460D02*
X15167277Y-12417984D01*
X15167277Y-12417984D02*
X15129182Y-12417984D01*
X15129182Y-12417984D02*
X15110134Y-12408460D01*
X15110134Y-12408460D02*
X15100611Y-12398936D01*
X15100611Y-12398936D02*
X15091087Y-12379888D01*
X15091087Y-12379888D02*
X15091087Y-12322746D01*
X15091087Y-12322746D02*
X15100611Y-12303698D01*
X15100611Y-12303698D02*
X15110134Y-12294174D01*
X15110134Y-12294174D02*
X15129182Y-12284650D01*
X15129182Y-12284650D02*
X15167277Y-12284650D01*
X15167277Y-12284650D02*
X15186325Y-12294174D01*
X15262515Y-12494174D02*
X15272039Y-12484650D01*
X15272039Y-12484650D02*
X15291087Y-12456079D01*
X15291087Y-12456079D02*
X15300611Y-12437031D01*
X15300611Y-12437031D02*
X15310134Y-12408460D01*
X15310134Y-12408460D02*
X15319658Y-12360841D01*
X15319658Y-12360841D02*
X15319658Y-12322746D01*
X15319658Y-12322746D02*
X15310134Y-12275127D01*
X15310134Y-12275127D02*
X15300611Y-12246555D01*
X15300611Y-12246555D02*
X15291087Y-12227508D01*
X15291087Y-12227508D02*
X15272039Y-12198936D01*
X15272039Y-12198936D02*
X15262515Y-12189412D01*
M02*
