G04 #@! TF.GenerationSoftware,KiCad,Pcbnew,7.0.11-7.0.11~ubuntu20.04.1*
G04 #@! TF.CreationDate,2024-08-17T18:13:06+02:00*
G04 #@! TF.ProjectId,kicad-kria-pi4-ext,6b696361-642d-46b7-9269-612d7069342d,1.0*
G04 #@! TF.SameCoordinates,Original*
G04 #@! TF.FileFunction,Legend,Bot*
G04 #@! TF.FilePolarity,Positive*
%FSLAX46Y46*%
G04 Gerber Fmt 4.6, Leading zero omitted, Abs format (unit mm)*
G04 Created by KiCad (PCBNEW 7.0.11-7.0.11~ubuntu20.04.1) date 2024-08-17 18:13:06*
%MOMM*%
%LPD*%
G01*
G04 APERTURE LIST*
G04 Aperture macros list*
%AMRoundRect*
0 Rectangle with rounded corners*
0 $1 Rounding radius*
0 $2 $3 $4 $5 $6 $7 $8 $9 X,Y pos of 4 corners*
0 Add a 4 corners polygon primitive as box body*
4,1,4,$2,$3,$4,$5,$6,$7,$8,$9,$2,$3,0*
0 Add four circle primitives for the rounded corners*
1,1,$1+$1,$2,$3*
1,1,$1+$1,$4,$5*
1,1,$1+$1,$6,$7*
1,1,$1+$1,$8,$9*
0 Add four rect primitives between the rounded corners*
20,1,$1+$1,$2,$3,$4,$5,0*
20,1,$1+$1,$4,$5,$6,$7,0*
20,1,$1+$1,$6,$7,$8,$9,0*
20,1,$1+$1,$8,$9,$2,$3,0*%
G04 Aperture macros list end*
%ADD10C,0.130000*%
%ADD11C,0.150000*%
%ADD12C,0.120000*%
%ADD13C,2.500000*%
%ADD14R,1.700000X1.700000*%
%ADD15O,1.700000X1.700000*%
%ADD16RoundRect,0.250000X0.600000X0.600000X-0.600000X0.600000X-0.600000X-0.600000X0.600000X-0.600000X0*%
%ADD17C,1.700000*%
G04 APERTURE END LIST*
D10*
X141590950Y-82201144D02*
X141590950Y-80901144D01*
X140848093Y-82201144D02*
X141405235Y-81458287D01*
X140848093Y-80901144D02*
X141590950Y-81644001D01*
X140290950Y-82201144D02*
X140290950Y-81334478D01*
X140290950Y-81582097D02*
X140229045Y-81458287D01*
X140229045Y-81458287D02*
X140167140Y-81396382D01*
X140167140Y-81396382D02*
X140043331Y-81334478D01*
X140043331Y-81334478D02*
X139919521Y-81334478D01*
X139486188Y-82201144D02*
X139486188Y-81334478D01*
X139486188Y-80901144D02*
X139548092Y-80963049D01*
X139548092Y-80963049D02*
X139486188Y-81024954D01*
X139486188Y-81024954D02*
X139424283Y-80963049D01*
X139424283Y-80963049D02*
X139486188Y-80901144D01*
X139486188Y-80901144D02*
X139486188Y-81024954D01*
X138309997Y-82201144D02*
X138309997Y-81520192D01*
X138309997Y-81520192D02*
X138371902Y-81396382D01*
X138371902Y-81396382D02*
X138495711Y-81334478D01*
X138495711Y-81334478D02*
X138743330Y-81334478D01*
X138743330Y-81334478D02*
X138867140Y-81396382D01*
X138309997Y-82139240D02*
X138433806Y-82201144D01*
X138433806Y-82201144D02*
X138743330Y-82201144D01*
X138743330Y-82201144D02*
X138867140Y-82139240D01*
X138867140Y-82139240D02*
X138929044Y-82015430D01*
X138929044Y-82015430D02*
X138929044Y-81891620D01*
X138929044Y-81891620D02*
X138867140Y-81767811D01*
X138867140Y-81767811D02*
X138743330Y-81705906D01*
X138743330Y-81705906D02*
X138433806Y-81705906D01*
X138433806Y-81705906D02*
X138309997Y-81644001D01*
X136700474Y-82201144D02*
X136700474Y-80901144D01*
X135957617Y-82201144D02*
X136514759Y-81458287D01*
X135957617Y-80901144D02*
X136700474Y-81644001D01*
X134657617Y-82201144D02*
X135090950Y-81582097D01*
X135400474Y-82201144D02*
X135400474Y-80901144D01*
X135400474Y-80901144D02*
X134905236Y-80901144D01*
X134905236Y-80901144D02*
X134781426Y-80963049D01*
X134781426Y-80963049D02*
X134719521Y-81024954D01*
X134719521Y-81024954D02*
X134657617Y-81148763D01*
X134657617Y-81148763D02*
X134657617Y-81334478D01*
X134657617Y-81334478D02*
X134719521Y-81458287D01*
X134719521Y-81458287D02*
X134781426Y-81520192D01*
X134781426Y-81520192D02*
X134905236Y-81582097D01*
X134905236Y-81582097D02*
X135400474Y-81582097D01*
X134162378Y-81024954D02*
X134100474Y-80963049D01*
X134100474Y-80963049D02*
X133976664Y-80901144D01*
X133976664Y-80901144D02*
X133667140Y-80901144D01*
X133667140Y-80901144D02*
X133543331Y-80963049D01*
X133543331Y-80963049D02*
X133481426Y-81024954D01*
X133481426Y-81024954D02*
X133419521Y-81148763D01*
X133419521Y-81148763D02*
X133419521Y-81272573D01*
X133419521Y-81272573D02*
X133481426Y-81458287D01*
X133481426Y-81458287D02*
X134224283Y-82201144D01*
X134224283Y-82201144D02*
X133419521Y-82201144D01*
X132305236Y-80901144D02*
X132552855Y-80901144D01*
X132552855Y-80901144D02*
X132676664Y-80963049D01*
X132676664Y-80963049D02*
X132738569Y-81024954D01*
X132738569Y-81024954D02*
X132862379Y-81210668D01*
X132862379Y-81210668D02*
X132924283Y-81458287D01*
X132924283Y-81458287D02*
X132924283Y-81953525D01*
X132924283Y-81953525D02*
X132862379Y-82077335D01*
X132862379Y-82077335D02*
X132800474Y-82139240D01*
X132800474Y-82139240D02*
X132676664Y-82201144D01*
X132676664Y-82201144D02*
X132429045Y-82201144D01*
X132429045Y-82201144D02*
X132305236Y-82139240D01*
X132305236Y-82139240D02*
X132243331Y-82077335D01*
X132243331Y-82077335D02*
X132181426Y-81953525D01*
X132181426Y-81953525D02*
X132181426Y-81644001D01*
X132181426Y-81644001D02*
X132243331Y-81520192D01*
X132243331Y-81520192D02*
X132305236Y-81458287D01*
X132305236Y-81458287D02*
X132429045Y-81396382D01*
X132429045Y-81396382D02*
X132676664Y-81396382D01*
X132676664Y-81396382D02*
X132800474Y-81458287D01*
X132800474Y-81458287D02*
X132862379Y-81520192D01*
X132862379Y-81520192D02*
X132924283Y-81644001D01*
X131376665Y-80901144D02*
X131252855Y-80901144D01*
X131252855Y-80901144D02*
X131129046Y-80963049D01*
X131129046Y-80963049D02*
X131067141Y-81024954D01*
X131067141Y-81024954D02*
X131005236Y-81148763D01*
X131005236Y-81148763D02*
X130943331Y-81396382D01*
X130943331Y-81396382D02*
X130943331Y-81705906D01*
X130943331Y-81705906D02*
X131005236Y-81953525D01*
X131005236Y-81953525D02*
X131067141Y-82077335D01*
X131067141Y-82077335D02*
X131129046Y-82139240D01*
X131129046Y-82139240D02*
X131252855Y-82201144D01*
X131252855Y-82201144D02*
X131376665Y-82201144D01*
X131376665Y-82201144D02*
X131500474Y-82139240D01*
X131500474Y-82139240D02*
X131562379Y-82077335D01*
X131562379Y-82077335D02*
X131624284Y-81953525D01*
X131624284Y-81953525D02*
X131686188Y-81705906D01*
X131686188Y-81705906D02*
X131686188Y-81396382D01*
X131686188Y-81396382D02*
X131624284Y-81148763D01*
X131624284Y-81148763D02*
X131562379Y-81024954D01*
X131562379Y-81024954D02*
X131500474Y-80963049D01*
X131500474Y-80963049D02*
X131376665Y-80901144D01*
X129395713Y-82201144D02*
X129395713Y-80901144D01*
X129395713Y-80901144D02*
X128900475Y-80901144D01*
X128900475Y-80901144D02*
X128776665Y-80963049D01*
X128776665Y-80963049D02*
X128714760Y-81024954D01*
X128714760Y-81024954D02*
X128652856Y-81148763D01*
X128652856Y-81148763D02*
X128652856Y-81334478D01*
X128652856Y-81334478D02*
X128714760Y-81458287D01*
X128714760Y-81458287D02*
X128776665Y-81520192D01*
X128776665Y-81520192D02*
X128900475Y-81582097D01*
X128900475Y-81582097D02*
X129395713Y-81582097D01*
X128095713Y-82201144D02*
X128095713Y-81334478D01*
X128095713Y-80901144D02*
X128157617Y-80963049D01*
X128157617Y-80963049D02*
X128095713Y-81024954D01*
X128095713Y-81024954D02*
X128033808Y-80963049D01*
X128033808Y-80963049D02*
X128095713Y-80901144D01*
X128095713Y-80901144D02*
X128095713Y-81024954D01*
X127476665Y-81705906D02*
X126486189Y-81705906D01*
X125990950Y-80901144D02*
X125124284Y-80901144D01*
X125124284Y-80901144D02*
X125990950Y-82201144D01*
X125990950Y-82201144D02*
X125124284Y-82201144D01*
X124629046Y-81705906D02*
X123638570Y-81705906D01*
X123205236Y-80901144D02*
X122462379Y-80901144D01*
X122833807Y-82201144D02*
X122833807Y-80901144D01*
X121471903Y-81334478D02*
X121471903Y-82201144D01*
X122029046Y-81334478D02*
X122029046Y-82015430D01*
X122029046Y-82015430D02*
X121967141Y-82139240D01*
X121967141Y-82139240D02*
X121843331Y-82201144D01*
X121843331Y-82201144D02*
X121657617Y-82201144D01*
X121657617Y-82201144D02*
X121533808Y-82139240D01*
X121533808Y-82139240D02*
X121471903Y-82077335D01*
X120852856Y-82201144D02*
X120852856Y-81334478D01*
X120852856Y-81582097D02*
X120790951Y-81458287D01*
X120790951Y-81458287D02*
X120729046Y-81396382D01*
X120729046Y-81396382D02*
X120605237Y-81334478D01*
X120605237Y-81334478D02*
X120481427Y-81334478D01*
X120048094Y-81334478D02*
X120048094Y-82201144D01*
X120048094Y-81458287D02*
X119986189Y-81396382D01*
X119986189Y-81396382D02*
X119862379Y-81334478D01*
X119862379Y-81334478D02*
X119676665Y-81334478D01*
X119676665Y-81334478D02*
X119552856Y-81396382D01*
X119552856Y-81396382D02*
X119490951Y-81520192D01*
X119490951Y-81520192D02*
X119490951Y-82201144D01*
X117943332Y-81829716D02*
X117324285Y-81829716D01*
X118067142Y-82201144D02*
X117633809Y-80901144D01*
X117633809Y-80901144D02*
X117200475Y-82201144D01*
X116209999Y-82201144D02*
X116209999Y-80901144D01*
X116209999Y-82139240D02*
X116333808Y-82201144D01*
X116333808Y-82201144D02*
X116581427Y-82201144D01*
X116581427Y-82201144D02*
X116705237Y-82139240D01*
X116705237Y-82139240D02*
X116767142Y-82077335D01*
X116767142Y-82077335D02*
X116829046Y-81953525D01*
X116829046Y-81953525D02*
X116829046Y-81582097D01*
X116829046Y-81582097D02*
X116767142Y-81458287D01*
X116767142Y-81458287D02*
X116705237Y-81396382D01*
X116705237Y-81396382D02*
X116581427Y-81334478D01*
X116581427Y-81334478D02*
X116333808Y-81334478D01*
X116333808Y-81334478D02*
X116209999Y-81396382D01*
X115033809Y-82201144D02*
X115033809Y-81520192D01*
X115033809Y-81520192D02*
X115095714Y-81396382D01*
X115095714Y-81396382D02*
X115219523Y-81334478D01*
X115219523Y-81334478D02*
X115467142Y-81334478D01*
X115467142Y-81334478D02*
X115590952Y-81396382D01*
X115033809Y-82139240D02*
X115157618Y-82201144D01*
X115157618Y-82201144D02*
X115467142Y-82201144D01*
X115467142Y-82201144D02*
X115590952Y-82139240D01*
X115590952Y-82139240D02*
X115652856Y-82015430D01*
X115652856Y-82015430D02*
X115652856Y-81891620D01*
X115652856Y-81891620D02*
X115590952Y-81767811D01*
X115590952Y-81767811D02*
X115467142Y-81705906D01*
X115467142Y-81705906D02*
X115157618Y-81705906D01*
X115157618Y-81705906D02*
X115033809Y-81644001D01*
X114414762Y-81334478D02*
X114414762Y-82634478D01*
X114414762Y-81396382D02*
X114290952Y-81334478D01*
X114290952Y-81334478D02*
X114043333Y-81334478D01*
X114043333Y-81334478D02*
X113919524Y-81396382D01*
X113919524Y-81396382D02*
X113857619Y-81458287D01*
X113857619Y-81458287D02*
X113795714Y-81582097D01*
X113795714Y-81582097D02*
X113795714Y-81953525D01*
X113795714Y-81953525D02*
X113857619Y-82077335D01*
X113857619Y-82077335D02*
X113919524Y-82139240D01*
X113919524Y-82139240D02*
X114043333Y-82201144D01*
X114043333Y-82201144D02*
X114290952Y-82201144D01*
X114290952Y-82201144D02*
X114414762Y-82139240D01*
X113424286Y-81334478D02*
X112929048Y-81334478D01*
X113238572Y-80901144D02*
X113238572Y-82015430D01*
X113238572Y-82015430D02*
X113176667Y-82139240D01*
X113176667Y-82139240D02*
X113052857Y-82201144D01*
X113052857Y-82201144D02*
X112929048Y-82201144D01*
X112000477Y-82139240D02*
X112124286Y-82201144D01*
X112124286Y-82201144D02*
X112371905Y-82201144D01*
X112371905Y-82201144D02*
X112495715Y-82139240D01*
X112495715Y-82139240D02*
X112557619Y-82015430D01*
X112557619Y-82015430D02*
X112557619Y-81520192D01*
X112557619Y-81520192D02*
X112495715Y-81396382D01*
X112495715Y-81396382D02*
X112371905Y-81334478D01*
X112371905Y-81334478D02*
X112124286Y-81334478D01*
X112124286Y-81334478D02*
X112000477Y-81396382D01*
X112000477Y-81396382D02*
X111938572Y-81520192D01*
X111938572Y-81520192D02*
X111938572Y-81644001D01*
X111938572Y-81644001D02*
X112557619Y-81767811D01*
X111381429Y-82201144D02*
X111381429Y-81334478D01*
X111381429Y-81582097D02*
X111319524Y-81458287D01*
X111319524Y-81458287D02*
X111257619Y-81396382D01*
X111257619Y-81396382D02*
X111133810Y-81334478D01*
X111133810Y-81334478D02*
X111010000Y-81334478D01*
X140909997Y-86387144D02*
X141652854Y-86387144D01*
X141281426Y-86387144D02*
X141281426Y-85087144D01*
X141281426Y-85087144D02*
X141405235Y-85272859D01*
X141405235Y-85272859D02*
X141529045Y-85396668D01*
X141529045Y-85396668D02*
X141652854Y-85458573D01*
X139795712Y-85087144D02*
X140043331Y-85087144D01*
X140043331Y-85087144D02*
X140167140Y-85149049D01*
X140167140Y-85149049D02*
X140229045Y-85210954D01*
X140229045Y-85210954D02*
X140352855Y-85396668D01*
X140352855Y-85396668D02*
X140414759Y-85644287D01*
X140414759Y-85644287D02*
X140414759Y-86139525D01*
X140414759Y-86139525D02*
X140352855Y-86263335D01*
X140352855Y-86263335D02*
X140290950Y-86325240D01*
X140290950Y-86325240D02*
X140167140Y-86387144D01*
X140167140Y-86387144D02*
X139919521Y-86387144D01*
X139919521Y-86387144D02*
X139795712Y-86325240D01*
X139795712Y-86325240D02*
X139733807Y-86263335D01*
X139733807Y-86263335D02*
X139671902Y-86139525D01*
X139671902Y-86139525D02*
X139671902Y-85830001D01*
X139671902Y-85830001D02*
X139733807Y-85706192D01*
X139733807Y-85706192D02*
X139795712Y-85644287D01*
X139795712Y-85644287D02*
X139919521Y-85582382D01*
X139919521Y-85582382D02*
X140167140Y-85582382D01*
X140167140Y-85582382D02*
X140290950Y-85644287D01*
X140290950Y-85644287D02*
X140352855Y-85706192D01*
X140352855Y-85706192D02*
X140414759Y-85830001D01*
X139114760Y-86263335D02*
X139052855Y-86325240D01*
X139052855Y-86325240D02*
X139114760Y-86387144D01*
X139114760Y-86387144D02*
X139176664Y-86325240D01*
X139176664Y-86325240D02*
X139114760Y-86263335D01*
X139114760Y-86263335D02*
X139114760Y-86387144D01*
X138248093Y-85087144D02*
X138124283Y-85087144D01*
X138124283Y-85087144D02*
X138000474Y-85149049D01*
X138000474Y-85149049D02*
X137938569Y-85210954D01*
X137938569Y-85210954D02*
X137876664Y-85334763D01*
X137876664Y-85334763D02*
X137814759Y-85582382D01*
X137814759Y-85582382D02*
X137814759Y-85891906D01*
X137814759Y-85891906D02*
X137876664Y-86139525D01*
X137876664Y-86139525D02*
X137938569Y-86263335D01*
X137938569Y-86263335D02*
X138000474Y-86325240D01*
X138000474Y-86325240D02*
X138124283Y-86387144D01*
X138124283Y-86387144D02*
X138248093Y-86387144D01*
X138248093Y-86387144D02*
X138371902Y-86325240D01*
X138371902Y-86325240D02*
X138433807Y-86263335D01*
X138433807Y-86263335D02*
X138495712Y-86139525D01*
X138495712Y-86139525D02*
X138557616Y-85891906D01*
X138557616Y-85891906D02*
X138557616Y-85582382D01*
X138557616Y-85582382D02*
X138495712Y-85334763D01*
X138495712Y-85334763D02*
X138433807Y-85210954D01*
X138433807Y-85210954D02*
X138371902Y-85149049D01*
X138371902Y-85149049D02*
X138248093Y-85087144D01*
X137071902Y-85644287D02*
X137195712Y-85582382D01*
X137195712Y-85582382D02*
X137257617Y-85520478D01*
X137257617Y-85520478D02*
X137319521Y-85396668D01*
X137319521Y-85396668D02*
X137319521Y-85334763D01*
X137319521Y-85334763D02*
X137257617Y-85210954D01*
X137257617Y-85210954D02*
X137195712Y-85149049D01*
X137195712Y-85149049D02*
X137071902Y-85087144D01*
X137071902Y-85087144D02*
X136824283Y-85087144D01*
X136824283Y-85087144D02*
X136700474Y-85149049D01*
X136700474Y-85149049D02*
X136638569Y-85210954D01*
X136638569Y-85210954D02*
X136576664Y-85334763D01*
X136576664Y-85334763D02*
X136576664Y-85396668D01*
X136576664Y-85396668D02*
X136638569Y-85520478D01*
X136638569Y-85520478D02*
X136700474Y-85582382D01*
X136700474Y-85582382D02*
X136824283Y-85644287D01*
X136824283Y-85644287D02*
X137071902Y-85644287D01*
X137071902Y-85644287D02*
X137195712Y-85706192D01*
X137195712Y-85706192D02*
X137257617Y-85768097D01*
X137257617Y-85768097D02*
X137319521Y-85891906D01*
X137319521Y-85891906D02*
X137319521Y-86139525D01*
X137319521Y-86139525D02*
X137257617Y-86263335D01*
X137257617Y-86263335D02*
X137195712Y-86325240D01*
X137195712Y-86325240D02*
X137071902Y-86387144D01*
X137071902Y-86387144D02*
X136824283Y-86387144D01*
X136824283Y-86387144D02*
X136700474Y-86325240D01*
X136700474Y-86325240D02*
X136638569Y-86263335D01*
X136638569Y-86263335D02*
X136576664Y-86139525D01*
X136576664Y-86139525D02*
X136576664Y-85891906D01*
X136576664Y-85891906D02*
X136638569Y-85768097D01*
X136638569Y-85768097D02*
X136700474Y-85706192D01*
X136700474Y-85706192D02*
X136824283Y-85644287D01*
X136019522Y-86263335D02*
X135957617Y-86325240D01*
X135957617Y-86325240D02*
X136019522Y-86387144D01*
X136019522Y-86387144D02*
X136081426Y-86325240D01*
X136081426Y-86325240D02*
X136019522Y-86263335D01*
X136019522Y-86263335D02*
X136019522Y-86387144D01*
X135462378Y-85210954D02*
X135400474Y-85149049D01*
X135400474Y-85149049D02*
X135276664Y-85087144D01*
X135276664Y-85087144D02*
X134967140Y-85087144D01*
X134967140Y-85087144D02*
X134843331Y-85149049D01*
X134843331Y-85149049D02*
X134781426Y-85210954D01*
X134781426Y-85210954D02*
X134719521Y-85334763D01*
X134719521Y-85334763D02*
X134719521Y-85458573D01*
X134719521Y-85458573D02*
X134781426Y-85644287D01*
X134781426Y-85644287D02*
X135524283Y-86387144D01*
X135524283Y-86387144D02*
X134719521Y-86387144D01*
X133914760Y-85087144D02*
X133790950Y-85087144D01*
X133790950Y-85087144D02*
X133667141Y-85149049D01*
X133667141Y-85149049D02*
X133605236Y-85210954D01*
X133605236Y-85210954D02*
X133543331Y-85334763D01*
X133543331Y-85334763D02*
X133481426Y-85582382D01*
X133481426Y-85582382D02*
X133481426Y-85891906D01*
X133481426Y-85891906D02*
X133543331Y-86139525D01*
X133543331Y-86139525D02*
X133605236Y-86263335D01*
X133605236Y-86263335D02*
X133667141Y-86325240D01*
X133667141Y-86325240D02*
X133790950Y-86387144D01*
X133790950Y-86387144D02*
X133914760Y-86387144D01*
X133914760Y-86387144D02*
X134038569Y-86325240D01*
X134038569Y-86325240D02*
X134100474Y-86263335D01*
X134100474Y-86263335D02*
X134162379Y-86139525D01*
X134162379Y-86139525D02*
X134224283Y-85891906D01*
X134224283Y-85891906D02*
X134224283Y-85582382D01*
X134224283Y-85582382D02*
X134162379Y-85334763D01*
X134162379Y-85334763D02*
X134100474Y-85210954D01*
X134100474Y-85210954D02*
X134038569Y-85149049D01*
X134038569Y-85149049D02*
X133914760Y-85087144D01*
X132986188Y-85210954D02*
X132924284Y-85149049D01*
X132924284Y-85149049D02*
X132800474Y-85087144D01*
X132800474Y-85087144D02*
X132490950Y-85087144D01*
X132490950Y-85087144D02*
X132367141Y-85149049D01*
X132367141Y-85149049D02*
X132305236Y-85210954D01*
X132305236Y-85210954D02*
X132243331Y-85334763D01*
X132243331Y-85334763D02*
X132243331Y-85458573D01*
X132243331Y-85458573D02*
X132305236Y-85644287D01*
X132305236Y-85644287D02*
X133048093Y-86387144D01*
X133048093Y-86387144D02*
X132243331Y-86387144D01*
X131129046Y-85520478D02*
X131129046Y-86387144D01*
X131438570Y-85025240D02*
X131748093Y-85953811D01*
X131748093Y-85953811D02*
X130943332Y-85953811D01*
X141590950Y-88480144D02*
X141590950Y-87180144D01*
X141590950Y-87675382D02*
X141467140Y-87613478D01*
X141467140Y-87613478D02*
X141219521Y-87613478D01*
X141219521Y-87613478D02*
X141095712Y-87675382D01*
X141095712Y-87675382D02*
X141033807Y-87737287D01*
X141033807Y-87737287D02*
X140971902Y-87861097D01*
X140971902Y-87861097D02*
X140971902Y-88232525D01*
X140971902Y-88232525D02*
X141033807Y-88356335D01*
X141033807Y-88356335D02*
X141095712Y-88418240D01*
X141095712Y-88418240D02*
X141219521Y-88480144D01*
X141219521Y-88480144D02*
X141467140Y-88480144D01*
X141467140Y-88480144D02*
X141590950Y-88418240D01*
X140538569Y-87613478D02*
X140229045Y-88480144D01*
X139919522Y-87613478D02*
X140229045Y-88480144D01*
X140229045Y-88480144D02*
X140352855Y-88789668D01*
X140352855Y-88789668D02*
X140414760Y-88851573D01*
X140414760Y-88851573D02*
X140538569Y-88913478D01*
X138495712Y-88418240D02*
X138309998Y-88480144D01*
X138309998Y-88480144D02*
X138000474Y-88480144D01*
X138000474Y-88480144D02*
X137876665Y-88418240D01*
X137876665Y-88418240D02*
X137814760Y-88356335D01*
X137814760Y-88356335D02*
X137752855Y-88232525D01*
X137752855Y-88232525D02*
X137752855Y-88108716D01*
X137752855Y-88108716D02*
X137814760Y-87984906D01*
X137814760Y-87984906D02*
X137876665Y-87923001D01*
X137876665Y-87923001D02*
X138000474Y-87861097D01*
X138000474Y-87861097D02*
X138248093Y-87799192D01*
X138248093Y-87799192D02*
X138371903Y-87737287D01*
X138371903Y-87737287D02*
X138433808Y-87675382D01*
X138433808Y-87675382D02*
X138495712Y-87551573D01*
X138495712Y-87551573D02*
X138495712Y-87427763D01*
X138495712Y-87427763D02*
X138433808Y-87303954D01*
X138433808Y-87303954D02*
X138371903Y-87242049D01*
X138371903Y-87242049D02*
X138248093Y-87180144D01*
X138248093Y-87180144D02*
X137938570Y-87180144D01*
X137938570Y-87180144D02*
X137752855Y-87242049D01*
X136576665Y-87180144D02*
X137195713Y-87180144D01*
X137195713Y-87180144D02*
X137257617Y-87799192D01*
X137257617Y-87799192D02*
X137195713Y-87737287D01*
X137195713Y-87737287D02*
X137071903Y-87675382D01*
X137071903Y-87675382D02*
X136762379Y-87675382D01*
X136762379Y-87675382D02*
X136638570Y-87737287D01*
X136638570Y-87737287D02*
X136576665Y-87799192D01*
X136576665Y-87799192D02*
X136514760Y-87923001D01*
X136514760Y-87923001D02*
X136514760Y-88232525D01*
X136514760Y-88232525D02*
X136576665Y-88356335D01*
X136576665Y-88356335D02*
X136638570Y-88418240D01*
X136638570Y-88418240D02*
X136762379Y-88480144D01*
X136762379Y-88480144D02*
X137071903Y-88480144D01*
X137071903Y-88480144D02*
X137195713Y-88418240D01*
X137195713Y-88418240D02*
X137257617Y-88356335D01*
X135895713Y-88480144D02*
X135648094Y-88480144D01*
X135648094Y-88480144D02*
X135524284Y-88418240D01*
X135524284Y-88418240D02*
X135462380Y-88356335D01*
X135462380Y-88356335D02*
X135338570Y-88170620D01*
X135338570Y-88170620D02*
X135276665Y-87923001D01*
X135276665Y-87923001D02*
X135276665Y-87427763D01*
X135276665Y-87427763D02*
X135338570Y-87303954D01*
X135338570Y-87303954D02*
X135400475Y-87242049D01*
X135400475Y-87242049D02*
X135524284Y-87180144D01*
X135524284Y-87180144D02*
X135771903Y-87180144D01*
X135771903Y-87180144D02*
X135895713Y-87242049D01*
X135895713Y-87242049D02*
X135957618Y-87303954D01*
X135957618Y-87303954D02*
X136019522Y-87427763D01*
X136019522Y-87427763D02*
X136019522Y-87737287D01*
X136019522Y-87737287D02*
X135957618Y-87861097D01*
X135957618Y-87861097D02*
X135895713Y-87923001D01*
X135895713Y-87923001D02*
X135771903Y-87984906D01*
X135771903Y-87984906D02*
X135524284Y-87984906D01*
X135524284Y-87984906D02*
X135400475Y-87923001D01*
X135400475Y-87923001D02*
X135338570Y-87861097D01*
X135338570Y-87861097D02*
X135276665Y-87737287D01*
X134719523Y-88480144D02*
X134719523Y-87180144D01*
X134719523Y-87180144D02*
X134286189Y-88108716D01*
X134286189Y-88108716D02*
X133852856Y-87180144D01*
X133852856Y-87180144D02*
X133852856Y-88480144D01*
X133357618Y-87180144D02*
X132490952Y-87180144D01*
X132490952Y-87180144D02*
X133357618Y-88480144D01*
X133357618Y-88480144D02*
X132490952Y-88480144D01*
D11*
X101933333Y-53429819D02*
X101933333Y-54144104D01*
X101933333Y-54144104D02*
X101980952Y-54286961D01*
X101980952Y-54286961D02*
X102076190Y-54382200D01*
X102076190Y-54382200D02*
X102219047Y-54429819D01*
X102219047Y-54429819D02*
X102314285Y-54429819D01*
X100933333Y-54429819D02*
X101504761Y-54429819D01*
X101219047Y-54429819D02*
X101219047Y-53429819D01*
X101219047Y-53429819D02*
X101314285Y-53572676D01*
X101314285Y-53572676D02*
X101409523Y-53667914D01*
X101409523Y-53667914D02*
X101504761Y-53715533D01*
D12*
X151190000Y-46930000D02*
X151190000Y-52130000D01*
X100270000Y-46930000D02*
X151190000Y-46930000D01*
X100270000Y-46930000D02*
X100270000Y-49530000D01*
X102870000Y-49530000D02*
X102870000Y-52130000D01*
X100270000Y-49530000D02*
X102870000Y-49530000D01*
X100270000Y-50800000D02*
X100270000Y-52130000D01*
X102870000Y-52130000D02*
X151190000Y-52130000D01*
X100270000Y-52130000D02*
X101600000Y-52130000D01*
%LPC*%
D13*
X154940000Y-49530000D03*
X104140000Y-111760000D03*
X96520000Y-49530000D03*
D14*
X90170000Y-60955000D03*
D15*
X90170000Y-58415000D03*
D13*
X147320000Y-111760000D03*
D14*
X101600000Y-63500000D03*
D15*
X101600000Y-60960000D03*
X104140000Y-63500000D03*
X104140000Y-60960000D03*
X106680000Y-63500000D03*
X106680000Y-60960000D03*
X109220000Y-63500000D03*
X109220000Y-60960000D03*
X111760000Y-63500000D03*
X111760000Y-60960000D03*
X114300000Y-63500000D03*
X114300000Y-60960000D03*
X116840000Y-63500000D03*
X116840000Y-60960000D03*
X119380000Y-63500000D03*
X119380000Y-60960000D03*
X121920000Y-63500000D03*
X121920000Y-60960000D03*
X124460000Y-63500000D03*
X124460000Y-60960000D03*
X127000000Y-63500000D03*
X127000000Y-60960000D03*
X129540000Y-63500000D03*
X129540000Y-60960000D03*
X132080000Y-63500000D03*
X132080000Y-60960000D03*
X134620000Y-63500000D03*
X134620000Y-60960000D03*
X137160000Y-63500000D03*
X137160000Y-60960000D03*
X139700000Y-63500000D03*
X139700000Y-60960000D03*
X142240000Y-63500000D03*
X142240000Y-60960000D03*
X144780000Y-63500000D03*
X144780000Y-60960000D03*
X147320000Y-63500000D03*
X147320000Y-60960000D03*
X149860000Y-63500000D03*
X149860000Y-60960000D03*
D13*
X129540000Y-107315000D03*
D16*
X91440000Y-85090000D03*
D17*
X88900000Y-85090000D03*
X91440000Y-82550000D03*
X88900000Y-82550000D03*
X91440000Y-80010000D03*
X88900000Y-80010000D03*
X91440000Y-77470000D03*
X88900000Y-77470000D03*
X91440000Y-74930000D03*
X88900000Y-74930000D03*
X91440000Y-72390000D03*
X88900000Y-72390000D03*
D14*
X101600000Y-50800000D03*
D15*
X101600000Y-48260000D03*
X104140000Y-50800000D03*
X104140000Y-48260000D03*
X106680000Y-50800000D03*
X106680000Y-48260000D03*
X109220000Y-50800000D03*
X109220000Y-48260000D03*
X111760000Y-50800000D03*
X111760000Y-48260000D03*
X114300000Y-50800000D03*
X114300000Y-48260000D03*
X116840000Y-50800000D03*
X116840000Y-48260000D03*
X119380000Y-50800000D03*
X119380000Y-48260000D03*
X121920000Y-50800000D03*
X121920000Y-48260000D03*
X124460000Y-50800000D03*
X124460000Y-48260000D03*
X127000000Y-50800000D03*
X127000000Y-48260000D03*
X129540000Y-50800000D03*
X129540000Y-48260000D03*
X132080000Y-50800000D03*
X132080000Y-48260000D03*
X134620000Y-50800000D03*
X134620000Y-48260000D03*
X137160000Y-50800000D03*
X137160000Y-48260000D03*
X139700000Y-50800000D03*
X139700000Y-48260000D03*
X142240000Y-50800000D03*
X142240000Y-48260000D03*
X144780000Y-50800000D03*
X144780000Y-48260000D03*
X147320000Y-50800000D03*
X147320000Y-48260000D03*
X149860000Y-50800000D03*
X149860000Y-48260000D03*
%LPD*%
M02*
